RecursiveSans-StrictLight.ufo
<glyph name="exclam" format="1">
  <advance width="350"/>
  <unicode hex="0021"/>
  <outline>
    <contour>
      <point x="200" y="243" type="line"/>
      <point x="204" y="329"/>
      <point x="209" y="416"/>
      <point x="213" y="502" type="curve"/>
      <point x="213" y="689" type="line" smooth="yes"/>
      <point x="213" y="696"/>
      <point x="209" y="700"/>
      <point x="203" y="700" type="curve" smooth="yes"/>
      <point x="180" y="700"/>
      <point x="158" y="700"/>
      <point x="137" y="700" type="curve"/>
      <point x="137" y="662"/>
      <point x="137" y="627"/>
      <point x="137" y="590" type="curve" smooth="yes"/>
      <point x="137" y="502" type="line"/>
      <point x="148" y="256"/>
      <point x="150" y="250"/>
      <point x="154" y="246" type="curve" smooth="yes"/>
      <point x="156" y="244"/>
      <point x="158" y="243"/>
      <point x="162" y="243" type="curve"/>
    </contour>
    <contour>
      <point x="239" y="-5" type="curve"/>
      <point x="239" y="108" type="line" smooth="yes"/>
      <point x="239" y="114"/>
      <point x="234" y="119"/>
      <point x="228" y="119" type="curve" smooth="yes"/>
      <point x="196" y="119"/>
      <point x="143" y="119"/>
      <point x="111" y="119" type="curve"/>
      <point x="111" y="6" type="line" smooth="yes"/>
      <point x="111" y="0"/>
      <point x="116" y="-5"/>
      <point x="122" y="-5" type="curve" smooth="yes"/>
      <point x="154" y="-5"/>
      <point x="207" y="-5"/>
    </contour>
  </outline>
</glyph>
<glyph name="quotedbl" format="1">
  <advance width="600"/>
  <unicode hex="0022"/>
  <outline>
    <contour>
      <point x="222" y="450" type="curve"/>
      <point x="245" y="737" type="line" smooth="yes"/>
      <point x="246" y="746"/>
      <point x="241" y="750"/>
      <point x="235" y="750" type="curve" smooth="yes"/>
      <point x="205" y="750"/>
      <point x="171" y="750"/>
      <point x="132" y="750" type="curve"/>
      <point x="135" y="714"/>
      <point x="137" y="683"/>
      <point x="140" y="648" type="curve" smooth="yes"/>
      <point x="155" y="461" type="line" smooth="yes"/>
      <point x="156" y="454"/>
      <point x="161" y="450"/>
      <point x="167" y="450" type="curve" smooth="yes"/>
      <point x="186" y="450"/>
      <point x="204" y="450"/>
    </contour>
    <contour>
      <point x="444" y="450" type="curve"/>
      <point x="467" y="737" type="line" smooth="yes"/>
      <point x="468" y="746"/>
      <point x="463" y="750"/>
      <point x="457" y="750" type="curve" smooth="yes"/>
      <point x="426" y="750"/>
      <point x="392" y="750"/>
      <point x="354" y="750" type="curve"/>
      <point x="377" y="461" type="line"/>
      <point x="378" y="454"/>
      <point x="383" y="450"/>
      <point x="389" y="450" type="curve" smooth="yes"/>
      <point x="407" y="450"/>
      <point x="425" y="450"/>
    </contour>
  </outline>
</glyph>
<glyph name="dollar" format="1">
  <advance width="600"/>
  <unicode hex="0024"/>
  <outline>
    <contour>
      <point x="317" y="717" type="curve" smooth="yes"/>
      <point x="182" y="717"/>
      <point x="88" y="647"/>
      <point x="88" y="549" type="curve" smooth="yes"/>
      <point x="88" y="503" type="line" smooth="yes"/>
      <point x="88" y="486"/>
      <point x="113" y="471"/>
      <point x="143" y="471" type="curve"/>
      <point x="143" y="492"/>
      <point x="143" y="521"/>
      <point x="143" y="544" type="curve" smooth="yes"/>
      <point x="143" y="617"/>
      <point x="208" y="662"/>
      <point x="317" y="662" type="curve" smooth="yes"/>
      <point x="394" y="662"/>
      <point x="444" y="643"/>
      <point x="499" y="591" type="curve"/>
      <point x="511" y="591" type="line"/>
      <point x="511" y="602"/>
      <point x="511" y="621"/>
      <point x="511" y="646" type="curve" smooth="yes"/>
      <point x="511" y="650"/>
      <point x="510" y="652"/>
      <point x="508" y="654" type="curve" smooth="yes"/>
      <point x="469" y="694"/>
      <point x="397" y="717"/>
    </contour>
    <contour>
      <point x="369" y="369" type="curve" smooth="yes"/>
      <point x="272" y="397" type="line" smooth="yes"/>
      <point x="171" y="426"/>
      <point x="143" y="452"/>
      <point x="143" y="512" type="curve" smooth="yes"/>
      <point x="143" y="538"/>
      <point x="143" y="557"/>
      <point x="143" y="597" type="curve"/>
      <point x="109" y="586"/>
      <point x="88" y="556"/>
      <point x="88" y="503" type="curve" smooth="yes"/>
      <point x="88" y="431"/>
      <point x="136" y="380"/>
      <point x="260" y="343" type="curve" smooth="yes"/>
      <point x="358" y="314" type="line" smooth="yes"/>
      <point x="447" y="287"/>
      <point x="472" y="260"/>
      <point x="472" y="194" type="curve" smooth="yes"/>
      <point x="472" y="173"/>
      <point x="472" y="143"/>
      <point x="472" y="122" type="curve"/>
      <point x="494" y="122"/>
      <point x="527" y="172"/>
      <point x="527" y="205" type="curve"/>
      <point x="527" y="286"/>
      <point x="484" y="336"/>
    </contour>
    <contour>
      <point x="298" y="-16" type="curve" smooth="yes"/>
      <point x="434" y="-16"/>
      <point x="527" y="53"/>
      <point x="527" y="151" type="curve" smooth="yes"/>
      <point x="527" y="205" type="line" smooth="yes"/>
      <point x="527" y="220"/>
      <point x="502" y="234"/>
      <point x="472" y="234" type="curve"/>
      <point x="472" y="211"/>
      <point x="472" y="182"/>
      <point x="472" y="157" type="curve" smooth="yes"/>
      <point x="472" y="84"/>
      <point x="407" y="39"/>
      <point x="299" y="39" type="curve" smooth="yes"/>
      <point x="210" y="39"/>
      <point x="151" y="59"/>
      <point x="90" y="117" type="curve"/>
      <point x="78" y="117" type="line"/>
      <point x="78" y="106"/>
      <point x="78" y="88"/>
      <point x="78" y="62" type="curve" smooth="yes"/>
      <point x="78" y="58"/>
      <point x="79" y="56"/>
      <point x="81" y="54" type="curve" smooth="yes"/>
      <point x="126" y="9"/>
      <point x="207" y="-16"/>
    </contour>
    <contour>
      <point x="331" y="455" type="line"/>
      <point x="353" y="774" type="line" smooth="yes"/>
      <point x="354" y="783"/>
      <point x="349" y="787"/>
      <point x="343" y="787" type="curve" smooth="yes"/>
      <point x="321" y="787"/>
      <point x="312" y="787"/>
      <point x="291" y="787" type="curve"/>
      <point x="291" y="759"/>
      <point x="291" y="730"/>
      <point x="291" y="702" type="curve"/>
      <point x="291" y="475" type="line" smooth="yes"/>
      <point x="291" y="467"/>
      <point x="295" y="463"/>
      <point x="301" y="462" type="curve" smooth="yes"/>
    </contour>
    <contour>
      <point x="279" y="258" type="line"/>
      <point x="256" y="-73" type="line" smooth="yes"/>
      <point x="255" y="-82"/>
      <point x="260" y="-86"/>
      <point x="266" y="-86" type="curve" smooth="yes"/>
      <point x="288" y="-86"/>
      <point x="298" y="-86"/>
      <point x="319" y="-86" type="curve"/>
      <point x="319" y="-57"/>
      <point x="319" y="-28"/>
      <point x="319" y="1" type="curve"/>
      <point x="319" y="233" type="line" smooth="yes"/>
      <point x="319" y="242"/>
      <point x="316" y="248"/>
      <point x="308" y="250" type="curve" smooth="yes"/>
    </contour>
  </outline>
</glyph>
<glyph name="quotesingle" format="1">
  <advance width="250"/>
  <unicode hex="0027"/>
  <outline>
    <contour>
      <point x="158" y="450" type="curve"/>
      <point x="181" y="737" type="line" smooth="yes"/>
      <point x="182" y="746"/>
      <point x="177" y="750"/>
      <point x="171" y="750" type="curve" smooth="yes"/>
      <point x="141" y="750"/>
      <point x="107" y="750"/>
      <point x="69" y="750" type="curve"/>
      <point x="72" y="714"/>
      <point x="74" y="683"/>
      <point x="77" y="648" type="curve" smooth="yes"/>
      <point x="92" y="461" type="line" smooth="yes"/>
      <point x="93" y="454"/>
      <point x="98" y="450"/>
      <point x="104" y="450" type="curve" smooth="yes"/>
      <point x="122" y="450"/>
      <point x="140" y="450"/>
    </contour>
  </outline>
</glyph>
<glyph name="parenleft" format="1">
  <advance width="400"/>
  <unicode hex="0028"/>
  <outline>
    <contour>
      <point x="314" y="751" type="curve" smooth="yes"/>
      <point x="194" y="631"/>
      <point x="137" y="474"/>
      <point x="137" y="304" type="curve" smooth="yes"/>
      <point x="137" y="297" type="line" smooth="yes"/>
      <point x="137" y="127"/>
      <point x="194" y="-30"/>
      <point x="314" y="-150" type="curve" smooth="yes"/>
      <point x="318" y="-156"/>
      <point x="326" y="-158"/>
      <point x="334" y="-158" type="curve" smooth="yes"/>
      <point x="350" y="-158"/>
      <point x="365" y="-158"/>
      <point x="381" y="-158" type="curve"/>
      <point x="381" y="-146" type="line"/>
      <point x="256" y="-28"/>
      <point x="193" y="128"/>
      <point x="193" y="297" type="curve" smooth="yes"/>
      <point x="193" y="304" type="line" smooth="yes"/>
      <point x="193" y="473"/>
      <point x="256" y="629"/>
      <point x="381" y="747" type="curve"/>
      <point x="381" y="759" type="line"/>
      <point x="365" y="759"/>
      <point x="350" y="759"/>
      <point x="334" y="759" type="curve" smooth="yes"/>
      <point x="326" y="759"/>
      <point x="318" y="757"/>
    </contour>
  </outline>
</glyph>
<glyph name="parenright" format="1">
  <advance width="400"/>
  <unicode hex="0029"/>
  <outline>
    <contour>
      <point x="86" y="-150" type="curve" smooth="yes"/>
      <point x="206" y="-30"/>
      <point x="263" y="127"/>
      <point x="263" y="297" type="curve" smooth="yes"/>
      <point x="263" y="304" type="line" smooth="yes"/>
      <point x="263" y="474"/>
      <point x="206" y="631"/>
      <point x="86" y="751" type="curve" smooth="yes"/>
      <point x="82" y="757"/>
      <point x="74" y="759"/>
      <point x="66" y="759" type="curve" smooth="yes"/>
      <point x="50" y="759"/>
      <point x="35" y="759"/>
      <point x="19" y="759" type="curve"/>
      <point x="19" y="747" type="line"/>
      <point x="144" y="629"/>
      <point x="207" y="473"/>
      <point x="207" y="304" type="curve" smooth="yes"/>
      <point x="207" y="297" type="line" smooth="yes"/>
      <point x="207" y="128"/>
      <point x="144" y="-28"/>
      <point x="19" y="-146" type="curve"/>
      <point x="19" y="-158" type="line"/>
      <point x="35" y="-158"/>
      <point x="50" y="-158"/>
      <point x="66" y="-158" type="curve" smooth="yes"/>
      <point x="74" y="-158"/>
      <point x="82" y="-156"/>
    </contour>
  </outline>
</glyph>
<glyph name="asterisk" format="1">
  <advance width="500"/>
  <unicode hex="002A"/>
  <outline>
    <contour>
      <point x="220" y="768" type="curve"/>
      <point x="221" y="747"/>
      <point x="223" y="726"/>
      <point x="225" y="704" type="curve" smooth="yes"/>
      <point x="237" y="561" type="line"/>
      <point x="221" y="362" type="line" smooth="yes"/>
      <point x="221" y="357"/>
      <point x="223" y="354"/>
      <point x="228" y="354" type="curve"/>
      <point x="246" y="354"/>
      <point x="263" y="354"/>
      <point x="280" y="354" type="curve"/>
      <point x="279" y="375"/>
      <point x="277" y="395"/>
      <point x="275" y="417" type="curve" smooth="yes"/>
      <point x="263" y="561" type="line"/>
      <point x="279" y="760" type="line" smooth="yes"/>
      <point x="280" y="765"/>
      <point x="278" y="768"/>
      <point x="272" y="768" type="curve" smooth="yes"/>
      <point x="255" y="768"/>
      <point x="238" y="768"/>
    </contour>
    <contour>
      <point x="413" y="690" type="curve"/>
      <point x="243" y="571" type="line"/>
      <point x="62" y="487" type="line" smooth="yes"/>
      <point x="58" y="484"/>
      <point x="56" y="480"/>
      <point x="59" y="475" type="curve"/>
      <point x="69" y="460"/>
      <point x="77" y="446"/>
      <point x="87" y="430" type="curve"/>
      <point x="257" y="549" type="line"/>
      <point x="438" y="634" type="line" smooth="yes"/>
      <point x="442" y="637"/>
      <point x="443" y="641"/>
      <point x="440" y="645" type="curve" smooth="yes"/>
      <point x="431" y="660"/>
      <point x="422" y="675"/>
    </contour>
    <contour>
      <point x="445" y="483" type="curve"/>
      <point x="257" y="572" type="line"/>
      <point x="93" y="686" type="line" smooth="yes"/>
      <point x="89" y="688"/>
      <point x="85" y="687"/>
      <point x="82" y="683" type="curve"/>
      <point x="73" y="668"/>
      <point x="64" y="653"/>
      <point x="55" y="637" type="curve"/>
      <point x="244" y="549" type="line"/>
      <point x="408" y="435" type="line" smooth="yes"/>
      <point x="412" y="433"/>
      <point x="416" y="433"/>
      <point x="418" y="438" type="curve"/>
      <point x="427" y="454"/>
      <point x="436" y="469"/>
    </contour>
  </outline>
</glyph>
<glyph name="plus" format="1">
  <advance width="600"/>
  <unicode hex="002B"/>
  <outline>
    <contour>
      <point x="75" y="328" type="line"/>
      <point x="75" y="313"/>
      <point x="75" y="298"/>
      <point x="75" y="283" type="curve" smooth="yes"/>
      <point x="75" y="280"/>
      <point x="76" y="277"/>
      <point x="78" y="275" type="curve" smooth="yes"/>
      <point x="80" y="273"/>
      <point x="83" y="272"/>
      <point x="86" y="272" type="curve"/>
      <point x="525" y="272" type="line"/>
      <point x="525" y="287"/>
      <point x="525" y="302"/>
      <point x="525" y="317" type="curve" smooth="yes"/>
      <point x="525" y="323"/>
      <point x="520" y="328"/>
      <point x="514" y="328" type="curve"/>
    </contour>
    <contour>
      <point x="328" y="74" type="curve"/>
      <point x="328" y="516" type="line" smooth="yes"/>
      <point x="328" y="519"/>
      <point x="327" y="522"/>
      <point x="325" y="524" type="curve" smooth="yes"/>
      <point x="323" y="526"/>
      <point x="320" y="527"/>
      <point x="317" y="527" type="curve" smooth="yes"/>
      <point x="302" y="527"/>
      <point x="288" y="527"/>
      <point x="272" y="527" type="curve"/>
      <point x="272" y="510"/>
      <point x="272" y="474"/>
      <point x="272" y="427" type="curve" smooth="yes"/>
      <point x="272" y="85" type="line" smooth="yes"/>
      <point x="272" y="79"/>
      <point x="277" y="74"/>
      <point x="283" y="74" type="curve" smooth="yes"/>
      <point x="298" y="74"/>
      <point x="313" y="74"/>
    </contour>
  </outline>
</glyph>
<glyph name="comma" format="1">
  <advance width="350"/>
  <unicode hex="002C"/>
  <outline>
    <contour>
      <point x="133" y="-190" type="curve" smooth="yes"/>
      <point x="138" y="-190"/>
      <point x="141" y="-189"/>
      <point x="143" y="-183" type="curve"/>
      <point x="184" y="-89"/>
      <point x="225" y="7"/>
      <point x="265" y="99" type="curve"/>
      <point x="268" y="107"/>
      <point x="265" y="112"/>
      <point x="257" y="112" type="curve" smooth="yes"/>
      <point x="220" y="112"/>
      <point x="199" y="112"/>
      <point x="156" y="112" type="curve"/>
      <point x="132" y="12"/>
      <point x="108" y="-89"/>
      <point x="84" y="-190" type="curve"/>
      <point x="97" y="-190"/>
      <point x="111" y="-190"/>
    </contour>
  </outline>
</glyph>
<glyph name="hyphen" format="1">
  <advance width="600"/>
  <unicode hex="002D"/>
  <outline>
    <contour>
      <point x="125" y="328" type="line"/>
      <point x="125" y="313"/>
      <point x="125" y="298"/>
      <point x="125" y="283" type="curve" smooth="yes"/>
      <point x="125" y="280"/>
      <point x="126" y="277"/>
      <point x="128" y="275" type="curve" smooth="yes"/>
      <point x="130" y="273"/>
      <point x="133" y="272"/>
      <point x="136" y="272" type="curve"/>
      <point x="475" y="272" type="line"/>
      <point x="475" y="287"/>
      <point x="475" y="302"/>
      <point x="475" y="317" type="curve" smooth="yes"/>
      <point x="475" y="323"/>
      <point x="470" y="328"/>
      <point x="464" y="328" type="curve"/>
    </contour>
  </outline>
</glyph>
<glyph name="period" format="1">
  <advance width="300"/>
  <unicode hex="002E"/>
  <outline>
    <contour>
      <point x="214" y="-5" type="curve"/>
      <point x="214" y="108" type="line" smooth="yes"/>
      <point x="214" y="114"/>
      <point x="209" y="119"/>
      <point x="203" y="119" type="curve" smooth="yes"/>
      <point x="171" y="119"/>
      <point x="118" y="119"/>
      <point x="86" y="119" type="curve"/>
      <point x="86" y="6" type="line" smooth="yes"/>
      <point x="86" y="0"/>
      <point x="91" y="-5"/>
      <point x="97" y="-5" type="curve" smooth="yes"/>
      <point x="129" y="-5"/>
      <point x="182" y="-5"/>
    </contour>
  </outline>
</glyph>
<glyph name="zero" format="1">
  <advance width="600"/>
  <unicode hex="0030"/>
  <outline>
    <contour>
      <point x="300" y="720" type="curve" smooth="yes"/>
      <point x="163" y="720"/>
      <point x="74" y="617"/>
      <point x="74" y="445" type="curve" smooth="yes"/>
      <point x="74" y="255" type="line" smooth="yes"/>
      <point x="74" y="91"/>
      <point x="157" y="-20"/>
      <point x="300" y="-20" type="curve"/>
      <point x="309" y="-20"/>
      <point x="314" y="-12"/>
      <point x="300" y="32" type="curve"/>
      <point x="198" y="32"/>
      <point x="129" y="105"/>
      <point x="129" y="255" type="curve" smooth="yes"/>
      <point x="129" y="445" type="line" smooth="yes"/>
      <point x="129" y="597"/>
      <point x="197" y="668"/>
      <point x="300" y="668" type="curve" smooth="yes"/>
      <point x="337" y="668"/>
      <point x="365" y="668"/>
      <point x="394" y="668" type="curve"/>
      <point x="394" y="694"/>
      <point x="366" y="720"/>
    </contour>
    <contour>
      <point x="300" y="-20" type="curve" smooth="yes"/>
      <point x="437" y="-20"/>
      <point x="526" y="83"/>
      <point x="526" y="255" type="curve" smooth="yes"/>
      <point x="526" y="445" type="line" smooth="yes"/>
      <point x="526" y="609"/>
      <point x="443" y="720"/>
      <point x="300" y="720" type="curve"/>
      <point x="291" y="720"/>
      <point x="286" y="712"/>
      <point x="300" y="668" type="curve"/>
      <point x="402" y="668"/>
      <point x="471" y="597"/>
      <point x="471" y="445" type="curve" smooth="yes"/>
      <point x="471" y="255" type="line" smooth="yes"/>
      <point x="471" y="106"/>
      <point x="403" y="32"/>
      <point x="299" y="32" type="curve" smooth="yes"/>
      <point x="262" y="32"/>
      <point x="235" y="32"/>
      <point x="206" y="32" type="curve"/>
      <point x="206" y="6"/>
      <point x="234" y="-20"/>
    </contour>
  </outline>
</glyph>
<glyph name="one" format="1">
  <advance width="600"/>
  <unicode hex="0031"/>
  <outline>
    <contour>
      <point x="363" y="12" type="curve"/>
      <point x="363" y="242"/>
      <point x="363" y="471"/>
      <point x="363" y="699" type="curve" smooth="yes"/>
      <point x="363" y="706"/>
      <point x="359" y="710"/>
      <point x="352" y="710" type="curve" smooth="yes"/>
      <point x="307" y="710" type="line"/>
      <point x="307" y="488"/>
      <point x="307" y="260"/>
      <point x="307" y="36" type="curve" smooth="yes"/>
      <point x="307" y="17"/>
      <point x="328" y="12"/>
    </contour>
    <contour>
      <point x="89" y="52" type="line"/>
      <point x="89" y="38"/>
      <point x="89" y="25"/>
      <point x="89" y="11" type="curve" smooth="yes"/>
      <point x="89" y="8"/>
      <point x="90" y="5"/>
      <point x="92" y="3" type="curve" smooth="yes"/>
      <point x="94" y="1"/>
      <point x="97" y="0"/>
      <point x="100" y="0" type="curve" smooth="yes"/>
      <point x="541" y="0" type="line"/>
      <point x="541" y="13"/>
      <point x="541" y="27"/>
      <point x="541" y="41" type="curve" smooth="yes"/>
      <point x="541" y="47"/>
      <point x="536" y="52"/>
      <point x="530" y="52" type="curve" smooth="yes"/>
    </contour>
    <contour>
      <point x="104" y="474" type="curve" smooth="yes"/>
      <point x="117" y="474"/>
      <point x="123" y="476"/>
      <point x="319" y="661" type="curve" smooth="yes"/>
      <point x="329" y="670"/>
      <point x="336" y="678"/>
      <point x="336" y="686" type="curve" smooth="yes"/>
      <point x="336" y="700"/>
      <point x="330" y="710"/>
      <point x="311" y="710" type="curve"/>
      <point x="295" y="710" type="line"/>
      <point x="262" y="680"/>
      <point x="230" y="649"/>
      <point x="198" y="619" type="curve"/>
      <point x="164" y="588"/>
      <point x="132" y="558"/>
      <point x="98" y="527" type="curve"/>
      <point x="98" y="483" type="line" smooth="yes"/>
      <point x="98" y="476"/>
      <point x="100" y="474"/>
    </contour>
  </outline>
</glyph>
<glyph name="two" format="1">
  <advance width="600"/>
  <unicode hex="0032"/>
  <outline>
    <contour>
      <point x="461" y="620" type="curve"/>
      <point x="461" y="581"/>
      <point x="461" y="572"/>
      <point x="461" y="534" type="curve" smooth="yes"/>
      <point x="461" y="473"/>
      <point x="433" y="441"/>
      <point x="294" y="347" type="curve" smooth="yes"/>
      <point x="138" y="242"/>
      <point x="69" y="177"/>
      <point x="69" y="44" type="curve" smooth="yes"/>
      <point x="69" y="34"/>
      <point x="77" y="31"/>
      <point x="126" y="31" type="curve"/>
      <point x="126" y="146"/>
      <point x="153" y="182"/>
      <point x="328" y="304" type="curve" smooth="yes"/>
      <point x="455" y="392"/>
      <point x="516" y="442"/>
      <point x="516" y="528" type="curve" smooth="yes"/>
      <point x="516" y="560" type="line" smooth="yes"/>
      <point x="516" y="588"/>
      <point x="502" y="620"/>
    </contour>
    <contour>
      <point x="531" y="0" type="line"/>
      <point x="531" y="13"/>
      <point x="531" y="27"/>
      <point x="531" y="41" type="curve" smooth="yes"/>
      <point x="531" y="47"/>
      <point x="526" y="52"/>
      <point x="520" y="52" type="curve" smooth="yes"/>
      <point x="114" y="52" type="line" smooth="yes"/>
      <point x="99" y="52"/>
      <point x="85" y="52"/>
      <point x="69" y="44" type="curve"/>
      <point x="69" y="34"/>
      <point x="69" y="26"/>
      <point x="69" y="11" type="curve" smooth="yes"/>
      <point x="69" y="5"/>
      <point x="74" y="0"/>
      <point x="80" y="0" type="curve" smooth="yes"/>
    </contour>
    <contour>
      <point x="300" y="720" type="curve" smooth="yes"/>
      <point x="203" y="720"/>
      <point x="128" y="684"/>
      <point x="90" y="647" type="curve" smooth="yes"/>
      <point x="88" y="644"/>
      <point x="87" y="642"/>
      <point x="87" y="638" type="curve" smooth="yes"/>
      <point x="87" y="614"/>
      <point x="87" y="597"/>
      <point x="87" y="587" type="curve"/>
      <point x="98" y="587" type="line"/>
      <point x="160" y="645"/>
      <point x="215" y="667"/>
      <point x="300" y="667" type="curve" smooth="yes"/>
      <point x="403" y="667"/>
      <point x="461" y="637"/>
      <point x="461" y="555" type="curve" smooth="yes"/>
      <point x="461" y="526"/>
      <point x="461" y="508"/>
      <point x="461" y="480" type="curve"/>
      <point x="496" y="481"/>
      <point x="516" y="512"/>
      <point x="516" y="560" type="curve" smooth="yes"/>
      <point x="516" y="658"/>
      <point x="433" y="720"/>
    </contour>
  </outline>
</glyph>
<glyph name="three" format="1">
  <advance width="600"/>
  <unicode hex="0033"/>
  <outline>
    <contour>
      <point x="289" y="667" type="curve" smooth="yes"/>
      <point x="400" y="667"/>
      <point x="461" y="613"/>
      <point x="461" y="540" type="curve" smooth="yes"/>
      <point x="461" y="517"/>
      <point x="461" y="492"/>
      <point x="461" y="470" type="curve"/>
      <point x="492" y="470"/>
      <point x="515" y="498"/>
      <point x="515" y="533" type="curve" smooth="yes"/>
      <point x="515" y="556" type="line" smooth="yes"/>
      <point x="515" y="638"/>
      <point x="438" y="720"/>
      <point x="290" y="720" type="curve" smooth="yes"/>
      <point x="197" y="720"/>
      <point x="124" y="691"/>
      <point x="89" y="657" type="curve" smooth="yes"/>
      <point x="87" y="655"/>
      <point x="86" y="653"/>
      <point x="86" y="649" type="curve" smooth="yes"/>
      <point x="86" y="626"/>
      <point x="86" y="609"/>
      <point x="86" y="600" type="curve"/>
      <point x="98" y="600" type="line"/>
      <point x="157" y="648"/>
      <point x="206" y="667"/>
    </contour>
    <contour>
      <point x="183" y="340" type="curve" smooth="yes"/>
      <point x="394" y="340"/>
      <point x="515" y="417"/>
      <point x="515" y="533" type="curve" smooth="yes"/>
      <point x="515" y="565"/>
      <point x="490" y="592"/>
      <point x="457" y="592" type="curve"/>
      <point x="457" y="567"/>
      <point x="457" y="547"/>
      <point x="457" y="528" type="curve" smooth="yes"/>
      <point x="457" y="444"/>
      <point x="368" y="382"/>
      <point x="172" y="382" type="curve"/>
      <point x="172" y="372"/>
      <point x="172" y="361"/>
      <point x="172" y="351" type="curve" smooth="yes"/>
      <point x="172" y="345"/>
      <point x="176" y="340"/>
    </contour>
    <contour>
      <point x="183" y="330" type="curve" smooth="yes"/>
      <point x="355" y="330"/>
      <point x="466" y="284"/>
      <point x="466" y="175" type="curve" smooth="yes"/>
      <point x="466" y="154"/>
      <point x="466" y="134"/>
      <point x="466" y="110" type="curve"/>
      <point x="494" y="110"/>
      <point x="525" y="144"/>
      <point x="525" y="179" type="curve" smooth="yes"/>
      <point x="525" y="293"/>
      <point x="417" y="372"/>
      <point x="172" y="372" type="curve"/>
      <point x="172" y="362"/>
      <point x="172" y="352"/>
      <point x="172" y="341" type="curve" smooth="yes"/>
      <point x="172" y="334"/>
      <point x="176" y="330"/>
    </contour>
    <contour>
      <point x="280" y="33" type="curve" smooth="yes"/>
      <point x="196" y="33"/>
      <point x="147" y="52"/>
      <point x="87" y="103" type="curve"/>
      <point x="76" y="103" type="line"/>
      <point x="76" y="92"/>
      <point x="76" y="75"/>
      <point x="76" y="51" type="curve" smooth="yes"/>
      <point x="76" y="47"/>
      <point x="77" y="45"/>
      <point x="79" y="43" type="curve" smooth="yes"/>
      <point x="113" y="8"/>
      <point x="187" y="-20"/>
      <point x="280" y="-20" type="curve" smooth="yes"/>
      <point x="441" y="-20"/>
      <point x="525" y="67"/>
      <point x="525" y="155" type="curve" smooth="yes"/>
      <point x="525" y="179" type="line" smooth="yes"/>
      <point x="525" y="208"/>
      <point x="495" y="242"/>
      <point x="470" y="242" type="curve"/>
      <point x="470" y="213"/>
      <point x="470" y="191"/>
      <point x="470" y="172" type="curve" smooth="yes"/>
      <point x="470" y="93"/>
      <point x="403" y="33"/>
    </contour>
  </outline>
</glyph>
<glyph name="four" format="1">
  <advance width="600"/>
  <unicode hex="0034"/>
  <outline>
    <contour>
      <point x="102" y="182" type="curve"/>
      <point x="217" y="352"/>
      <point x="332" y="523"/>
      <point x="447" y="692" type="curve"/>
      <point x="447" y="700" type="line"/>
      <point x="425" y="700"/>
      <point x="407" y="700"/>
      <point x="395" y="700" type="curve" smooth="yes"/>
      <point x="390" y="700"/>
      <point x="381" y="700"/>
      <point x="376" y="692" type="curve" smooth="yes"/>
      <point x="211" y="443"/>
      <point x="54" y="206"/>
      <point x="54" y="204" type="curve" smooth="yes"/>
      <point x="54" y="188"/>
      <point x="84" y="182"/>
    </contour>
    <contour>
      <point x="560" y="154" type="line"/>
      <point x="560" y="167"/>
      <point x="560" y="181"/>
      <point x="560" y="194" type="curve" smooth="yes"/>
      <point x="560" y="200"/>
      <point x="555" y="205"/>
      <point x="549" y="205" type="curve" smooth="yes"/>
      <point x="400" y="205" type="line"/>
      <point x="290" y="205"/>
      <point x="171" y="205"/>
      <point x="54" y="204" type="curve"/>
      <point x="54" y="165" type="line" smooth="yes"/>
      <point x="54" y="162"/>
      <point x="55" y="159"/>
      <point x="57" y="157" type="curve" smooth="yes"/>
      <point x="59" y="155"/>
      <point x="62" y="154"/>
      <point x="65" y="154" type="curve" smooth="yes"/>
    </contour>
    <contour>
      <point x="472" y="0" type="curve"/>
      <point x="472" y="33"/>
      <point x="472" y="67"/>
      <point x="472" y="100" type="curve" smooth="yes"/>
      <point x="472" y="361" type="line" smooth="yes"/>
      <point x="472" y="368"/>
      <point x="468" y="372"/>
      <point x="461" y="372" type="curve" smooth="yes"/>
      <point x="418" y="372" type="line"/>
      <point x="417" y="315"/>
      <point x="417" y="260"/>
      <point x="416" y="204" type="curve"/>
      <point x="416" y="11" type="line" smooth="yes"/>
      <point x="416" y="5"/>
      <point x="421" y="0"/>
      <point x="427" y="0" type="curve" smooth="yes"/>
      <point x="442" y="0"/>
      <point x="457" y="0"/>
    </contour>
  </outline>
</glyph>
<glyph name="five" format="1">
  <advance width="600"/>
  <unicode hex="0035"/>
  <outline>
    <contour>
      <point x="162" y="700" type="line"/>
      <point x="162" y="686"/>
      <point x="162" y="673"/>
      <point x="162" y="660" type="curve" smooth="yes"/>
      <point x="162" y="657"/>
      <point x="163" y="654"/>
      <point x="165" y="652" type="curve" smooth="yes"/>
      <point x="167" y="650"/>
      <point x="170" y="649"/>
      <point x="173" y="649" type="curve" smooth="yes"/>
      <point x="501" y="649" type="line"/>
      <point x="501" y="661"/>
      <point x="501" y="675"/>
      <point x="501" y="689" type="curve" smooth="yes"/>
      <point x="501" y="695"/>
      <point x="496" y="700"/>
      <point x="490" y="700" type="curve" smooth="yes"/>
    </contour>
    <contour>
      <point x="138" y="339" type="line"/>
      <point x="196" y="677" type="line" smooth="yes"/>
      <point x="199" y="692"/>
      <point x="191" y="700"/>
      <point x="176" y="700" type="curve" smooth="yes"/>
      <point x="145" y="700" type="line"/>
      <point x="85" y="354" type="line" smooth="yes"/>
      <point x="83" y="344"/>
      <point x="89" y="339"/>
      <point x="95" y="339" type="curve" smooth="yes"/>
    </contour>
    <contour>
      <point x="111" y="380" type="curve"/>
      <point x="109" y="357"/>
      <point x="120" y="339"/>
      <point x="138" y="339" type="curve"/>
      <point x="182" y="359"/>
      <point x="230" y="370"/>
      <point x="286" y="370" type="curve" smooth="yes"/>
      <point x="424" y="370"/>
      <point x="470" y="322"/>
      <point x="470" y="226" type="curve" smooth="yes"/>
      <point x="470" y="212"/>
      <point x="470" y="188"/>
      <point x="470" y="174" type="curve"/>
      <point x="494" y="174"/>
      <point x="525" y="214"/>
      <point x="525" y="241" type="curve" smooth="yes"/>
      <point x="525" y="353"/>
      <point x="442" y="421"/>
      <point x="297" y="421" type="curve" smooth="yes"/>
      <point x="222" y="421"/>
      <point x="180" y="410"/>
    </contour>
    <contour>
      <point x="289" y="-20" type="curve" smooth="yes"/>
      <point x="437" y="-20"/>
      <point x="525" y="68"/>
      <point x="525" y="183" type="curve" smooth="yes"/>
      <point x="525" y="241" type="line" smooth="yes"/>
      <point x="525" y="270"/>
      <point x="500" y="310"/>
      <point x="470" y="309" type="curve"/>
      <point x="470" y="286"/>
      <point x="470" y="262"/>
      <point x="470" y="228" type="curve" smooth="yes"/>
      <point x="470" y="192" type="line" smooth="yes"/>
      <point x="470" y="93"/>
      <point x="405" y="33"/>
      <point x="289" y="33" type="curve" smooth="yes"/>
      <point x="201" y="33"/>
      <point x="149" y="51"/>
      <point x="88" y="103" type="curve"/>
      <point x="77" y="103" type="line"/>
      <point x="77" y="92"/>
      <point x="77" y="75"/>
      <point x="77" y="51" type="curve" smooth="yes"/>
      <point x="77" y="47"/>
      <point x="78" y="45"/>
      <point x="80" y="43" type="curve" smooth="yes"/>
      <point x="118" y="5"/>
      <point x="199" y="-20"/>
    </contour>
  </outline>
</glyph>
<glyph name="six" format="1">
  <advance width="600"/>
  <unicode hex="0036"/>
  <outline>
    <contour>
      <point x="226" y="29" type="curve"/>
      <point x="226" y="0"/>
      <point x="239" y="-20"/>
      <point x="307" y="-20" type="curve"/>
      <point x="440" y="-20"/>
      <point x="529" y="63"/>
      <point x="529" y="182" type="curve" smooth="yes"/>
      <point x="529" y="244" type="line" smooth="yes"/>
      <point x="529" y="282"/>
      <point x="505" y="309"/>
      <point x="474" y="309" type="curve"/>
      <point x="474" y="290"/>
      <point x="474" y="268"/>
      <point x="474" y="241" type="curve" smooth="yes"/>
      <point x="474" y="183" type="line" smooth="yes"/>
      <point x="474" y="88"/>
      <point x="409" y="29"/>
      <point x="300" y="29" type="curve" smooth="yes"/>
      <point x="258" y="29"/>
      <point x="248" y="29"/>
    </contour>
    <contour>
      <point x="247" y="667" type="curve"/>
      <point x="272" y="667"/>
      <point x="295" y="667"/>
      <point x="331" y="667" type="curve" smooth="yes"/>
      <point x="400" y="667"/>
      <point x="440" y="653"/>
      <point x="491" y="611" type="curve"/>
      <point x="503" y="611" type="line"/>
      <point x="503" y="621"/>
      <point x="503" y="636"/>
      <point x="503" y="660" type="curve" smooth="yes"/>
      <point x="503" y="664"/>
      <point x="502" y="666"/>
      <point x="500" y="668" type="curve" smooth="yes"/>
      <point x="471" y="697"/>
      <point x="410" y="720"/>
      <point x="332" y="720" type="curve" smooth="yes"/>
      <point x="273" y="720"/>
      <point x="247" y="696"/>
    </contour>
    <contour>
      <point x="74" y="425" type="curve" smooth="yes"/>
      <point x="74" y="276" type="line" smooth="yes"/>
      <point x="74" y="70"/>
      <point x="142" y="-20"/>
      <point x="307" y="-20" type="curve" smooth="yes"/>
      <point x="316" y="-20"/>
      <point x="318" y="-3"/>
      <point x="300" y="29" type="curve"/>
      <point x="180" y="29"/>
      <point x="129" y="98"/>
      <point x="129" y="277" type="curve" smooth="yes"/>
      <point x="129" y="426" type="line" smooth="yes"/>
      <point x="129" y="586"/>
      <point x="198" y="667"/>
      <point x="331" y="667" type="curve"/>
      <point x="346" y="709"/>
      <point x="346" y="720"/>
      <point x="332" y="720" type="curve" smooth="yes"/>
      <point x="172" y="720"/>
      <point x="74" y="615"/>
    </contour>
    <contour>
      <point x="312" y="422" type="curve" smooth="yes"/>
      <point x="234" y="422"/>
      <point x="163" y="393"/>
      <point x="129" y="359" type="curve" smooth="yes"/>
      <point x="123" y="352"/>
      <point x="118" y="332"/>
      <point x="118" y="297" type="curve"/>
      <point x="177" y="348"/>
      <point x="235" y="370"/>
      <point x="306" y="370" type="curve" smooth="yes"/>
      <point x="419" y="370"/>
      <point x="474" y="325"/>
      <point x="474" y="241" type="curve" smooth="yes"/>
      <point x="474" y="234"/>
      <point x="474" y="219"/>
      <point x="474" y="213" type="curve"/>
      <point x="517" y="217"/>
      <point x="529" y="228"/>
      <point x="529" y="244" type="curve" smooth="yes"/>
      <point x="529" y="359"/>
      <point x="447" y="422"/>
    </contour>
  </outline>
</glyph>
<glyph name="seven" format="1">
  <advance width="600"/>
  <unicode hex="0037"/>
  <outline>
    <contour>
      <point x="490" y="648" type="line" smooth="yes"/>
      <point x="507" y="648"/>
      <point x="523" y="648"/>
      <point x="541" y="649" type="curve"/>
      <point x="541" y="689" type="line"/>
      <point x="541" y="695"/>
      <point x="536" y="700"/>
      <point x="530" y="700" type="curve"/>
      <point x="78" y="700" type="line"/>
      <point x="78" y="670" type="line" smooth="yes"/>
      <point x="78" y="654"/>
      <point x="89" y="648"/>
      <point x="100" y="648" type="curve" smooth="yes"/>
    </contour>
    <contour>
      <point x="281" y="0" type="line"/>
      <point x="444" y="400"/>
      <point x="541" y="639"/>
      <point x="541" y="649" type="curve" smooth="yes"/>
      <point x="541" y="668"/>
      <point x="525" y="670"/>
      <point x="490" y="670" type="curve"/>
      <point x="342" y="305"/>
      <point x="227" y="16"/>
      <point x="227" y="11" type="curve" smooth="yes"/>
      <point x="227" y="4"/>
      <point x="231" y="0"/>
      <point x="238" y="0" type="curve" smooth="yes"/>
    </contour>
    <contour>
      <point x="134" y="498" type="curve"/>
      <point x="134" y="556"/>
      <point x="134" y="619"/>
      <point x="134" y="678" type="curve"/>
      <point x="134" y="694"/>
      <point x="120" y="700"/>
      <point x="89" y="700" type="curve" smooth="yes"/>
      <point x="78" y="700" type="line"/>
      <point x="78" y="638"/>
      <point x="78" y="571"/>
      <point x="78" y="509" type="curve"/>
      <point x="78" y="503"/>
      <point x="83" y="498"/>
      <point x="89" y="498" type="curve" smooth="yes"/>
      <point x="104" y="498"/>
      <point x="119" y="498"/>
    </contour>
  </outline>
</glyph>
<glyph name="eight" format="1">
  <advance width="600"/>
  <unicode hex="0038"/>
  <outline>
    <contour>
      <point x="359" y="349" type="curve" smooth="yes"/>
      <point x="272" y="381" type="line" smooth="yes"/>
      <point x="173" y="416"/>
      <point x="133" y="457"/>
      <point x="133" y="521" type="curve" smooth="yes"/>
      <point x="133" y="540"/>
      <point x="133" y="553"/>
      <point x="133" y="577" type="curve"/>
      <point x="106" y="577"/>
      <point x="78" y="547"/>
      <point x="78" y="515" type="curve" smooth="yes"/>
      <point x="78" y="435"/>
      <point x="135" y="377"/>
      <point x="258" y="331" type="curve" smooth="yes"/>
      <point x="346" y="298" type="line" smooth="yes"/>
      <point x="442" y="262"/>
      <point x="481" y="225"/>
      <point x="481" y="168" type="curve" smooth="yes"/>
      <point x="481" y="131"/>
      <point x="480" y="114"/>
      <point x="479" y="106" type="curve"/>
      <point x="503" y="113"/>
      <point x="536" y="153"/>
      <point x="536" y="177" type="curve"/>
      <point x="536" y="249"/>
      <point x="477" y="305"/>
    </contour>
    <contour>
      <point x="300" y="-20" type="curve" smooth="yes"/>
      <point x="443" y="-20"/>
      <point x="536" y="49"/>
      <point x="536" y="151" type="curve" smooth="yes"/>
      <point x="536" y="177" type="line" smooth="yes"/>
      <point x="536" y="200"/>
      <point x="513" y="218"/>
      <point x="481" y="221" type="curve"/>
      <point x="481" y="211"/>
      <point x="481" y="192"/>
      <point x="481" y="157" type="curve" smooth="yes"/>
      <point x="481" y="77"/>
      <point x="415" y="31"/>
      <point x="300" y="31" type="curve" smooth="yes"/>
      <point x="259" y="31"/>
      <point x="233" y="31"/>
      <point x="215" y="31" type="curve"/>
      <point x="215" y="6"/>
      <point x="256" y="-20"/>
    </contour>
    <contour>
      <point x="303" y="720" type="curve" smooth="yes"/>
      <point x="171" y="720"/>
      <point x="78" y="645"/>
      <point x="78" y="540" type="curve" smooth="yes"/>
      <point x="78" y="515" type="line" smooth="yes"/>
      <point x="78" y="481"/>
      <point x="97" y="460"/>
      <point x="133" y="460" type="curve"/>
      <point x="133" y="486"/>
      <point x="133" y="505"/>
      <point x="133" y="533" type="curve" smooth="yes"/>
      <point x="133" y="609"/>
      <point x="204" y="669"/>
      <point x="297" y="669" type="curve" smooth="yes"/>
      <point x="334" y="669"/>
      <point x="369" y="669"/>
      <point x="390" y="669" type="curve"/>
      <point x="390" y="698"/>
      <point x="352" y="720"/>
    </contour>
    <contour>
      <point x="332" y="339" type="curve" smooth="yes"/>
      <point x="423" y="339"/>
      <point x="525" y="433"/>
      <point x="525" y="520" type="curve" smooth="yes"/>
      <point x="525" y="545" type="line" smooth="yes"/>
      <point x="525" y="649"/>
      <point x="436" y="720"/>
      <point x="303" y="720" type="curve" smooth="yes"/>
      <point x="286" y="720"/>
      <point x="284" y="709"/>
      <point x="297" y="669" type="curve"/>
      <point x="413" y="669"/>
      <point x="469" y="625"/>
      <point x="469" y="538" type="curve" smooth="yes"/>
      <point x="469" y="526" type="line" smooth="yes"/>
      <point x="469" y="457"/>
      <point x="405" y="395"/>
      <point x="289" y="356" type="curve"/>
      <point x="294" y="345"/>
      <point x="311" y="339"/>
    </contour>
    <contour>
      <point x="300" y="31" type="curve"/>
      <point x="190" y="31"/>
      <point x="119" y="81"/>
      <point x="119" y="158" type="curve" smooth="yes"/>
      <point x="119" y="170" type="line" smooth="yes"/>
      <point x="119" y="245"/>
      <point x="190" y="308"/>
      <point x="301" y="327" type="curve"/>
      <point x="295" y="340"/>
      <point x="279" y="352"/>
      <point x="265" y="352" type="curve" smooth="yes"/>
      <point x="159" y="352"/>
      <point x="64" y="270"/>
      <point x="64" y="175" type="curve" smooth="yes"/>
      <point x="64" y="150" type="line" smooth="yes"/>
      <point x="64" y="50"/>
      <point x="162" y="-20"/>
      <point x="300" y="-20" type="curve" smooth="yes"/>
      <point x="318" y="-20"/>
      <point x="319" y="0"/>
    </contour>
  </outline>
</glyph>
<glyph name="nine" format="1">
  <advance width="600"/>
  <unicode hex="0039"/>
  <outline>
    <contour>
      <point x="376" y="671" type="curve"/>
      <point x="376" y="699"/>
      <point x="363" y="720"/>
      <point x="295" y="720" type="curve"/>
      <point x="163" y="720"/>
      <point x="74" y="638"/>
      <point x="74" y="518" type="curve" smooth="yes"/>
      <point x="74" y="446" type="line" smooth="yes"/>
      <point x="74" y="414"/>
      <point x="99" y="390"/>
      <point x="130" y="390" type="curve"/>
      <point x="130" y="407"/>
      <point x="130" y="425"/>
      <point x="130" y="447" type="curve" smooth="yes"/>
      <point x="130" y="517" type="line" smooth="yes"/>
      <point x="130" y="612"/>
      <point x="194" y="671"/>
      <point x="302" y="671" type="curve" smooth="yes"/>
      <point x="344" y="671"/>
      <point x="354" y="671"/>
    </contour>
    <contour>
      <point x="357" y="33" type="curve"/>
      <point x="332" y="33"/>
      <point x="309" y="33"/>
      <point x="272" y="33" type="curve" smooth="yes"/>
      <point x="200" y="33"/>
      <point x="158" y="45"/>
      <point x="103" y="89" type="curve"/>
      <point x="92" y="89" type="line"/>
      <point x="92" y="79"/>
      <point x="92" y="64"/>
      <point x="92" y="40" type="curve" smooth="yes"/>
      <point x="92" y="36"/>
      <point x="92" y="34"/>
      <point x="94" y="32" type="curve" smooth="yes"/>
      <point x="124" y="2"/>
      <point x="191" y="-20"/>
      <point x="272" y="-20" type="curve" smooth="yes"/>
      <point x="329" y="-20"/>
      <point x="357" y="2"/>
    </contour>
    <contour>
      <point x="530" y="275" type="curve" smooth="yes"/>
      <point x="530" y="433" type="line" smooth="yes"/>
      <point x="530" y="633"/>
      <point x="461" y="720"/>
      <point x="295" y="720" type="curve" smooth="yes"/>
      <point x="286" y="720"/>
      <point x="284" y="701"/>
      <point x="302" y="671" type="curve"/>
      <point x="423" y="671"/>
      <point x="474" y="605"/>
      <point x="474" y="433" type="curve" smooth="yes"/>
      <point x="474" y="274" type="line" smooth="yes"/>
      <point x="474" y="115"/>
      <point x="406" y="33"/>
      <point x="272" y="33" type="curve"/>
      <point x="259" y="-6"/>
      <point x="259" y="-20"/>
      <point x="272" y="-20" type="curve" smooth="yes"/>
      <point x="438" y="-20"/>
      <point x="530" y="85"/>
    </contour>
    <contour>
      <point x="292" y="268" type="curve" smooth="yes"/>
      <point x="370" y="268"/>
      <point x="440" y="297"/>
      <point x="474" y="331" type="curve" smooth="yes"/>
      <point x="481" y="338"/>
      <point x="486" y="359"/>
      <point x="486" y="393" type="curve"/>
      <point x="427" y="342"/>
      <point x="369" y="320"/>
      <point x="297" y="320" type="curve" smooth="yes"/>
      <point x="185" y="320"/>
      <point x="130" y="364"/>
      <point x="130" y="447" type="curve" smooth="yes"/>
      <point x="130" y="455"/>
      <point x="130" y="471"/>
      <point x="130" y="478" type="curve"/>
      <point x="89" y="474"/>
      <point x="74" y="463"/>
      <point x="74" y="446" type="curve" smooth="yes"/>
      <point x="74" y="331"/>
      <point x="157" y="268"/>
    </contour>
  </outline>
</glyph>
<glyph name="colon" format="1">
  <advance width="300"/>
  <unicode hex="003A"/>
  <outline>
    <contour>
      <point x="215" y="408" type="curve"/>
      <point x="215" y="521" type="line" smooth="yes"/>
      <point x="215" y="527"/>
      <point x="210" y="532"/>
      <point x="204" y="532" type="curve" smooth="yes"/>
      <point x="172" y="532"/>
      <point x="119" y="532"/>
      <point x="87" y="532" type="curve"/>
      <point x="87" y="419" type="line" smooth="yes"/>
      <point x="87" y="413"/>
      <point x="92" y="408"/>
      <point x="98" y="408" type="curve" smooth="yes"/>
      <point x="130" y="408"/>
      <point x="183" y="408"/>
    </contour>
    <contour>
      <point x="213" y="-5" type="curve"/>
      <point x="213" y="108" type="line" smooth="yes"/>
      <point x="213" y="114"/>
      <point x="208" y="119"/>
      <point x="202" y="119" type="curve" smooth="yes"/>
      <point x="170" y="119"/>
      <point x="117" y="119"/>
      <point x="85" y="119" type="curve"/>
      <point x="85" y="6" type="line" smooth="yes"/>
      <point x="85" y="0"/>
      <point x="90" y="-5"/>
      <point x="96" y="-5" type="curve" smooth="yes"/>
      <point x="128" y="-5"/>
      <point x="181" y="-5"/>
    </contour>
  </outline>
</glyph>
<glyph name="semicolon" format="1">
  <advance width="350"/>
  <unicode hex="003B"/>
  <outline>
    <contour>
      <point x="239" y="408" type="curve"/>
      <point x="239" y="521" type="line" smooth="yes"/>
      <point x="239" y="527"/>
      <point x="234" y="532"/>
      <point x="228" y="532" type="curve" smooth="yes"/>
      <point x="196" y="532"/>
      <point x="143" y="532"/>
      <point x="111" y="532" type="curve"/>
      <point x="111" y="419" type="line" smooth="yes"/>
      <point x="111" y="413"/>
      <point x="116" y="408"/>
      <point x="122" y="408" type="curve" smooth="yes"/>
      <point x="154" y="408"/>
      <point x="207" y="408"/>
    </contour>
    <contour>
      <point x="108" y="-193" type="curve" smooth="yes"/>
      <point x="113" y="-193"/>
      <point x="116" y="-192"/>
      <point x="118" y="-186" type="curve"/>
      <point x="159" y="-92"/>
      <point x="200" y="4"/>
      <point x="240" y="97" type="curve"/>
      <point x="243" y="105"/>
      <point x="240" y="110"/>
      <point x="232" y="110" type="curve" smooth="yes"/>
      <point x="195" y="110"/>
      <point x="174" y="110"/>
      <point x="131" y="110" type="curve"/>
      <point x="107" y="9"/>
      <point x="83" y="-92"/>
      <point x="59" y="-193" type="curve"/>
      <point x="72" y="-193"/>
      <point x="87" y="-193"/>
    </contour>
  </outline>
</glyph>
<glyph name="greater" format="1">
  <advance width="553"/>
  <unicode hex="003E"/>
  <outline>
    <contour>
      <point x="80" y="88" type="curve"/>
      <point x="80" y="39" type="line"/>
      <point x="80" y="35"/>
      <point x="82" y="32"/>
      <point x="86" y="32" type="curve" smooth="yes"/>
      <point x="90" y="32"/>
      <point x="93" y="33"/>
      <point x="106" y="40" type="curve" smooth="yes"/>
      <point x="148" y="62"/>
      <point x="382" y="186"/>
      <point x="520" y="259" type="curve"/>
      <point x="520" y="330" type="line"/>
      <point x="513" y="320"/>
      <point x="508" y="315"/>
      <point x="490" y="306" type="curve"/>
      <point x="353" y="233"/>
      <point x="217" y="161"/>
    </contour>
    <contour>
      <point x="80" y="580" type="curve"/>
      <point x="80" y="562"/>
      <point x="80" y="546"/>
      <point x="80" y="528" type="curve" smooth="yes"/>
      <point x="80" y="520"/>
      <point x="81" y="517"/>
      <point x="88" y="513" type="curve" smooth="yes"/>
      <point x="211" y="447"/>
      <point x="333" y="383"/>
      <point x="459" y="315" type="curve" smooth="yes"/>
      <point x="465" y="312"/>
      <point x="465" y="310"/>
      <point x="465" y="305" type="curve" smooth="yes"/>
      <point x="465" y="290"/>
      <point x="465" y="272"/>
      <point x="465" y="254" type="curve"/>
      <point x="506" y="258"/>
      <point x="520" y="300"/>
      <point x="520" y="325" type="curve" smooth="yes"/>
      <point x="520" y="335" type="line" smooth="yes"/>
      <point x="520" y="343"/>
      <point x="518" y="348"/>
      <point x="509" y="353" type="curve" smooth="yes"/>
      <point x="367" y="428"/>
      <point x="223" y="504"/>
    </contour>
  </outline>
</glyph>
<glyph name="question" format="1">
  <advance width="600"/>
  <unicode hex="003F"/>
  <outline>
    <contour>
      <point x="300" y="720" type="curve" smooth="yes"/>
      <point x="215" y="720"/>
      <point x="134" y="691"/>
      <point x="90" y="647" type="curve" smooth="yes"/>
      <point x="88" y="645"/>
      <point x="87" y="643"/>
      <point x="87" y="639" type="curve" smooth="yes"/>
      <point x="87" y="613"/>
      <point x="87" y="600"/>
      <point x="87" y="589" type="curve"/>
      <point x="98" y="589" type="line"/>
      <point x="168" y="647"/>
      <point x="226" y="667"/>
      <point x="300" y="667" type="curve" smooth="yes"/>
      <point x="409" y="667"/>
      <point x="461" y="628"/>
      <point x="461" y="555" type="curve" smooth="yes"/>
      <point x="461" y="536"/>
      <point x="461" y="519"/>
      <point x="461" y="498" type="curve"/>
      <point x="490" y="499"/>
      <point x="516" y="529"/>
      <point x="516" y="561" type="curve" smooth="yes"/>
      <point x="516" y="656"/>
      <point x="441" y="720"/>
    </contour>
    <contour>
      <point x="461" y="615" type="curve"/>
      <point x="461" y="594"/>
      <point x="461" y="566"/>
      <point x="461" y="530" type="curve" smooth="yes"/>
      <point x="461" y="487"/>
      <point x="440" y="466"/>
      <point x="383" y="427" type="curve" smooth="yes"/>
      <point x="341" y="398" type="line" smooth="yes"/>
      <point x="265" y="347"/>
      <point x="247" y="315"/>
      <point x="247" y="257" type="curve" smooth="yes"/>
      <point x="247" y="248" type="line" smooth="yes"/>
      <point x="247" y="240"/>
      <point x="250" y="237"/>
      <point x="258" y="237" type="curve" smooth="yes"/>
      <point x="303" y="237" type="line"/>
      <point x="303" y="246" type="line" smooth="yes"/>
      <point x="303" y="294"/>
      <point x="309" y="309"/>
      <point x="379" y="358" type="curve" smooth="yes"/>
      <point x="423" y="389" type="line" smooth="yes"/>
      <point x="489" y="435"/>
      <point x="516" y="466"/>
      <point x="516" y="531" type="curve" smooth="yes"/>
      <point x="516" y="561" type="line" smooth="yes"/>
      <point x="516" y="592"/>
      <point x="495" y="615"/>
    </contour>
    <contour>
      <point x="348" y="-5" type="curve"/>
      <point x="348" y="108" type="line" smooth="yes"/>
      <point x="348" y="114"/>
      <point x="343" y="119"/>
      <point x="337" y="119" type="curve" smooth="yes"/>
      <point x="305" y="119"/>
      <point x="252" y="119"/>
      <point x="220" y="119" type="curve"/>
      <point x="220" y="6" type="line" smooth="yes"/>
      <point x="220" y="0"/>
      <point x="225" y="-5"/>
      <point x="231" y="-5" type="curve" smooth="yes"/>
      <point x="263" y="-5"/>
      <point x="316" y="-5"/>
    </contour>
  </outline>
</glyph>
<glyph name="at" format="1">
  <advance width="600"/>
  <unicode hex="0040"/>
  <outline>
    <contour>
      <point x="476" y="512" type="curve" smooth="yes"/>
      <point x="463" y="526"/>
      <point x="426" y="536"/>
      <point x="384" y="536" type="curve" smooth="yes"/>
      <point x="345" y="536"/>
      <point x="315" y="526"/>
      <point x="292" y="504" type="curve" smooth="yes"/>
      <point x="279" y="490"/>
      <point x="277" y="475"/>
      <point x="310" y="405" type="curve"/>
      <point x="310" y="467"/>
      <point x="341" y="485"/>
      <point x="395" y="485" type="curve" smooth="yes"/>
      <point x="420" y="485"/>
      <point x="445" y="482"/>
      <point x="476" y="473" type="curve"/>
      <point x="487" y="490"/>
      <point x="487" y="501"/>
    </contour>
    <contour>
      <point x="485" y="166" type="curve"/>
      <point x="447" y="112"/>
      <point x="405" y="83"/>
      <point x="364" y="83" type="curve" smooth="yes"/>
      <point x="332" y="83"/>
      <point x="310" y="107"/>
      <point x="310" y="141" type="curve" smooth="yes"/>
      <point x="310" y="405" type="line" smooth="yes"/>
      <point x="310" y="448"/>
      <point x="319" y="472"/>
      <point x="348" y="509" type="curve"/>
      <point x="320" y="520"/>
      <point x="307" y="519"/>
      <point x="292" y="504" type="curve" smooth="yes"/>
      <point x="267" y="479"/>
      <point x="256" y="445"/>
      <point x="256" y="398" type="curve" smooth="yes"/>
      <point x="256" y="140" type="line" smooth="yes"/>
      <point x="256" y="72"/>
      <point x="294" y="29"/>
      <point x="352" y="29" type="curve" smooth="yes"/>
      <point x="397" y="29"/>
      <point x="430" y="46"/>
      <point x="479" y="97" type="curve" smooth="yes"/>
      <point x="485" y="103"/>
      <point x="485" y="111"/>
    </contour>
    <contour>
      <point x="519" y="39" type="line"/>
      <point x="519" y="74"/>
      <point x="519" y="108"/>
      <point x="519" y="143" type="curve"/>
      <point x="519" y="546" type="line" smooth="yes"/>
      <point x="519" y="646"/>
      <point x="477" y="760"/>
      <point x="308" y="760" type="curve" smooth="yes"/>
      <point x="298" y="760"/>
      <point x="296" y="753"/>
      <point x="311" y="708" type="curve"/>
      <point x="389" y="708"/>
      <point x="465" y="677"/>
      <point x="465" y="532" type="curve" smooth="yes"/>
      <point x="465" y="110" type="line" smooth="yes"/>
      <point x="465" y="104"/>
      <point x="483" y="39"/>
      <point x="488" y="39" type="curve" smooth="yes"/>
    </contour>
    <contour>
      <point x="81" y="487" type="curve" smooth="yes"/>
      <point x="81" y="89" type="line" smooth="yes"/>
      <point x="81" y="-13"/>
      <point x="95" y="-72"/>
      <point x="150" y="-127" type="curve" smooth="yes"/>
      <point x="175" y="-152"/>
      <point x="258" y="-169"/>
      <point x="319" y="-138" type="curve"/>
      <point x="165" y="-138"/>
      <point x="133" y="-8"/>
      <point x="133" y="82" type="curve" smooth="yes"/>
      <point x="133" y="473" type="line" smooth="yes"/>
      <point x="133" y="628"/>
      <point x="193" y="708"/>
      <point x="311" y="708" type="curve" smooth="yes"/>
      <point x="380" y="708"/>
      <point x="432" y="682"/>
      <point x="458" y="648" type="curve"/>
      <point x="467" y="651"/>
      <point x="469" y="660"/>
      <point x="469" y="669" type="curve" smooth="yes"/>
      <point x="469" y="712"/>
      <point x="383" y="760"/>
      <point x="308" y="760" type="curve" smooth="yes"/>
      <point x="166" y="760"/>
      <point x="81" y="656"/>
    </contour>
    <contour>
      <point x="318" y="-190" type="curve" smooth="yes"/>
      <point x="382" y="-190"/>
      <point x="439" y="-174"/>
      <point x="456" y="-157" type="curve" smooth="yes"/>
      <point x="458" y="-155"/>
      <point x="459" y="-152"/>
      <point x="459" y="-149" type="curve" smooth="yes"/>
      <point x="459" y="-110" type="line"/>
      <point x="444" y="-110" type="line"/>
      <point x="404" y="-130"/>
      <point x="368" y="-138"/>
      <point x="319" y="-138" type="curve" smooth="yes"/>
      <point x="245" y="-138"/>
      <point x="195" y="-110"/>
      <point x="148" y="-53" type="curve"/>
      <point x="131" y="-73"/>
      <point x="127" y="-104"/>
      <point x="150" y="-127" type="curve"/>
      <point x="185" y="-162"/>
      <point x="249" y="-190"/>
    </contour>
  </outline>
</glyph>
<glyph name="B" format="1">
  <advance width="600"/>
  <unicode hex="0042"/>
  <outline>
    <contour>
      <point x="154" y="6" type="curve"/>
      <point x="154" y="675" type="line" smooth="yes"/>
      <point x="154" y="685"/>
      <point x="144" y="688"/>
      <point x="99" y="688" type="curve"/>
      <point x="99" y="11" type="line"/>
      <point x="99" y="9"/>
      <point x="121" y="6"/>
    </contour>
    <contour>
      <point x="30" y="700" type="curve"/>
      <point x="30" y="686"/>
      <point x="30" y="674"/>
      <point x="30" y="659" type="curve" smooth="yes"/>
      <point x="30" y="656"/>
      <point x="31" y="653"/>
      <point x="33" y="651" type="curve" smooth="yes"/>
      <point x="35" y="649"/>
      <point x="38" y="648"/>
      <point x="41" y="648" type="curve" smooth="yes"/>
      <point x="58" y="648"/>
      <point x="79" y="648"/>
      <point x="105" y="648" type="curve" smooth="yes"/>
      <point x="161" y="648"/>
      <point x="253" y="648"/>
      <point x="310" y="648" type="curve" smooth="yes"/>
      <point x="361" y="648"/>
      <point x="373" y="648"/>
      <point x="406" y="648" type="curve"/>
      <point x="407" y="672"/>
      <point x="386" y="700"/>
      <point x="310" y="700" type="curve" smooth="yes"/>
      <point x="217" y="700"/>
      <point x="123" y="700"/>
    </contour>
    <contour>
      <point x="512" y="513" type="curve" smooth="yes"/>
      <point x="512" y="538" type="line" smooth="yes"/>
      <point x="512" y="636"/>
      <point x="449" y="700"/>
      <point x="310" y="700" type="curve" smooth="yes"/>
      <point x="296" y="700"/>
      <point x="294" y="688"/>
      <point x="310" y="648" type="curve"/>
      <point x="417" y="648"/>
      <point x="456" y="607"/>
      <point x="456" y="537" type="curve" smooth="yes"/>
      <point x="456" y="510" type="line" smooth="yes"/>
      <point x="456" y="435"/>
      <point x="424" y="381"/>
      <point x="277" y="381" type="curve" smooth="yes"/>
      <point x="230" y="381"/>
      <point x="182" y="381"/>
      <point x="135" y="381" type="curve"/>
      <point x="135" y="372"/>
      <point x="135" y="362"/>
      <point x="135" y="354" type="curve" smooth="yes"/>
      <point x="135" y="347"/>
      <point x="139" y="343"/>
      <point x="146" y="343" type="curve" smooth="yes"/>
      <point x="275" y="343" type="line" smooth="yes"/>
      <point x="443" y="343"/>
      <point x="512" y="400"/>
    </contour>
    <contour>
      <point x="525" y="185" type="curve" smooth="yes"/>
      <point x="525" y="210" type="line" smooth="yes"/>
      <point x="525" y="316"/>
      <point x="443" y="370"/>
      <point x="274" y="370" type="curve" smooth="yes"/>
      <point x="146" y="370" type="line" smooth="yes"/>
      <point x="139" y="370"/>
      <point x="135" y="365"/>
      <point x="135" y="359" type="curve"/>
      <point x="135" y="331" type="line"/>
      <point x="277" y="331" type="line"/>
      <point x="429" y="331"/>
      <point x="469" y="278"/>
      <point x="469" y="213" type="curve" smooth="yes"/>
      <point x="469" y="186" type="line" smooth="yes"/>
      <point x="469" y="103"/>
      <point x="421" y="52"/>
      <point x="313" y="52" type="curve" smooth="yes"/>
      <point x="253" y="52"/>
      <point x="193" y="52"/>
      <point x="132" y="52" type="curve"/>
      <point x="101" y="21"/>
      <point x="99" y="20"/>
      <point x="99" y="11" type="curve" smooth="yes"/>
      <point x="99" y="4"/>
      <point x="103" y="0"/>
      <point x="110" y="0" type="curve" smooth="yes"/>
      <point x="333" y="0" type="line" smooth="yes"/>
      <point x="448" y="0"/>
      <point x="525" y="62"/>
    </contour>
  </outline>
</glyph>
<glyph name="D" format="1">
  <advance width="650"/>
  <unicode hex="0044"/>
  <outline>
    <contour>
      <point x="155" y="7" type="curve"/>
      <point x="155" y="667" type="line" smooth="yes"/>
      <point x="155" y="673"/>
      <point x="150" y="678"/>
      <point x="99" y="678" type="curve"/>
      <point x="99" y="14" type="line" smooth="yes"/>
      <point x="99" y="8"/>
      <point x="104" y="7"/>
    </contour>
    <contour>
      <point x="30" y="700" type="curve"/>
      <point x="30" y="685"/>
      <point x="30" y="673"/>
      <point x="30" y="659" type="curve"/>
      <point x="30" y="656"/>
      <point x="31" y="653"/>
      <point x="33" y="651" type="curve" smooth="yes"/>
      <point x="35" y="649"/>
      <point x="38" y="648"/>
      <point x="41" y="648" type="curve" smooth="yes"/>
      <point x="53" y="648"/>
      <point x="87" y="648"/>
      <point x="104" y="648" type="curve" smooth="yes"/>
      <point x="145" y="648"/>
      <point x="268" y="648"/>
      <point x="309" y="648" type="curve"/>
      <point x="356" y="648"/>
      <point x="381" y="648"/>
      <point x="420" y="648" type="curve"/>
      <point x="420" y="679"/>
      <point x="367" y="700"/>
      <point x="309" y="700" type="curve" smooth="yes"/>
      <point x="249" y="700"/>
      <point x="107" y="700"/>
    </contour>
    <contour>
      <point x="576" y="241" type="curve" smooth="yes"/>
      <point x="576" y="446" type="line" smooth="yes"/>
      <point x="576" y="626"/>
      <point x="482" y="700"/>
      <point x="309" y="700" type="curve" smooth="yes"/>
      <point x="298" y="700"/>
      <point x="290" y="686"/>
      <point x="309" y="648" type="curve"/>
      <point x="452" y="648"/>
      <point x="521" y="595"/>
      <point x="521" y="448" type="curve" smooth="yes"/>
      <point x="521" y="248" type="line" smooth="yes"/>
      <point x="521" y="118"/>
      <point x="453" y="52"/>
      <point x="303" y="52" type="curve" smooth="yes"/>
      <point x="249" y="52"/>
      <point x="155" y="52"/>
      <point x="112" y="52" type="curve"/>
      <point x="102" y="41"/>
      <point x="99" y="35"/>
      <point x="99" y="11" type="curve" smooth="yes"/>
      <point x="99" y="5"/>
      <point x="104" y="0"/>
      <point x="110" y="0" type="curve" smooth="yes"/>
      <point x="305" y="0" type="line" smooth="yes"/>
      <point x="480" y="0"/>
      <point x="576" y="90"/>
    </contour>
    <contour>
      <point x="303" y="711" type="move" name="top"/>
    </contour>
  </outline>
</glyph>
<glyph name="E" format="1">
  <advance width="550"/>
  <unicode hex="0045"/>
  <outline>
    <contour>
      <point x="21" y="700" type="line"/>
      <point x="21" y="685"/>
      <point x="21" y="673"/>
      <point x="21" y="659" type="curve" smooth="yes"/>
      <point x="21" y="656"/>
      <point x="22" y="653"/>
      <point x="24" y="651" type="curve" smooth="yes"/>
      <point x="26" y="649"/>
      <point x="29" y="648"/>
      <point x="32" y="648" type="curve" smooth="yes"/>
      <point x="491" y="648" type="line"/>
      <point x="491" y="662"/>
      <point x="491" y="674"/>
      <point x="491" y="689" type="curve" smooth="yes"/>
      <point x="491" y="692"/>
      <point x="490" y="695"/>
      <point x="488" y="697" type="curve" smooth="yes"/>
      <point x="486" y="699"/>
      <point x="483" y="700"/>
      <point x="480" y="700" type="curve" smooth="yes"/>
    </contour>
    <contour>
      <point x="145" y="31" type="curve"/>
      <point x="145" y="677" type="line" smooth="yes"/>
      <point x="145" y="683"/>
      <point x="140" y="688"/>
      <point x="89" y="688" type="curve"/>
      <point x="89" y="42" type="line"/>
      <point x="89" y="36"/>
      <point x="94" y="31"/>
    </contour>
    <contour>
      <point x="89" y="52" type="line"/>
      <point x="89" y="11" type="line" smooth="yes"/>
      <point x="89" y="5"/>
      <point x="94" y="0"/>
      <point x="100" y="0" type="curve" smooth="yes"/>
      <point x="491" y="0" type="line"/>
      <point x="491" y="15"/>
      <point x="491" y="27"/>
      <point x="491" y="41" type="curve" smooth="yes"/>
      <point x="491" y="47"/>
      <point x="486" y="52"/>
      <point x="480" y="52" type="curve" smooth="yes"/>
    </contour>
    <contour>
      <point x="112" y="382" type="line"/>
      <point x="112" y="334"/>
      <point x="117" y="330"/>
      <point x="123" y="330" type="curve" smooth="yes"/>
      <point x="440" y="330" type="line"/>
      <point x="440" y="345"/>
      <point x="440" y="356"/>
      <point x="440" y="371" type="curve" smooth="yes"/>
      <point x="440" y="374"/>
      <point x="439" y="377"/>
      <point x="437" y="379" type="curve" smooth="yes"/>
      <point x="435" y="381"/>
      <point x="432" y="382"/>
      <point x="429" y="382" type="curve" smooth="yes"/>
    </contour>
    <contour>
      <point x="255" y="711" type="move" name="top"/>
    </contour>
    <contour>
      <point x="492" y="0" type="move" name="ogonek"/>
    </contour>
    <contour>
      <point x="255" y="-1" type="move" name="bottom"/>
    </contour>
  </outline>
</glyph>
<glyph name="F" format="1">
  <advance width="550"/>
  <unicode hex="0046"/>
  <outline>
    <contour>
      <point x="165" y="0" type="curve"/>
      <point x="165" y="36"/>
      <point x="165" y="68"/>
      <point x="165" y="98" type="curve" smooth="yes"/>
      <point x="165" y="675" type="line"/>
      <point x="165" y="680"/>
      <point x="158" y="685"/>
      <point x="109" y="685" type="curve"/>
      <point x="109" y="11" type="line" smooth="yes"/>
      <point x="109" y="5"/>
      <point x="114" y="0"/>
      <point x="120" y="0" type="curve" smooth="yes"/>
      <point x="135" y="0"/>
      <point x="150" y="0"/>
    </contour>
    <contour>
      <point x="41" y="700" type="line"/>
      <point x="41" y="685"/>
      <point x="41" y="673"/>
      <point x="41" y="659" type="curve" smooth="yes"/>
      <point x="41" y="656"/>
      <point x="42" y="653"/>
      <point x="44" y="651" type="curve" smooth="yes"/>
      <point x="46" y="649"/>
      <point x="49" y="648"/>
      <point x="52" y="648" type="curve"/>
      <point x="490" y="648" type="line"/>
      <point x="490" y="662"/>
      <point x="490" y="674"/>
      <point x="490" y="689" type="curve" smooth="yes"/>
      <point x="490" y="692"/>
      <point x="489" y="695"/>
      <point x="487" y="697" type="curve" smooth="yes"/>
      <point x="485" y="699"/>
      <point x="482" y="700"/>
      <point x="479" y="700" type="curve"/>
    </contour>
    <contour>
      <point x="132" y="362" type="line"/>
      <point x="132" y="315"/>
      <point x="137" y="309"/>
      <point x="143" y="309" type="curve"/>
      <point x="441" y="309" type="line"/>
      <point x="441" y="324"/>
      <point x="441" y="336"/>
      <point x="441" y="351" type="curve"/>
      <point x="441" y="354"/>
      <point x="440" y="357"/>
      <point x="438" y="359" type="curve" smooth="yes"/>
      <point x="436" y="361"/>
      <point x="433" y="362"/>
      <point x="430" y="362" type="curve"/>
    </contour>
  </outline>
</glyph>
<glyph name="G" format="1">
  <advance width="650"/>
  <unicode hex="0047"/>
  <outline>
    <contour>
      <point x="353" y="668" type="curve" smooth="yes"/>
      <point x="447" y="668"/>
      <point x="502" y="653"/>
      <point x="556" y="601" type="curve"/>
      <point x="574" y="625"/>
      <point x="575" y="632"/>
      <point x="575" y="637" type="curve" smooth="yes"/>
      <point x="575" y="648"/>
      <point x="573" y="652"/>
      <point x="569" y="656" type="curve" smooth="yes"/>
      <point x="530" y="695"/>
      <point x="458" y="720"/>
      <point x="358" y="720" type="curve" smooth="yes"/>
      <point x="170" y="720"/>
      <point x="75" y="621"/>
      <point x="75" y="428" type="curve" smooth="yes"/>
      <point x="75" y="231" type="line" smooth="yes"/>
      <point x="75" y="175"/>
      <point x="95" y="132"/>
      <point x="132" y="131" type="curve"/>
      <point x="132" y="167"/>
      <point x="132" y="197"/>
      <point x="132" y="239" type="curve" smooth="yes"/>
      <point x="132" y="427" type="line" smooth="yes"/>
      <point x="132" y="590"/>
      <point x="203" y="668"/>
    </contour>
    <contour>
      <point x="335" y="32" type="curve" smooth="yes"/>
      <point x="214" y="32"/>
      <point x="132" y="110"/>
      <point x="132" y="239" type="curve"/>
      <point x="88" y="240"/>
      <point x="75" y="236"/>
      <point x="75" y="231" type="curve" smooth="yes"/>
      <point x="75" y="81"/>
      <point x="179" y="-20"/>
      <point x="335" y="-20" type="curve" smooth="yes"/>
      <point x="496" y="-20"/>
      <point x="574" y="65"/>
      <point x="574" y="86" type="curve" smooth="yes"/>
      <point x="574" y="308" type="line" smooth="yes"/>
      <point x="574" y="316"/>
      <point x="550" y="317"/>
      <point x="519" y="317" type="curve"/>
      <point x="519" y="245"/>
      <point x="519" y="173"/>
      <point x="519" y="101" type="curve" smooth="yes"/>
      <point x="519" y="90"/>
      <point x="459" y="32"/>
    </contour>
    <contour>
      <point x="341" y="343" type="line"/>
      <point x="341" y="328"/>
      <point x="341" y="317"/>
      <point x="341" y="302" type="curve" smooth="yes"/>
      <point x="341" y="299"/>
      <point x="342" y="296"/>
      <point x="344" y="294" type="curve" smooth="yes"/>
      <point x="346" y="292"/>
      <point x="349" y="291"/>
      <point x="352" y="291" type="curve"/>
      <point x="620" y="291" type="line"/>
      <point x="620" y="332" type="line" smooth="yes"/>
      <point x="620" y="338"/>
      <point x="615" y="343"/>
      <point x="609" y="343" type="curve" smooth="yes"/>
    </contour>
    <contour>
      <point x="575" y="498" type="curve"/>
      <point x="575" y="637" type="line" smooth="yes"/>
      <point x="575" y="648"/>
      <point x="563" y="660"/>
      <point x="520" y="660" type="curve"/>
      <point x="520" y="648"/>
      <point x="520" y="643"/>
      <point x="520" y="634" type="curve" smooth="yes"/>
      <point x="520" y="509" type="line" smooth="yes"/>
      <point x="520" y="502"/>
      <point x="524" y="498"/>
      <point x="531" y="498" type="curve" smooth="yes"/>
      <point x="545" y="498"/>
      <point x="560" y="498"/>
    </contour>
    <contour>
      <point x="347" y="711" type="move" name="top"/>
    </contour>
    <contour>
      <point x="347" y="-1" type="move" name="bottom"/>
    </contour>
  </outline>
</glyph>
<glyph name="H" format="1">
  <advance width="650"/>
  <unicode hex="0048"/>
  <outline>
    <contour>
      <point x="89" y="700" type="curve"/>
      <point x="89" y="667"/>
      <point x="89" y="634"/>
      <point x="89" y="601" type="curve" smooth="yes"/>
      <point x="89" y="11" type="line" smooth="yes"/>
      <point x="89" y="5"/>
      <point x="94" y="0"/>
      <point x="100" y="0" type="curve" smooth="yes"/>
      <point x="115" y="0"/>
      <point x="130" y="0"/>
      <point x="145" y="0" type="curve"/>
      <point x="145" y="689" type="line" smooth="yes"/>
      <point x="145" y="692"/>
      <point x="144" y="695"/>
      <point x="142" y="697" type="curve" smooth="yes"/>
      <point x="140" y="699"/>
      <point x="137" y="700"/>
      <point x="134" y="700" type="curve" smooth="yes"/>
      <point x="119" y="700"/>
      <point x="104" y="700"/>
    </contour>
    <contour>
      <point x="561" y="0" type="curve"/>
      <point x="561" y="33"/>
      <point x="561" y="67"/>
      <point x="561" y="101" type="curve" smooth="yes"/>
      <point x="561" y="689" type="line" smooth="yes"/>
      <point x="561" y="695"/>
      <point x="556" y="700"/>
      <point x="550" y="700" type="curve" smooth="yes"/>
      <point x="535" y="700"/>
      <point x="520" y="700"/>
      <point x="505" y="700" type="curve"/>
      <point x="505" y="11" type="line" smooth="yes"/>
      <point x="505" y="8"/>
      <point x="506" y="5"/>
      <point x="508" y="3" type="curve" smooth="yes"/>
      <point x="510" y="1"/>
      <point x="513" y="0"/>
      <point x="516" y="0" type="curve" smooth="yes"/>
      <point x="531" y="0"/>
      <point x="546" y="0"/>
    </contour>
    <contour>
      <point x="126" y="382" type="line"/>
      <point x="126" y="341" type="line" smooth="yes"/>
      <point x="126" y="338"/>
      <point x="127" y="335"/>
      <point x="129" y="333" type="curve" smooth="yes"/>
      <point x="131" y="331"/>
      <point x="134" y="330"/>
      <point x="137" y="330" type="curve"/>
      <point x="538" y="330" type="line"/>
      <point x="538" y="380"/>
      <point x="533" y="382"/>
      <point x="527" y="382" type="curve" smooth="yes"/>
    </contour>
    <contour>
      <point x="325" y="711" type="move" name="top"/>
    </contour>
  </outline>
</glyph>
<glyph name="I" format="1">
  <advance width="500"/>
  <unicode hex="0049"/>
  <outline>
    <contour>
      <point x="278" y="22" type="curve"/>
      <point x="278" y="670" type="line" smooth="yes"/>
      <point x="278" y="676"/>
      <point x="273" y="678"/>
      <point x="222" y="678" type="curve"/>
      <point x="222" y="33" type="line" smooth="yes"/>
      <point x="222" y="27"/>
      <point x="227" y="22"/>
    </contour>
    <contour>
      <point x="79" y="700" type="line"/>
      <point x="79" y="685"/>
      <point x="79" y="673"/>
      <point x="79" y="659" type="curve"/>
      <point x="79" y="656"/>
      <point x="80" y="653"/>
      <point x="82" y="651" type="curve" smooth="yes"/>
      <point x="84" y="649"/>
      <point x="87" y="648"/>
      <point x="90" y="648" type="curve" smooth="yes"/>
      <point x="421" y="648" type="line"/>
      <point x="421" y="662"/>
      <point x="421" y="674"/>
      <point x="421" y="689" type="curve" smooth="yes"/>
      <point x="421" y="695"/>
      <point x="416" y="700"/>
      <point x="410" y="700" type="curve" smooth="yes"/>
    </contour>
    <contour>
      <point x="79" y="52" type="line"/>
      <point x="79" y="38"/>
      <point x="79" y="26"/>
      <point x="79" y="11" type="curve"/>
      <point x="79" y="8"/>
      <point x="80" y="5"/>
      <point x="82" y="3" type="curve" smooth="yes"/>
      <point x="84" y="1"/>
      <point x="87" y="0"/>
      <point x="90" y="0" type="curve" smooth="yes"/>
      <point x="421" y="0" type="line"/>
      <point x="421" y="15"/>
      <point x="421" y="27"/>
      <point x="421" y="41" type="curve" smooth="yes"/>
      <point x="421" y="47"/>
      <point x="416" y="52"/>
      <point x="410" y="52" type="curve" smooth="yes"/>
    </contour>
    <contour>
      <point x="250" y="711" type="move" name="top"/>
    </contour>
    <contour>
      <point x="422" y="0" type="move" name="ogonek"/>
    </contour>
    <contour>
      <point x="250" y="-1" type="move" name="bottom"/>
    </contour>
  </outline>
</glyph>
<glyph name="J" format="1">
  <advance width="500"/>
  <unicode hex="004A"/>
  <outline>
    <contour>
      <point x="90" y="700" type="line"/>
      <point x="90" y="685"/>
      <point x="90" y="673"/>
      <point x="90" y="659" type="curve" smooth="yes"/>
      <point x="90" y="656"/>
      <point x="91" y="653"/>
      <point x="93" y="651" type="curve" smooth="yes"/>
      <point x="95" y="649"/>
      <point x="98" y="648"/>
      <point x="101" y="648" type="curve" smooth="yes"/>
      <point x="393" y="648" type="line"/>
      <point x="393" y="684"/>
      <point x="389" y="700"/>
      <point x="378" y="700" type="curve"/>
    </contour>
    <contour>
      <point x="430" y="239" type="curve" smooth="yes"/>
      <point x="430" y="689" type="line" smooth="yes"/>
      <point x="430" y="696"/>
      <point x="427" y="700"/>
      <point x="419" y="700" type="curve" smooth="yes"/>
      <point x="375" y="700" type="line"/>
      <point x="375" y="239" type="line" smooth="yes"/>
      <point x="375" y="192"/>
      <point x="375" y="164"/>
      <point x="375" y="132" type="curve"/>
      <point x="402" y="132"/>
      <point x="430" y="171"/>
    </contour>
    <contour>
      <point x="203" y="33" type="curve" smooth="yes"/>
      <point x="155" y="33"/>
      <point x="117" y="47"/>
      <point x="71" y="77" type="curve"/>
      <point x="59" y="77" type="line"/>
      <point x="59" y="61"/>
      <point x="59" y="49"/>
      <point x="59" y="34" type="curve"/>
      <point x="59" y="30"/>
      <point x="60" y="28"/>
      <point x="62" y="26" type="curve" smooth="yes"/>
      <point x="85" y="2"/>
      <point x="142" y="-20"/>
      <point x="203" y="-20" type="curve" smooth="yes"/>
      <point x="209" y="-20" type="line" smooth="yes"/>
      <point x="346" y="-20"/>
      <point x="430" y="74"/>
      <point x="430" y="239" type="curve"/>
      <point x="430" y="247"/>
      <point x="423" y="255"/>
      <point x="375" y="239" type="curve"/>
      <point x="375" y="114"/>
      <point x="322" y="33"/>
    </contour>
    <contour>
      <point x="255" y="711" type="move" name="top"/>
    </contour>
  </outline>
</glyph>
<glyph name="L" format="1">
  <advance width="550"/>
  <unicode hex="004C"/>
  <outline>
    <contour>
      <point x="145" y="31" type="curve"/>
      <point x="145" y="689" type="line" smooth="yes"/>
      <point x="145" y="692"/>
      <point x="144" y="695"/>
      <point x="142" y="697" type="curve" smooth="yes"/>
      <point x="140" y="699"/>
      <point x="137" y="700"/>
      <point x="134" y="700" type="curve" smooth="yes"/>
      <point x="119" y="700"/>
      <point x="104" y="700"/>
      <point x="89" y="700" type="curve"/>
      <point x="89" y="667"/>
      <point x="89" y="634"/>
      <point x="89" y="601" type="curve" smooth="yes"/>
      <point x="89" y="42" type="line" smooth="yes"/>
      <point x="89" y="36"/>
      <point x="94" y="31"/>
    </contour>
    <contour>
      <point x="89" y="52" type="line"/>
      <point x="89" y="11" type="line" smooth="yes"/>
      <point x="89" y="4"/>
      <point x="93" y="0"/>
      <point x="100" y="0" type="curve" smooth="yes"/>
      <point x="491" y="0" type="line"/>
      <point x="491" y="15"/>
      <point x="491" y="27"/>
      <point x="491" y="41" type="curve" smooth="yes"/>
      <point x="491" y="47"/>
      <point x="486" y="52"/>
      <point x="480" y="52" type="curve" smooth="yes"/>
    </contour>
    <contour>
      <point x="382" y="550" type="move" name="caronslovak"/>
    </contour>
    <contour>
      <point x="119" y="711" type="move" name="top"/>
    </contour>
    <contour>
      <point x="440" y="400" type="move" name="dot"/>
    </contour>
    <contour>
      <point x="290" y="-1" type="move" name="bottom"/>
    </contour>
  </outline>
</glyph>
<glyph name="M" format="1">
  <advance width="800"/>
  <unicode hex="004D"/>
  <outline>
    <contour>
      <point x="144" y="0" type="curve"/>
      <point x="144" y="67"/>
      <point x="144" y="134"/>
      <point x="144" y="200" type="curve" smooth="yes"/>
      <point x="144" y="363"/>
      <point x="144" y="527"/>
      <point x="143" y="689" type="curve" smooth="yes"/>
      <point x="143" y="692"/>
      <point x="142" y="695"/>
      <point x="140" y="697" type="curve" smooth="yes"/>
      <point x="138" y="699"/>
      <point x="135" y="700"/>
      <point x="132" y="700" type="curve" smooth="yes"/>
      <point x="118" y="700"/>
      <point x="104" y="700"/>
      <point x="90" y="700" type="curve"/>
      <point x="90" y="663"/>
      <point x="90" y="625"/>
      <point x="90" y="588" type="curve" smooth="yes"/>
      <point x="90" y="396"/>
      <point x="90" y="203"/>
      <point x="90" y="11" type="curve" smooth="yes"/>
      <point x="90" y="8"/>
      <point x="91" y="5"/>
      <point x="93" y="3" type="curve" smooth="yes"/>
      <point x="95" y="1"/>
      <point x="98" y="0"/>
      <point x="101" y="0" type="curve" smooth="yes"/>
      <point x="116" y="0"/>
      <point x="129" y="0"/>
    </contour>
    <contour>
      <point x="711" y="0" type="curve"/>
      <point x="711" y="37"/>
      <point x="711" y="75"/>
      <point x="711" y="112" type="curve" smooth="yes"/>
      <point x="711" y="304"/>
      <point x="711" y="497"/>
      <point x="711" y="689" type="curve"/>
      <point x="711" y="692"/>
      <point x="710" y="695"/>
      <point x="708" y="697" type="curve" smooth="yes"/>
      <point x="706" y="699"/>
      <point x="703" y="700"/>
      <point x="700" y="700" type="curve" smooth="yes"/>
      <point x="656" y="700" type="line"/>
      <point x="656" y="697"/>
      <point x="656" y="694"/>
      <point x="656" y="691" type="curve"/>
      <point x="655" y="527"/>
      <point x="655" y="364"/>
      <point x="655" y="200" type="curve" smooth="yes"/>
      <point x="655" y="137"/>
      <point x="655" y="74"/>
      <point x="655" y="11" type="curve" smooth="yes"/>
      <point x="655" y="8"/>
      <point x="656" y="5"/>
      <point x="658" y="3" type="curve" smooth="yes"/>
      <point x="660" y="1"/>
      <point x="662" y="0"/>
      <point x="666" y="0" type="curve" smooth="yes"/>
      <point x="681" y="0"/>
      <point x="696" y="0"/>
    </contour>
    <contour>
      <point x="180" y="687" type="curve" smooth="yes"/>
      <point x="176" y="696"/>
      <point x="172" y="700"/>
      <point x="164" y="700" type="curve"/>
      <point x="115" y="700" type="line"/>
      <point x="121" y="686"/>
      <point x="129" y="674"/>
      <point x="135" y="660" type="curve" smooth="yes"/>
      <point x="213" y="483"/>
      <point x="293" y="305"/>
      <point x="371" y="128" type="curve"/>
      <point x="373" y="124"/>
      <point x="378" y="121"/>
      <point x="382" y="121" type="curve" smooth="yes"/>
      <point x="391" y="121"/>
      <point x="398" y="123"/>
      <point x="412" y="167" type="curve"/>
      <point x="334" y="341"/>
      <point x="257" y="513"/>
    </contour>
    <contour>
      <point x="625" y="700" type="curve"/>
      <point x="547" y="522"/>
      <point x="467" y="345"/>
      <point x="388" y="167" type="curve"/>
      <point x="379" y="126"/>
      <point x="373" y="121"/>
      <point x="382" y="121" type="curve"/>
      <point x="422" y="121" type="line"/>
      <point x="502" y="301"/>
      <point x="584" y="481"/>
      <point x="666" y="662" type="curve" smooth="yes"/>
      <point x="680" y="694"/>
      <point x="673" y="700"/>
      <point x="669" y="700" type="curve" smooth="yes"/>
      <point x="656" y="700"/>
      <point x="639" y="700"/>
    </contour>
  </outline>
</glyph>
<glyph name="N" format="1">
  <advance width="700"/>
  <unicode hex="004E"/>
  <outline>
    <contour>
      <point x="144" y="0" type="curve"/>
      <point x="144" y="660" type="line"/>
      <point x="143" y="683"/>
      <point x="142" y="695"/>
      <point x="140" y="697" type="curve" smooth="yes"/>
      <point x="138" y="699"/>
      <point x="135" y="700"/>
      <point x="132" y="700" type="curve"/>
      <point x="120" y="700"/>
      <point x="101" y="700"/>
      <point x="89" y="700" type="curve"/>
      <point x="89" y="653"/>
      <point x="89" y="607"/>
      <point x="89" y="560" type="curve" smooth="yes"/>
      <point x="89" y="11" type="line"/>
      <point x="89" y="5"/>
      <point x="94" y="0"/>
      <point x="100" y="0" type="curve"/>
      <point x="115" y="0"/>
      <point x="130" y="0"/>
    </contour>
    <contour>
      <point x="611" y="0" type="line"/>
      <point x="611" y="689" type="line"/>
      <point x="611" y="695"/>
      <point x="606" y="700"/>
      <point x="600" y="700" type="curve"/>
      <point x="556" y="700" type="line"/>
      <point x="556" y="37" type="line"/>
      <point x="557" y="17"/>
      <point x="559" y="5"/>
      <point x="561" y="3" type="curve" smooth="yes"/>
      <point x="563" y="1"/>
      <point x="566" y="0"/>
      <point x="569" y="0" type="curve"/>
    </contour>
    <contour>
      <point x="131" y="700" type="line"/>
      <point x="118" y="684"/>
      <point x="120" y="682"/>
      <point x="123" y="666" type="curve"/>
      <point x="259" y="446"/>
      <point x="394" y="226"/>
      <point x="530" y="7" type="curve"/>
      <point x="533" y="2"/>
      <point x="536" y="0"/>
      <point x="544" y="0" type="curve" smooth="yes"/>
      <point x="566" y="0"/>
      <point x="565" y="0"/>
      <point x="593" y="0" type="curve"/>
      <point x="587" y="10"/>
      <point x="580" y="27"/>
      <point x="572" y="45" type="curve"/>
      <point x="438" y="260"/>
      <point x="305" y="475"/>
      <point x="171" y="690" type="curve"/>
      <point x="167" y="698"/>
      <point x="163" y="700"/>
      <point x="155" y="700" type="curve"/>
    </contour>
    <contour>
      <point x="350" y="711" type="move" name="top"/>
    </contour>
    <contour>
      <point x="350" y="-1" type="move" name="bottom"/>
    </contour>
  </outline>
</glyph>
<glyph name="P" format="1">
  <advance width="600"/>
  <unicode hex="0050"/>
  <outline>
    <contour>
      <point x="154" y="0" type="curve"/>
      <point x="154" y="32"/>
      <point x="154" y="65"/>
      <point x="154" y="100" type="curve" smooth="yes"/>
      <point x="154" y="667" type="line" smooth="yes"/>
      <point x="154" y="673"/>
      <point x="149" y="678"/>
      <point x="99" y="678" type="curve"/>
      <point x="99" y="11" type="line" smooth="yes"/>
      <point x="99" y="8"/>
      <point x="100" y="5"/>
      <point x="102" y="3" type="curve" smooth="yes"/>
      <point x="104" y="1"/>
      <point x="107" y="0"/>
      <point x="110" y="0" type="curve" smooth="yes"/>
      <point x="125" y="0"/>
      <point x="139" y="0"/>
    </contour>
    <contour>
      <point x="31" y="700" type="curve"/>
      <point x="31" y="685"/>
      <point x="31" y="674"/>
      <point x="31" y="659" type="curve"/>
      <point x="31" y="656"/>
      <point x="32" y="653"/>
      <point x="34" y="651" type="curve" smooth="yes"/>
      <point x="36" y="649"/>
      <point x="39" y="648"/>
      <point x="42" y="648" type="curve" smooth="yes"/>
      <point x="59" y="648"/>
      <point x="80" y="648"/>
      <point x="106" y="648" type="curve" smooth="yes"/>
      <point x="155" y="648"/>
      <point x="260" y="648"/>
      <point x="310" y="648" type="curve" smooth="yes"/>
      <point x="364" y="648"/>
      <point x="372" y="648"/>
      <point x="399" y="648" type="curve"/>
      <point x="399" y="677"/>
      <point x="379" y="700"/>
      <point x="312" y="700" type="curve" smooth="yes"/>
      <point x="237" y="700"/>
      <point x="128" y="700"/>
    </contour>
    <contour>
      <point x="536" y="449" type="curve" smooth="yes"/>
      <point x="536" y="517" type="line" smooth="yes"/>
      <point x="536" y="669"/>
      <point x="426" y="700"/>
      <point x="312" y="700" type="curve"/>
      <point x="311" y="700"/>
      <point x="293" y="686"/>
      <point x="310" y="648" type="curve"/>
      <point x="426" y="648"/>
      <point x="478" y="609"/>
      <point x="478" y="522" type="curve" smooth="yes"/>
      <point x="478" y="453" type="line" smooth="yes"/>
      <point x="478" y="365"/>
      <point x="423" y="317"/>
      <point x="316" y="317" type="curve" smooth="yes"/>
      <point x="250" y="317"/>
      <point x="197" y="317"/>
      <point x="135" y="317" type="curve"/>
      <point x="135" y="300"/>
      <point x="135" y="292"/>
      <point x="135" y="276" type="curve" smooth="yes"/>
      <point x="135" y="270"/>
      <point x="140" y="265"/>
      <point x="146" y="265" type="curve" smooth="yes"/>
      <point x="319" y="265" type="line" smooth="yes"/>
      <point x="455" y="265"/>
      <point x="536" y="333"/>
    </contour>
  </outline>
</glyph>
<glyph name="Q" format="1">
  <advance width="650"/>
  <unicode hex="0051"/>
  <outline>
    <contour>
      <point x="325" y="720" type="curve" smooth="yes"/>
      <point x="173" y="720"/>
      <point x="74" y="616"/>
      <point x="74" y="454" type="curve" smooth="yes"/>
      <point x="74" y="246" type="line" smooth="yes"/>
      <point x="74" y="76"/>
      <point x="172" y="-20"/>
      <point x="325" y="-20" type="curve" smooth="yes"/>
      <point x="325" y="-20"/>
      <point x="341" y="-10"/>
      <point x="325" y="32" type="curve"/>
      <point x="192" y="32"/>
      <point x="129" y="121"/>
      <point x="129" y="246" type="curve" smooth="yes"/>
      <point x="129" y="454" type="line" smooth="yes"/>
      <point x="129" y="570"/>
      <point x="192" y="668"/>
      <point x="325" y="668" type="curve" smooth="yes"/>
      <point x="362" y="668"/>
      <point x="398" y="668"/>
      <point x="424" y="668" type="curve"/>
      <point x="424" y="698"/>
      <point x="385" y="720"/>
    </contour>
    <contour>
      <point x="325" y="-20" type="curve" smooth="yes"/>
      <point x="477" y="-20"/>
      <point x="576" y="84"/>
      <point x="576" y="246" type="curve" smooth="yes"/>
      <point x="576" y="454" type="line" smooth="yes"/>
      <point x="576" y="624"/>
      <point x="478" y="720"/>
      <point x="325" y="720" type="curve" smooth="yes"/>
      <point x="325" y="720"/>
      <point x="309" y="710"/>
      <point x="325" y="668" type="curve"/>
      <point x="458" y="668"/>
      <point x="521" y="579"/>
      <point x="521" y="454" type="curve" smooth="yes"/>
      <point x="521" y="246" type="line" smooth="yes"/>
      <point x="521" y="130"/>
      <point x="458" y="32"/>
      <point x="325" y="32" type="curve" smooth="yes"/>
      <point x="288" y="32"/>
      <point x="252" y="32"/>
      <point x="226" y="32" type="curve"/>
      <point x="226" y="2"/>
      <point x="265" y="-20"/>
    </contour>
    <contour>
      <point x="445" y="44" type="line"/>
      <point x="405" y="21"/>
      <point x="399" y="16"/>
      <point x="405" y="8" type="curve" smooth="yes"/>
      <point x="484" y="-101" type="line" smooth="yes"/>
      <point x="510" y="-135"/>
      <point x="532" y="-151"/>
      <point x="574" y="-151" type="curve" smooth="yes"/>
      <point x="600" y="-151" type="line" smooth="yes"/>
      <point x="607" y="-151"/>
      <point x="611" y="-147"/>
      <point x="611" y="-140" type="curve" smooth="yes"/>
      <point x="611" y="-125"/>
      <point x="611" y="-110"/>
      <point x="611" y="-95" type="curve"/>
      <point x="601" y="-95" type="line"/>
      <point x="596" y="-95"/>
      <point x="590" y="-95"/>
      <point x="581" y="-95" type="curve" smooth="yes"/>
      <point x="558" y="-95"/>
      <point x="545" y="-89"/>
      <point x="526" y="-65" type="curve" smooth="yes"/>
    </contour>
  </outline>
</glyph>
<glyph name="T" format="1">
  <advance width="600"/>
  <unicode hex="0054"/>
  <outline>
    <contour>
      <point x="59" y="700" type="line"/>
      <point x="59" y="685"/>
      <point x="59" y="673"/>
      <point x="59" y="659" type="curve" smooth="yes"/>
      <point x="59" y="656"/>
      <point x="60" y="653"/>
      <point x="62" y="651" type="curve" smooth="yes"/>
      <point x="64" y="649"/>
      <point x="67" y="648"/>
      <point x="70" y="648" type="curve" smooth="yes"/>
      <point x="541" y="648" type="line"/>
      <point x="541" y="662"/>
      <point x="541" y="674"/>
      <point x="541" y="689" type="curve" smooth="yes"/>
      <point x="541" y="695"/>
      <point x="536" y="700"/>
      <point x="530" y="700" type="curve" smooth="yes"/>
    </contour>
    <contour>
      <point x="328" y="0" type="curve"/>
      <point x="328" y="32"/>
      <point x="328" y="65"/>
      <point x="328" y="100" type="curve" smooth="yes"/>
      <point x="328" y="667" type="line" smooth="yes"/>
      <point x="328" y="673"/>
      <point x="323" y="678"/>
      <point x="272" y="678" type="curve"/>
      <point x="272" y="11" type="line" smooth="yes"/>
      <point x="272" y="8"/>
      <point x="273" y="5"/>
      <point x="275" y="3" type="curve" smooth="yes"/>
      <point x="277" y="1"/>
      <point x="280" y="0"/>
      <point x="283" y="0" type="curve" smooth="yes"/>
      <point x="298" y="0"/>
      <point x="313" y="0"/>
    </contour>
    <contour>
      <point x="300" y="711" type="move" name="top"/>
    </contour>
    <contour>
      <point x="300" y="-1" type="move" name="bottom"/>
    </contour>
  </outline>
</glyph>
<glyph name="U" format="1">
  <advance width="650"/>
  <unicode hex="0055"/>
  <outline>
    <contour>
      <point x="84" y="700" type="curve"/>
      <point x="84" y="667"/>
      <point x="84" y="633"/>
      <point x="84" y="600" type="curve" smooth="yes"/>
      <point x="84" y="169" type="line"/>
      <point x="84" y="154"/>
      <point x="93" y="99"/>
      <point x="140" y="94" type="curve"/>
      <point x="140" y="133"/>
      <point x="140" y="141"/>
      <point x="140" y="179" type="curve"/>
      <point x="140" y="689" type="line"/>
      <point x="140" y="695"/>
      <point x="135" y="700"/>
      <point x="129" y="700" type="curve"/>
      <point x="114" y="700"/>
      <point x="99" y="700"/>
    </contour>
    <contour>
      <point x="270" y="-19" type="curve" smooth="yes"/>
      <point x="372" y="-19"/>
      <point x="448" y="32"/>
      <point x="511" y="113" type="curve" smooth="yes"/>
      <point x="535" y="144"/>
      <point x="540" y="176"/>
      <point x="526" y="202" type="curve"/>
      <point x="435" y="76"/>
      <point x="368" y="33"/>
      <point x="273" y="33" type="curve" smooth="yes"/>
      <point x="184" y="33"/>
      <point x="140" y="81"/>
      <point x="140" y="179" type="curve"/>
      <point x="95" y="177"/>
      <point x="84" y="174"/>
      <point x="84" y="169" type="curve" smooth="yes"/>
      <point x="84" y="56"/>
      <point x="145" y="-19"/>
    </contour>
    <contour>
      <point x="561" y="0" type="curve"/>
      <point x="561" y="33"/>
      <point x="561" y="67"/>
      <point x="561" y="101" type="curve" smooth="yes"/>
      <point x="561" y="689" type="line" smooth="yes"/>
      <point x="561" y="695"/>
      <point x="556" y="700"/>
      <point x="550" y="700" type="curve" smooth="yes"/>
      <point x="535" y="700"/>
      <point x="520" y="700"/>
      <point x="505" y="700" type="curve"/>
      <point x="505" y="11" type="line" smooth="yes"/>
      <point x="505" y="8"/>
      <point x="506" y="5"/>
      <point x="508" y="3" type="curve" smooth="yes"/>
      <point x="510" y="1"/>
      <point x="513" y="0"/>
      <point x="516" y="0" type="curve" smooth="yes"/>
      <point x="531" y="0"/>
      <point x="546" y="0"/>
    </contour>
    <contour>
      <point x="322" y="711" type="move" name="top"/>
    </contour>
    <contour>
      <point x="562" y="0" type="move" name="ogonek"/>
    </contour>
    <contour>
      <point x="322" y="711" type="move" name="ring"/>
    </contour>
    <contour>
      <point x="322" y="-1" type="move" name="bottom"/>
    </contour>
  </outline>
</glyph>
<glyph name="V" format="1">
  <advance width="650"/>
  <unicode hex="0056"/>
  <outline>
    <contour>
      <point x="86" y="700" type="curve"/>
      <point x="34" y="700" type="line"/>
      <point x="113" y="467"/>
      <point x="190" y="234"/>
      <point x="269" y="2" type="curve"/>
      <point x="272" y="-6"/>
      <point x="277" y="-9"/>
      <point x="282" y="-9" type="curve"/>
      <point x="303" y="-9"/>
      <point x="329" y="-6"/>
      <point x="350" y="41" type="curve"/>
      <point x="337" y="41"/>
      <point x="330" y="41"/>
      <point x="323" y="41" type="curve" smooth="yes"/>
      <point x="315" y="41"/>
      <point x="314" y="42"/>
      <point x="309" y="54" type="curve"/>
      <point x="238" y="267"/>
      <point x="166" y="480"/>
      <point x="95" y="693" type="curve"/>
      <point x="93" y="699"/>
      <point x="90" y="700"/>
    </contour>
    <contour>
      <point x="607" y="700" type="curve"/>
      <point x="556" y="700" type="line"/>
      <point x="482" y="477"/>
      <point x="407" y="255"/>
      <point x="333" y="32" type="curve"/>
      <point x="324" y="5"/>
      <point x="298" y="-4"/>
      <point x="282" y="-9" type="curve"/>
      <point x="377" y="-9" type="line"/>
      <point x="456" y="223"/>
      <point x="533" y="456"/>
      <point x="612" y="689" type="curve"/>
      <point x="614" y="696"/>
      <point x="612" y="700"/>
    </contour>
  </outline>
</glyph>
<glyph name="W" format="1">
  <advance width="900"/>
  <unicode hex="0057"/>
  <outline>
    <contour>
      <point x="43" y="700" type="curve"/>
      <point x="101" y="470"/>
      <point x="157" y="239"/>
      <point x="213" y="11" type="curve"/>
      <point x="215" y="3"/>
      <point x="221" y="0"/>
      <point x="227" y="0" type="curve"/>
      <point x="245" y="0" type="line" smooth="yes"/>
      <point x="256" y="0"/>
      <point x="269" y="11"/>
      <point x="267" y="26" type="curve"/>
      <point x="214" y="246"/>
      <point x="161" y="469"/>
      <point x="107" y="690" type="curve"/>
      <point x="106" y="695"/>
      <point x="105" y="697"/>
      <point x="104" y="698" type="curve" smooth="yes"/>
      <point x="103" y="699"/>
      <point x="101" y="700"/>
      <point x="97" y="700" type="curve"/>
      <point x="80" y="700"/>
      <point x="61" y="700"/>
    </contour>
    <contour>
      <point x="795" y="700" type="curve"/>
      <point x="741" y="477"/>
      <point x="687" y="253"/>
      <point x="632" y="30" type="curve"/>
      <point x="629" y="12"/>
      <point x="621" y="5"/>
      <point x="612" y="0" type="curve"/>
      <point x="684" y="0" type="line"/>
      <point x="741" y="229"/>
      <point x="797" y="459"/>
      <point x="854" y="688" type="curve" smooth="yes"/>
      <point x="855" y="693"/>
      <point x="855" y="696"/>
      <point x="853" y="698" type="curve" smooth="yes"/>
      <point x="852" y="699"/>
      <point x="850" y="700"/>
      <point x="846" y="700" type="curve"/>
      <point x="829" y="700"/>
      <point x="812" y="700"/>
    </contour>
    <contour>
      <point x="460" y="601" type="curve"/>
      <point x="419" y="601" type="line"/>
      <point x="363" y="411"/>
      <point x="308" y="220"/>
      <point x="252" y="30" type="curve"/>
      <point x="247" y="11"/>
      <point x="238" y="8"/>
      <point x="227" y="0" type="curve"/>
      <point x="298" y="0" type="line"/>
      <point x="356" y="193"/>
      <point x="412" y="388"/>
      <point x="470" y="581" type="curve" smooth="yes"/>
      <point x="474" y="596"/>
      <point x="470" y="601"/>
    </contour>
    <contour>
      <point x="478" y="601" type="curve"/>
      <point x="429" y="601" type="line"/>
      <point x="486" y="405"/>
      <point x="541" y="208"/>
      <point x="598" y="11" type="curve" smooth="yes"/>
      <point x="600" y="3"/>
      <point x="606" y="0"/>
      <point x="611" y="0" type="curve"/>
      <point x="630" y="0" type="line"/>
      <point x="639" y="0"/>
      <point x="652" y="10"/>
      <point x="648" y="26" type="curve"/>
      <point x="595" y="214"/>
      <point x="541" y="403"/>
      <point x="487" y="591" type="curve" smooth="yes"/>
      <point x="484" y="600"/>
      <point x="482" y="601"/>
    </contour>
    <contour>
      <point x="448" y="711" type="move" name="top"/>
    </contour>
  </outline>
</glyph>
<glyph name="X" format="1">
  <advance width="650"/>
  <unicode hex="0058"/>
  <outline>
    <contour>
      <point x="567" y="0" type="curve" smooth="yes"/>
      <point x="587" y="0"/>
      <point x="606" y="0"/>
      <point x="624" y="0" type="curve"/>
      <point x="534" y="121"/>
      <point x="446" y="244"/>
      <point x="355" y="364" type="curve" smooth="yes"/>
      <point x="350" y="372"/>
      <point x="341" y="377"/>
      <point x="336" y="385" type="curve" smooth="yes"/>
      <point x="260" y="485"/>
      <point x="182" y="591"/>
      <point x="108" y="692" type="curve" smooth="yes"/>
      <point x="103" y="699"/>
      <point x="99" y="700"/>
      <point x="90" y="700" type="curve" smooth="yes"/>
      <point x="33" y="700" type="line"/>
      <point x="120" y="583"/>
      <point x="205" y="467"/>
      <point x="291" y="350" type="curve" smooth="yes"/>
      <point x="298" y="342"/>
      <point x="306" y="336"/>
      <point x="312" y="328" type="curve" smooth="yes"/>
      <point x="390" y="223"/>
      <point x="472" y="113"/>
      <point x="549" y="8" type="curve" smooth="yes"/>
      <point x="554" y="1"/>
      <point x="559" y="0"/>
    </contour>
    <contour>
      <point x="597" y="700" type="curve" smooth="yes"/>
      <point x="547" y="700" type="line"/>
      <point x="466" y="588"/>
      <point x="387" y="478"/>
      <point x="306" y="366" type="curve"/>
      <point x="292" y="347"/>
      <point x="313" y="331"/>
      <point x="346" y="329" type="curve"/>
      <point x="431" y="446"/>
      <point x="517" y="564"/>
      <point x="605" y="686" type="curve"/>
      <point x="609" y="692"/>
      <point x="608" y="695"/>
      <point x="606" y="697" type="curve" smooth="yes"/>
      <point x="604" y="699"/>
      <point x="601" y="700"/>
    </contour>
    <contour>
      <point x="43" y="0" type="curve"/>
      <point x="91" y="0" type="line"/>
      <point x="171" y="112"/>
      <point x="252" y="222"/>
      <point x="332" y="334" type="curve"/>
      <point x="346" y="353"/>
      <point x="325" y="369"/>
      <point x="293" y="371" type="curve"/>
      <point x="208" y="254"/>
      <point x="120" y="134"/>
      <point x="35" y="16" type="curve" smooth="yes"/>
      <point x="31" y="10"/>
      <point x="31" y="6"/>
      <point x="34" y="3" type="curve" smooth="yes"/>
      <point x="36" y="1"/>
      <point x="39" y="0"/>
    </contour>
  </outline>
</glyph>
<glyph name="Y" format="1">
  <advance width="600"/>
  <unicode hex="0059"/>
  <outline>
    <contour>
      <point x="40" y="700" type="line"/>
      <point x="118" y="559"/>
      <point x="196" y="419"/>
      <point x="274" y="279" type="curve"/>
      <point x="277" y="275"/>
      <point x="284" y="274"/>
      <point x="290" y="274" type="curve"/>
      <point x="303" y="274"/>
      <point x="312" y="298"/>
      <point x="312" y="324" type="curve"/>
      <point x="244" y="445"/>
      <point x="176" y="568"/>
      <point x="109" y="690" type="curve"/>
      <point x="106" y="696"/>
      <point x="103" y="700"/>
      <point x="92" y="700" type="curve" smooth="yes"/>
    </contour>
    <contour>
      <point x="500" y="700" type="line"/>
      <point x="430" y="573"/>
      <point x="360" y="448"/>
      <point x="290" y="321" type="curve"/>
      <point x="279" y="299"/>
      <point x="286" y="276"/>
      <point x="290" y="274" type="curve"/>
      <point x="323" y="274" type="line"/>
      <point x="400" y="411"/>
      <point x="478" y="549"/>
      <point x="555" y="687" type="curve"/>
      <point x="558" y="694"/>
      <point x="553" y="700"/>
      <point x="549" y="700" type="curve"/>
    </contour>
    <contour>
      <point x="328" y="0" type="curve"/>
      <point x="328" y="32"/>
      <point x="328" y="65"/>
      <point x="328" y="100" type="curve" smooth="yes"/>
      <point x="328" y="308" type="line" smooth="yes"/>
      <point x="328" y="314"/>
      <point x="323" y="319"/>
      <point x="272" y="319" type="curve"/>
      <point x="272" y="11" type="line" smooth="yes"/>
      <point x="272" y="8"/>
      <point x="273" y="5"/>
      <point x="275" y="3" type="curve" smooth="yes"/>
      <point x="277" y="1"/>
      <point x="280" y="0"/>
      <point x="283" y="0" type="curve" smooth="yes"/>
      <point x="298" y="0"/>
      <point x="313" y="0"/>
    </contour>
    <contour>
      <point x="300" y="711" type="move" name="top"/>
    </contour>
  </outline>
</glyph>
<glyph name="bracketleft" format="1">
  <advance width="400"/>
  <unicode hex="005B"/>
  <outline>
    <contour>
      <point x="63" y="652" type="curve" smooth="yes"/>
      <point x="63" y="-105" type="line" smooth="yes"/>
      <point x="63" y="-115"/>
      <point x="76" y="-116"/>
      <point x="119" y="-116" type="curve"/>
      <point x="119" y="748" type="line" smooth="yes"/>
      <point x="119" y="754"/>
      <point x="111" y="759"/>
      <point x="85" y="759" type="curve" smooth="yes"/>
      <point x="76" y="759"/>
      <point x="71" y="759"/>
      <point x="63" y="759" type="curve"/>
      <point x="63" y="723"/>
      <point x="63" y="688"/>
    </contour>
    <contour>
      <point x="379" y="704" type="line"/>
      <point x="379" y="719"/>
      <point x="379" y="734"/>
      <point x="379" y="748" type="curve" smooth="yes"/>
      <point x="379" y="751"/>
      <point x="377" y="754"/>
      <point x="375" y="756" type="curve" smooth="yes"/>
      <point x="373" y="758"/>
      <point x="371" y="759"/>
      <point x="367" y="759" type="curve" smooth="yes"/>
      <point x="85" y="759" type="line"/>
      <point x="85" y="710"/>
      <point x="91" y="704"/>
      <point x="95" y="704" type="curve"/>
    </contour>
    <contour>
      <point x="379" y="-159" type="line"/>
      <point x="379" y="-144"/>
      <point x="379" y="-131"/>
      <point x="379" y="-115" type="curve" smooth="yes"/>
      <point x="379" y="-109"/>
      <point x="373" y="-104"/>
      <point x="367" y="-104" type="curve" smooth="yes"/>
      <point x="63" y="-104" type="line"/>
      <point x="63" y="-148" type="line" smooth="yes"/>
      <point x="63" y="-154"/>
      <point x="69" y="-159"/>
      <point x="75" y="-159" type="curve" smooth="yes"/>
    </contour>
  </outline>
</glyph>
<glyph name="bracketright" format="1">
  <advance width="400"/>
  <unicode hex="005D"/>
  <outline>
    <contour>
      <point x="337" y="-51" type="curve" smooth="yes"/>
      <point x="337" y="706" type="line" smooth="yes"/>
      <point x="337" y="716"/>
      <point x="324" y="717"/>
      <point x="281" y="717" type="curve"/>
      <point x="281" y="-147" type="line" smooth="yes"/>
      <point x="281" y="-153"/>
      <point x="289" y="-158"/>
      <point x="315" y="-158" type="curve" smooth="yes"/>
      <point x="324" y="-158"/>
      <point x="329" y="-158"/>
      <point x="337" y="-158" type="curve"/>
      <point x="337" y="-122"/>
      <point x="337" y="-87"/>
    </contour>
    <contour>
      <point x="21" y="-103" type="line"/>
      <point x="21" y="-118"/>
      <point x="21" y="-133"/>
      <point x="21" y="-147" type="curve" smooth="yes"/>
      <point x="21" y="-150"/>
      <point x="23" y="-153"/>
      <point x="25" y="-155" type="curve" smooth="yes"/>
      <point x="27" y="-157"/>
      <point x="29" y="-158"/>
      <point x="33" y="-158" type="curve" smooth="yes"/>
      <point x="315" y="-158" type="line"/>
      <point x="315" y="-109"/>
      <point x="309" y="-103"/>
      <point x="305" y="-103" type="curve"/>
    </contour>
    <contour>
      <point x="21" y="760" type="line"/>
      <point x="21" y="745"/>
      <point x="21" y="732"/>
      <point x="21" y="716" type="curve" smooth="yes"/>
      <point x="21" y="710"/>
      <point x="27" y="705"/>
      <point x="33" y="705" type="curve" smooth="yes"/>
      <point x="337" y="705" type="line"/>
      <point x="337" y="749" type="line" smooth="yes"/>
      <point x="337" y="755"/>
      <point x="331" y="760"/>
      <point x="325" y="760" type="curve" smooth="yes"/>
    </contour>
  </outline>
</glyph>
<glyph name="underscore" format="1">
  <advance width="600"/>
  <unicode hex="005F"/>
  <outline>
    <contour>
      <point x="75" y="-97" type="line"/>
      <point x="75" y="-112"/>
      <point x="75" y="-126"/>
      <point x="75" y="-141" type="curve" smooth="yes"/>
      <point x="75" y="-144"/>
      <point x="76" y="-147"/>
      <point x="78" y="-149" type="curve" smooth="yes"/>
      <point x="80" y="-151"/>
      <point x="83" y="-152"/>
      <point x="86" y="-152" type="curve"/>
      <point x="525" y="-152" type="line"/>
      <point x="525" y="-137"/>
      <point x="525" y="-123"/>
      <point x="525" y="-108" type="curve" smooth="yes"/>
      <point x="525" y="-102"/>
      <point x="520" y="-97"/>
      <point x="514" y="-97" type="curve"/>
    </contour>
  </outline>
</glyph>
<glyph name="grave" format="1">
  <advance width="364"/>
  <unicode hex="0060"/>
  <outline>
    <contour>
      <point x="272" y="417" type="curve"/>
      <point x="248" y="518"/>
      <point x="224" y="619"/>
      <point x="200" y="720" type="curve"/>
      <point x="157" y="720"/>
      <point x="136" y="720"/>
      <point x="99" y="720" type="curve" smooth="yes"/>
      <point x="91" y="720"/>
      <point x="88" y="715"/>
      <point x="91" y="707" type="curve" smooth="yes"/>
      <point x="131" y="614"/>
      <point x="173" y="518"/>
      <point x="213" y="425" type="curve" smooth="yes"/>
      <point x="216" y="418"/>
      <point x="219" y="417"/>
      <point x="224" y="417" type="curve" smooth="yes"/>
      <point x="245" y="417"/>
      <point x="259" y="417"/>
    </contour>
  </outline>
</glyph>
<glyph name="b" format="1">
  <advance width="600"/>
  <unicode hex="0062"/>
  <outline>
    <contour>
      <point x="108" y="0" type="line"/>
      <point x="120" y="0"/>
      <point x="130" y="0"/>
      <point x="142" y="0" type="curve" smooth="yes"/>
      <point x="153" y="0"/>
      <point x="164" y="55"/>
      <point x="164" y="88" type="curve" smooth="yes"/>
      <point x="164" y="739" type="line"/>
      <point x="164" y="745"/>
      <point x="159" y="750"/>
      <point x="153" y="750" type="curve" smooth="yes"/>
      <point x="138" y="750"/>
      <point x="123" y="750"/>
      <point x="108" y="750" type="curve"/>
      <point x="108" y="717"/>
      <point x="108" y="682"/>
      <point x="108" y="646" type="curve" smooth="yes"/>
    </contour>
    <contour>
      <point x="348" y="537" type="curve" smooth="yes"/>
      <point x="278" y="537"/>
      <point x="215" y="509"/>
      <point x="159" y="453" type="curve" smooth="yes"/>
      <point x="142" y="436"/>
      <point x="137" y="411"/>
      <point x="141" y="375" type="curve"/>
      <point x="216" y="454"/>
      <point x="271" y="484"/>
      <point x="343" y="484" type="curve" smooth="yes"/>
      <point x="423" y="484"/>
      <point x="470" y="428"/>
      <point x="470" y="332" type="curve"/>
      <point x="501" y="331"/>
      <point x="526" y="335"/>
      <point x="526" y="342" type="curve" smooth="yes"/>
      <point x="526" y="460"/>
      <point x="456" y="537"/>
    </contour>
    <contour>
      <point x="335" y="-10" type="curve" smooth="yes"/>
      <point x="454" y="-10"/>
      <point x="526" y="64"/>
      <point x="526" y="206" type="curve" smooth="yes"/>
      <point x="526" y="342" type="line" smooth="yes"/>
      <point x="526" y="390"/>
      <point x="493" y="459"/>
      <point x="468" y="459" type="curve"/>
      <point x="458" y="459"/>
      <point x="452" y="458"/>
      <point x="450" y="452" type="curve"/>
      <point x="465" y="419"/>
      <point x="470" y="387"/>
      <point x="470" y="332" type="curve" smooth="yes"/>
      <point x="470" y="215" type="line" smooth="yes"/>
      <point x="470" y="95"/>
      <point x="425" y="42"/>
      <point x="336" y="42" type="curve" smooth="yes"/>
      <point x="260" y="42"/>
      <point x="211" y="78"/>
      <point x="154" y="152" type="curve"/>
      <point x="148" y="151"/>
      <point x="136" y="114"/>
      <point x="145" y="100" type="curve" smooth="yes"/>
      <point x="183" y="34"/>
      <point x="246" y="-10"/>
    </contour>
  </outline>
</glyph>
<glyph name="c" format="1">
  <advance width="500"/>
  <unicode hex="0063"/>
  <outline>
    <contour>
      <point x="299" y="537" type="curve" smooth="yes"/>
      <point x="173" y="537"/>
      <point x="74" y="465"/>
      <point x="74" y="310" type="curve" smooth="yes"/>
      <point x="74" y="206" type="line" smooth="yes"/>
      <point x="74" y="65"/>
      <point x="154" y="-10"/>
      <point x="298" y="-10" type="curve" smooth="yes"/>
      <point x="308" y="-10"/>
      <point x="314" y="1"/>
      <point x="299" y="42" type="curve"/>
      <point x="189" y="42"/>
      <point x="130" y="99"/>
      <point x="130" y="207" type="curve" smooth="yes"/>
      <point x="130" y="305" type="line" smooth="yes"/>
      <point x="130" y="422"/>
      <point x="186" y="485"/>
      <point x="299" y="485" type="curve" smooth="yes"/>
      <point x="365" y="485"/>
      <point x="405" y="462"/>
      <point x="431" y="445" type="curve"/>
      <point x="443" y="445" type="line"/>
      <point x="443" y="457"/>
      <point x="443" y="470"/>
      <point x="443" y="483" type="curve"/>
      <point x="443" y="489"/>
      <point x="443" y="491"/>
      <point x="438" y="496" type="curve" smooth="yes"/>
      <point x="425" y="510"/>
      <point x="377" y="537"/>
    </contour>
    <contour>
      <point x="298" y="-10" type="curve" smooth="yes"/>
      <point x="383" y="-10"/>
      <point x="424" y="12"/>
      <point x="440" y="29" type="curve" smooth="yes"/>
      <point x="442" y="31"/>
      <point x="443" y="34"/>
      <point x="443" y="37" type="curve"/>
      <point x="443" y="51"/>
      <point x="443" y="64"/>
      <point x="443" y="77" type="curve"/>
      <point x="431" y="77" type="line"/>
      <point x="404" y="58"/>
      <point x="366" y="42"/>
      <point x="299" y="42" type="curve" smooth="yes"/>
      <point x="207" y="42"/>
      <point x="166" y="67"/>
      <point x="118" y="130" type="curve"/>
      <point x="97" y="67"/>
      <point x="182" y="-10"/>
    </contour>
    <contour>
      <point x="279" y="538" type="move" name="top"/>
    </contour>
    <contour>
      <point x="279" y="-1" type="move" name="bottom"/>
    </contour>
  </outline>
</glyph>
<glyph name="f" format="1">
  <advance width="400"/>
  <unicode hex="0066"/>
  <outline>
    <contour>
      <point x="174" y="0" type="curve"/>
      <point x="174" y="33"/>
      <point x="174" y="66"/>
      <point x="174" y="100" type="curve" smooth="yes"/>
      <point x="174" y="531" type="line" smooth="yes"/>
      <point x="174" y="543"/>
      <point x="174" y="555"/>
      <point x="174" y="566" type="curve" smooth="yes"/>
      <point x="174" y="658"/>
      <point x="200" y="709"/>
      <point x="281" y="709" type="curve"/>
      <point x="289" y="752"/>
      <point x="288" y="761"/>
      <point x="279" y="761" type="curve" smooth="yes"/>
      <point x="189" y="761"/>
      <point x="118" y="704"/>
      <point x="118" y="581" type="curve" smooth="yes"/>
      <point x="118" y="11" type="line" smooth="yes"/>
      <point x="118" y="5"/>
      <point x="123" y="0"/>
      <point x="129" y="0" type="curve" smooth="yes"/>
      <point x="144" y="0"/>
      <point x="159" y="0"/>
    </contour>
    <contour>
      <point x="184" y="674" type="curve"/>
      <point x="216" y="698"/>
      <point x="240" y="709"/>
      <point x="281" y="709" type="curve" smooth="yes"/>
      <point x="319" y="709"/>
      <point x="351" y="699"/>
      <point x="378" y="685" type="curve"/>
      <point x="390" y="685" type="line"/>
      <point x="390" y="698"/>
      <point x="390" y="712"/>
      <point x="390" y="726" type="curve"/>
      <point x="390" y="730"/>
      <point x="389" y="732"/>
      <point x="387" y="734" type="curve" smooth="yes"/>
      <point x="377" y="744"/>
      <point x="333" y="761"/>
      <point x="279" y="761" type="curve" smooth="yes"/>
      <point x="226" y="761"/>
      <point x="163" y="707"/>
    </contour>
    <contour>
      <point x="39" y="527" type="curve"/>
      <point x="39" y="512"/>
      <point x="39" y="500"/>
      <point x="39" y="486" type="curve" smooth="yes"/>
      <point x="39" y="483"/>
      <point x="40" y="480"/>
      <point x="42" y="478" type="curve" smooth="yes"/>
      <point x="44" y="476"/>
      <point x="47" y="475"/>
      <point x="50" y="475" type="curve" smooth="yes"/>
      <point x="116" y="475"/>
      <point x="262" y="475"/>
      <point x="341" y="475" type="curve"/>
      <point x="341" y="489"/>
      <point x="341" y="501"/>
      <point x="341" y="516" type="curve" smooth="yes"/>
      <point x="341" y="522"/>
      <point x="336" y="527"/>
      <point x="330" y="527" type="curve" smooth="yes"/>
      <point x="272" y="527"/>
      <point x="98" y="527"/>
    </contour>
  </outline>
</glyph>
<glyph name="g" format="1">
  <advance width="600"/>
  <unicode hex="0067"/>
  <outline>
    <contour>
      <point x="294" y="481" type="curve" smooth="yes"/>
      <point x="383" y="481"/>
      <point x="502" y="481"/>
      <point x="559" y="481" type="curve" smooth="yes"/>
      <point x="565" y="481"/>
      <point x="570" y="486"/>
      <point x="570" y="492" type="curve" smooth="yes"/>
      <point x="570" y="505"/>
      <point x="570" y="519"/>
      <point x="570" y="532" type="curve"/>
      <point x="479" y="532"/>
      <point x="386" y="532"/>
      <point x="295" y="532" type="curve" smooth="yes"/>
      <point x="176" y="532"/>
      <point x="84" y="469"/>
      <point x="84" y="371" type="curve" smooth="yes"/>
      <point x="84" y="331" type="line" smooth="yes"/>
      <point x="84" y="236"/>
      <point x="165" y="174"/>
      <point x="285" y="172" type="curve"/>
      <point x="295" y="172"/>
      <point x="297" y="187"/>
      <point x="285" y="223" type="curve"/>
      <point x="200" y="223"/>
      <point x="139" y="261"/>
      <point x="139" y="328" type="curve" smooth="yes"/>
      <point x="139" y="367" type="line" smooth="yes"/>
      <point x="139" y="441"/>
      <point x="202" y="481"/>
    </contour>
    <contour>
      <point x="285" y="223" type="curve" smooth="yes"/>
      <point x="224" y="223"/>
      <point x="175" y="240"/>
      <point x="137" y="271" type="curve"/>
      <point x="116" y="220"/>
      <point x="208" y="172"/>
      <point x="285" y="172" type="curve" smooth="yes"/>
      <point x="403" y="172"/>
      <point x="495" y="235"/>
      <point x="495" y="331" type="curve" smooth="yes"/>
      <point x="495" y="366" type="line" smooth="yes"/>
      <point x="495" y="422"/>
      <point x="449" y="488"/>
      <point x="379" y="488" type="curve" smooth="yes"/>
      <point x="371" y="488"/>
      <point x="363" y="487"/>
      <point x="349" y="487" type="curve"/>
      <point x="416" y="445"/>
      <point x="440" y="399"/>
      <point x="440" y="360" type="curve" smooth="yes"/>
      <point x="440" y="336" type="line" smooth="yes"/>
      <point x="440" y="264"/>
      <point x="377" y="223"/>
    </contour>
    <contour>
      <point x="167" y="93" type="curve" smooth="yes"/>
      <point x="167" y="86" type="line" smooth="yes"/>
      <point x="167" y="31"/>
      <point x="204" y="-1"/>
      <point x="262" y="-1" type="curve" smooth="yes"/>
      <point x="377" y="-1" type="line" smooth="yes"/>
      <point x="466" y="-1"/>
      <point x="505" y="-33"/>
      <point x="505" y="-81" type="curve" smooth="yes"/>
      <point x="505" y="-103" type="line" smooth="yes"/>
      <point x="505" y="-131"/>
      <point x="484" y="-200"/>
      <point x="371" y="-200" type="curve"/>
      <point x="349" y="-236"/>
      <point x="347" y="-250"/>
      <point x="365" y="-250" type="curve" smooth="yes"/>
      <point x="500" y="-250"/>
      <point x="561" y="-178"/>
      <point x="561" y="-97" type="curve" smooth="yes"/>
      <point x="561" y="-80" type="line" smooth="yes"/>
      <point x="561" y="0"/>
      <point x="506" y="53"/>
      <point x="382" y="53" type="curve" smooth="yes"/>
      <point x="263" y="53" type="line" smooth="yes"/>
      <point x="234" y="53"/>
      <point x="222" y="65"/>
      <point x="222" y="92" type="curve" smooth="yes"/>
      <point x="222" y="98" type="line" smooth="yes"/>
      <point x="222" y="125"/>
      <point x="238" y="166"/>
      <point x="256" y="182" type="curve"/>
      <point x="256" y="189"/>
      <point x="249" y="192"/>
      <point x="229" y="192" type="curve" smooth="yes"/>
      <point x="202" y="192"/>
      <point x="167" y="135"/>
    </contour>
    <contour>
      <point x="507" y="-163" type="curve"/>
      <point x="455" y="-196"/>
      <point x="430" y="-200"/>
      <point x="371" y="-200" type="curve" smooth="yes"/>
      <point x="263" y="-200" type="line" smooth="yes"/>
      <point x="167" y="-200"/>
      <point x="114" y="-168"/>
      <point x="114" y="-106" type="curve" smooth="yes"/>
      <point x="114" y="-86" type="line" smooth="yes"/>
      <point x="114" y="-42"/>
      <point x="134" y="-5"/>
      <point x="217" y="19" type="curve"/>
      <point x="212" y="37"/>
      <point x="204" y="53"/>
      <point x="190" y="51" type="curve" smooth="yes"/>
      <point x="104" y="36"/>
      <point x="59" y="-20"/>
      <point x="59" y="-92" type="curve" smooth="yes"/>
      <point x="59" y="-113" type="line" smooth="yes"/>
      <point x="59" y="-193"/>
      <point x="126" y="-250"/>
      <point x="248" y="-250" type="curve" smooth="yes"/>
      <point x="365" y="-250" type="line" smooth="yes"/>
      <point x="423" y="-250"/>
      <point x="518" y="-216"/>
    </contour>
  </outline>
</glyph>
<glyph name="h" format="1">
  <advance width="600"/>
  <unicode hex="0068"/>
  <outline>
    <contour>
      <point x="164" y="0" type="curve"/>
      <point x="164" y="739" type="line" smooth="yes"/>
      <point x="164" y="742"/>
      <point x="163" y="745"/>
      <point x="161" y="747" type="curve" smooth="yes"/>
      <point x="159" y="749"/>
      <point x="156" y="750"/>
      <point x="153" y="750" type="curve" smooth="yes"/>
      <point x="138" y="750"/>
      <point x="123" y="750"/>
      <point x="108" y="750" type="curve"/>
      <point x="108" y="733"/>
      <point x="108" y="697"/>
      <point x="108" y="650" type="curve" smooth="yes"/>
      <point x="108" y="11" type="line" smooth="yes"/>
      <point x="108" y="5"/>
      <point x="113" y="0"/>
      <point x="119" y="0" type="curve" smooth="yes"/>
      <point x="134" y="0"/>
      <point x="149" y="0"/>
    </contour>
    <contour>
      <point x="357" y="537" type="curve" smooth="yes"/>
      <point x="277" y="537"/>
      <point x="221" y="497"/>
      <point x="163" y="438" type="curve" smooth="yes"/>
      <point x="143" y="418"/>
      <point x="137" y="389"/>
      <point x="141" y="352" type="curve"/>
      <point x="225" y="446"/>
      <point x="283" y="484"/>
      <point x="352" y="484" type="curve" smooth="yes"/>
      <point x="406" y="484"/>
      <point x="441" y="447"/>
      <point x="441" y="368" type="curve"/>
      <point x="488" y="370"/>
      <point x="497" y="382"/>
      <point x="497" y="393" type="curve" smooth="yes"/>
      <point x="497" y="470"/>
      <point x="443" y="537"/>
    </contour>
    <contour>
      <point x="497" y="0" type="curve"/>
      <point x="497" y="36"/>
      <point x="497" y="68"/>
      <point x="497" y="98" type="curve" smooth="yes"/>
      <point x="497" y="393" type="line"/>
      <point x="497" y="420"/>
      <point x="476" y="455"/>
      <point x="430" y="453" type="curve"/>
      <point x="439" y="427"/>
      <point x="441" y="415"/>
      <point x="441" y="368" type="curve" smooth="yes"/>
      <point x="441" y="11" type="line" smooth="yes"/>
      <point x="441" y="5"/>
      <point x="446" y="0"/>
      <point x="452" y="0" type="curve" smooth="yes"/>
      <point x="467" y="0"/>
      <point x="482" y="0"/>
    </contour>
    <contour>
      <point x="142" y="730" type="move" name="top"/>
    </contour>
  </outline>
</glyph>
<glyph name="i" format="1">
  <advance width="350"/>
  <unicode hex="0069"/>
  <outline>
    <contour>
      <point x="49" y="527" type="curve"/>
      <point x="49" y="512"/>
      <point x="49" y="500"/>
      <point x="49" y="486" type="curve" smooth="yes"/>
      <point x="49" y="480"/>
      <point x="54" y="475"/>
      <point x="60" y="475" type="curve" smooth="yes"/>
      <point x="104" y="475"/>
      <point x="173" y="475"/>
      <point x="200" y="475" type="curve"/>
      <point x="200" y="514"/>
      <point x="195" y="527"/>
      <point x="189" y="527" type="curve" smooth="yes"/>
      <point x="134" y="527"/>
      <point x="104" y="527"/>
    </contour>
    <contour>
      <point x="222" y="0" type="curve"/>
      <point x="222" y="38"/>
      <point x="222" y="75"/>
      <point x="222" y="113" type="curve" smooth="yes"/>
      <point x="222" y="516" type="line" smooth="yes"/>
      <point x="222" y="522"/>
      <point x="217" y="527"/>
      <point x="211" y="527" type="curve" smooth="yes"/>
      <point x="167" y="527" type="line"/>
      <point x="167" y="11" type="line" smooth="yes"/>
      <point x="167" y="5"/>
      <point x="172" y="0"/>
      <point x="178" y="0" type="curve" smooth="yes"/>
      <point x="193" y="0"/>
      <point x="207" y="0"/>
    </contour>
    <contour>
      <point x="237" y="675" type="curve"/>
      <point x="237" y="747" type="line" smooth="yes"/>
      <point x="237" y="753"/>
      <point x="232" y="758"/>
      <point x="226" y="758" type="curve" smooth="yes"/>
      <point x="201" y="758"/>
      <point x="176" y="758"/>
      <point x="151" y="758" type="curve"/>
      <point x="151" y="686" type="line" smooth="yes"/>
      <point x="151" y="680"/>
      <point x="156" y="675"/>
      <point x="162" y="675" type="curve" smooth="yes"/>
      <point x="187" y="675"/>
      <point x="212" y="675"/>
    </contour>
    <contour>
      <point x="222" y="-1" type="move" name="ogonek"/>
    </contour>
    <contour>
      <point x="197" y="-1" type="move" name="bottom"/>
    </contour>
  </outline>
</glyph>
<glyph name="j" format="1">
  <advance width="350"/>
  <unicode hex="006A"/>
  <outline>
    <contour>
      <point x="50" y="527" type="curve"/>
      <point x="50" y="512"/>
      <point x="50" y="500"/>
      <point x="50" y="486" type="curve" smooth="yes"/>
      <point x="50" y="480"/>
      <point x="55" y="475"/>
      <point x="61" y="475" type="curve" smooth="yes"/>
      <point x="107" y="475"/>
      <point x="161" y="475"/>
      <point x="208" y="475" type="curve"/>
      <point x="208" y="508"/>
      <point x="202" y="527"/>
      <point x="193" y="527" type="curve" smooth="yes"/>
      <point x="148" y="527"/>
      <point x="95" y="527"/>
    </contour>
    <contour>
      <point x="247" y="-97" type="curve" smooth="yes"/>
      <point x="247" y="516" type="line" smooth="yes"/>
      <point x="247" y="519"/>
      <point x="246" y="522"/>
      <point x="244" y="524" type="curve" smooth="yes"/>
      <point x="242" y="526"/>
      <point x="240" y="527"/>
      <point x="236" y="527" type="curve" smooth="yes"/>
      <point x="191" y="527" type="line"/>
      <point x="191" y="-97" type="line" smooth="yes"/>
      <point x="191" y="-160"/>
      <point x="183" y="-176"/>
      <point x="139" y="-214" type="curve"/>
      <point x="182" y="-226"/>
      <point x="247" y="-177"/>
    </contour>
    <contour>
      <point x="106" y="-198" type="curve" smooth="yes"/>
      <point x="70" y="-198"/>
      <point x="50" y="-192"/>
      <point x="22" y="-177" type="curve"/>
      <point x="9" y="-177" type="line"/>
      <point x="9" y="-192"/>
      <point x="9" y="-203"/>
      <point x="9" y="-218" type="curve" smooth="yes"/>
      <point x="9" y="-222"/>
      <point x="10" y="-224"/>
      <point x="12" y="-226" type="curve" smooth="yes"/>
      <point x="22" y="-236"/>
      <point x="58" y="-250"/>
      <point x="104" y="-250" type="curve" smooth="yes"/>
      <point x="201" y="-250"/>
      <point x="247" y="-190"/>
      <point x="247" y="-97" type="curve" smooth="yes"/>
      <point x="247" y="-96"/>
      <point x="239" y="-86"/>
      <point x="191" y="-97" type="curve"/>
      <point x="191" y="-168"/>
      <point x="161" y="-198"/>
    </contour>
    <contour>
      <point x="262" y="675" type="curve"/>
      <point x="262" y="747" type="line" smooth="yes"/>
      <point x="262" y="753"/>
      <point x="257" y="758"/>
      <point x="251" y="758" type="curve" smooth="yes"/>
      <point x="226" y="758"/>
      <point x="201" y="758"/>
      <point x="176" y="758" type="curve"/>
      <point x="176" y="686" type="line" smooth="yes"/>
      <point x="176" y="680"/>
      <point x="181" y="675"/>
      <point x="187" y="675" type="curve" smooth="yes"/>
      <point x="212" y="675"/>
      <point x="237" y="675"/>
    </contour>
  </outline>
</glyph>
<glyph name="k" format="1">
  <advance width="600"/>
  <unicode hex="006B"/>
  <outline>
    <contour>
      <point x="163" y="0" type="curve"/>
      <point x="163" y="739" type="line" smooth="yes"/>
      <point x="163" y="742"/>
      <point x="162" y="745"/>
      <point x="160" y="747" type="curve" smooth="yes"/>
      <point x="158" y="749"/>
      <point x="155" y="750"/>
      <point x="152" y="750" type="curve" smooth="yes"/>
      <point x="138" y="750"/>
      <point x="123" y="750"/>
      <point x="108" y="750" type="curve"/>
      <point x="108" y="733"/>
      <point x="108" y="697"/>
      <point x="108" y="650" type="curve" smooth="yes"/>
      <point x="108" y="11" type="line" smooth="yes"/>
      <point x="108" y="5"/>
      <point x="113" y="0"/>
      <point x="119" y="0" type="curve" smooth="yes"/>
      <point x="134" y="0"/>
      <point x="148" y="0"/>
    </contour>
    <contour>
      <point x="459" y="527" type="line"/>
      <point x="344" y="421"/>
      <point x="229" y="316"/>
      <point x="115" y="211" type="curve"/>
      <point x="117" y="176"/>
      <point x="133" y="160"/>
      <point x="148" y="174" type="curve" smooth="yes"/>
      <point x="267" y="281"/>
      <point x="385" y="386"/>
      <point x="517" y="507" type="curve" smooth="yes"/>
      <point x="525" y="514"/>
      <point x="526" y="517"/>
      <point x="526" y="519" type="curve" smooth="yes"/>
      <point x="526" y="523"/>
      <point x="523" y="527"/>
      <point x="518" y="527" type="curve"/>
    </contour>
    <contour>
      <point x="487" y="0" type="curve" smooth="yes"/>
      <point x="510" y="0"/>
      <point x="523" y="0"/>
      <point x="548" y="0" type="curve"/>
      <point x="452" y="111"/>
      <point x="362" y="215"/>
      <point x="269" y="322" type="curve"/>
      <point x="238" y="287"/>
      <point x="236" y="281"/>
      <point x="244" y="269" type="curve" smooth="yes"/>
      <point x="263" y="245"/>
      <point x="449" y="29"/>
      <point x="466" y="9" type="curve" smooth="yes"/>
      <point x="471" y="3"/>
      <point x="477" y="0"/>
    </contour>
    <contour>
      <point x="328" y="-1" type="move" name="bottom"/>
    </contour>
  </outline>
</glyph>
<glyph name="m" format="1">
  <advance width="850"/>
  <unicode hex="006D"/>
  <outline>
    <contour>
      <point x="164" y="0" type="curve"/>
      <point x="164" y="516" type="line" smooth="yes"/>
      <point x="164" y="519"/>
      <point x="163" y="522"/>
      <point x="161" y="524" type="curve" smooth="yes"/>
      <point x="159" y="526"/>
      <point x="156" y="527"/>
      <point x="153" y="527" type="curve" smooth="yes"/>
      <point x="138" y="527"/>
      <point x="123" y="527"/>
      <point x="108" y="527" type="curve"/>
      <point x="108" y="510"/>
      <point x="108" y="474"/>
      <point x="108" y="427" type="curve" smooth="yes"/>
      <point x="108" y="11" type="line" smooth="yes"/>
      <point x="108" y="5"/>
      <point x="113" y="0"/>
      <point x="119" y="0" type="curve" smooth="yes"/>
      <point x="134" y="0"/>
      <point x="149" y="0"/>
    </contour>
    <contour>
      <point x="328" y="537" type="curve" smooth="yes"/>
      <point x="259" y="537"/>
      <point x="207" y="491"/>
      <point x="161" y="438" type="curve" smooth="yes"/>
      <point x="143" y="419"/>
      <point x="139" y="392"/>
      <point x="142" y="353" type="curve"/>
      <point x="216" y="450"/>
      <point x="264" y="484"/>
      <point x="323" y="484" type="curve" smooth="yes"/>
      <point x="365" y="484"/>
      <point x="397" y="455"/>
      <point x="397" y="399" type="curve"/>
      <point x="440" y="401"/>
      <point x="453" y="403"/>
      <point x="453" y="408" type="curve" smooth="yes"/>
      <point x="453" y="480"/>
      <point x="405" y="537"/>
    </contour>
    <contour>
      <point x="453" y="0" type="curve"/>
      <point x="453" y="408" type="line"/>
      <point x="453" y="431"/>
      <point x="440" y="455"/>
      <point x="397" y="455" type="curve"/>
      <point x="397" y="437"/>
      <point x="397" y="417"/>
      <point x="397" y="399" type="curve" smooth="yes"/>
      <point x="397" y="11" type="line" smooth="yes"/>
      <point x="397" y="5"/>
      <point x="402" y="0"/>
      <point x="408" y="0" type="curve" smooth="yes"/>
      <point x="423" y="0"/>
      <point x="438" y="0"/>
    </contour>
    <contour>
      <point x="612" y="537" type="curve" smooth="yes"/>
      <point x="543" y="537"/>
      <point x="491" y="500"/>
      <point x="445" y="448" type="curve" smooth="yes"/>
      <point x="427" y="428"/>
      <point x="423" y="400"/>
      <point x="426" y="362" type="curve"/>
      <point x="499" y="452"/>
      <point x="551" y="484"/>
      <point x="607" y="484" type="curve" smooth="yes"/>
      <point x="652" y="484"/>
      <point x="686" y="455"/>
      <point x="686" y="399" type="curve"/>
      <point x="729" y="401"/>
      <point x="742" y="403"/>
      <point x="742" y="408" type="curve" smooth="yes"/>
      <point x="742" y="481"/>
      <point x="691" y="537"/>
    </contour>
    <contour>
      <point x="742" y="0" type="curve"/>
      <point x="742" y="36"/>
      <point x="742" y="68"/>
      <point x="742" y="98" type="curve" smooth="yes"/>
      <point x="742" y="408" type="line"/>
      <point x="742" y="431"/>
      <point x="729" y="455"/>
      <point x="686" y="455" type="curve"/>
      <point x="686" y="436"/>
      <point x="686" y="418"/>
      <point x="686" y="399" type="curve" smooth="yes"/>
      <point x="686" y="11" type="line" smooth="yes"/>
      <point x="686" y="5"/>
      <point x="691" y="0"/>
      <point x="697" y="0" type="curve" smooth="yes"/>
      <point x="712" y="0"/>
      <point x="727" y="0"/>
    </contour>
  </outline>
</glyph>
<glyph name="n" format="1">
  <advance width="600"/>
  <unicode hex="006E"/>
  <outline>
    <contour>
      <point x="164" y="0" type="curve"/>
      <point x="164" y="516" type="line" smooth="yes"/>
      <point x="164" y="519"/>
      <point x="163" y="522"/>
      <point x="161" y="524" type="curve" smooth="yes"/>
      <point x="159" y="526"/>
      <point x="156" y="527"/>
      <point x="153" y="527" type="curve" smooth="yes"/>
      <point x="138" y="527"/>
      <point x="123" y="527"/>
      <point x="108" y="527" type="curve"/>
      <point x="108" y="510"/>
      <point x="108" y="474"/>
      <point x="108" y="427" type="curve" smooth="yes"/>
      <point x="108" y="11" type="line" smooth="yes"/>
      <point x="108" y="5"/>
      <point x="113" y="0"/>
      <point x="119" y="0" type="curve" smooth="yes"/>
      <point x="134" y="0"/>
      <point x="149" y="0"/>
    </contour>
    <contour>
      <point x="357" y="537" type="curve" smooth="yes"/>
      <point x="277" y="537"/>
      <point x="221" y="497"/>
      <point x="163" y="438" type="curve" smooth="yes"/>
      <point x="143" y="418"/>
      <point x="137" y="389"/>
      <point x="141" y="352" type="curve"/>
      <point x="225" y="446"/>
      <point x="283" y="484"/>
      <point x="350" y="484" type="curve" smooth="yes"/>
      <point x="404" y="484"/>
      <point x="441" y="447"/>
      <point x="441" y="376" type="curve"/>
      <point x="492" y="377"/>
      <point x="497" y="386"/>
      <point x="497" y="393" type="curve" smooth="yes"/>
      <point x="497" y="472"/>
      <point x="445" y="537"/>
    </contour>
    <contour>
      <point x="497" y="0" type="curve"/>
      <point x="497" y="36"/>
      <point x="497" y="68"/>
      <point x="497" y="98" type="curve" smooth="yes"/>
      <point x="497" y="393" type="line"/>
      <point x="497" y="420"/>
      <point x="476" y="455"/>
      <point x="430" y="453" type="curve"/>
      <point x="438" y="429"/>
      <point x="441" y="419"/>
      <point x="441" y="376" type="curve" smooth="yes"/>
      <point x="441" y="11" type="line" smooth="yes"/>
      <point x="441" y="5"/>
      <point x="446" y="0"/>
      <point x="452" y="0" type="curve" smooth="yes"/>
      <point x="467" y="0"/>
      <point x="482" y="0"/>
    </contour>
    <contour>
      <point x="69" y="709" type="move" name="caronslovak"/>
    </contour>
    <contour>
      <point x="300" y="538" type="move" name="top"/>
    </contour>
    <contour>
      <point x="302" y="-1" type="move" name="bottom"/>
    </contour>
  </outline>
</glyph>
<glyph name="p" format="1">
  <advance width="600"/>
  <unicode hex="0070"/>
  <outline>
    <contour>
      <point x="164" y="-219" type="curve"/>
      <point x="164" y="516" type="line" smooth="yes"/>
      <point x="164" y="519"/>
      <point x="163" y="522"/>
      <point x="161" y="524" type="curve" smooth="yes"/>
      <point x="159" y="526"/>
      <point x="156" y="527"/>
      <point x="153" y="527" type="curve"/>
      <point x="138" y="527"/>
      <point x="123" y="527"/>
      <point x="108" y="527" type="curve"/>
      <point x="108" y="492"/>
      <point x="108" y="458"/>
      <point x="108" y="427" type="curve" smooth="yes"/>
      <point x="108" y="-208" type="line" smooth="yes"/>
      <point x="108" y="-214"/>
      <point x="113" y="-219"/>
      <point x="119" y="-219" type="curve"/>
      <point x="134" y="-219"/>
      <point x="149" y="-219"/>
    </contour>
    <contour>
      <point x="347" y="537" type="curve" smooth="yes"/>
      <point x="281" y="537"/>
      <point x="220" y="509"/>
      <point x="164" y="452" type="curve" smooth="yes"/>
      <point x="146" y="434"/>
      <point x="138" y="407"/>
      <point x="142" y="375" type="curve"/>
      <point x="220" y="456"/>
      <point x="272" y="484"/>
      <point x="342" y="484" type="curve" smooth="yes"/>
      <point x="425" y="484"/>
      <point x="470" y="423"/>
      <point x="470" y="311" type="curve"/>
      <point x="497" y="314"/>
      <point x="526" y="313"/>
      <point x="526" y="331" type="curve" smooth="yes"/>
      <point x="526" y="455"/>
      <point x="460" y="537"/>
    </contour>
    <contour>
      <point x="326" y="-10" type="curve" smooth="yes"/>
      <point x="453" y="-10"/>
      <point x="526" y="71"/>
      <point x="526" y="213" type="curve" smooth="yes"/>
      <point x="526" y="331" type="line" smooth="yes"/>
      <point x="526" y="381"/>
      <point x="489" y="459"/>
      <point x="463" y="459" type="curve" smooth="yes"/>
      <point x="451" y="459"/>
      <point x="447" y="458"/>
      <point x="445" y="452" type="curve"/>
      <point x="462" y="411"/>
      <point x="470" y="365"/>
      <point x="470" y="311" type="curve" smooth="yes"/>
      <point x="470" y="222" type="line" smooth="yes"/>
      <point x="470" y="99"/>
      <point x="423" y="42"/>
      <point x="321" y="42" type="curve" smooth="yes"/>
      <point x="254" y="42"/>
      <point x="214" y="62"/>
      <point x="155" y="127" type="curve"/>
      <point x="144" y="123"/>
      <point x="136" y="104"/>
      <point x="142" y="91" type="curve" smooth="yes"/>
      <point x="172" y="29"/>
      <point x="242" y="-10"/>
    </contour>
  </outline>
</glyph>
<glyph name="q" format="1">
  <advance width="600"/>
  <unicode hex="0071"/>
  <outline>
    <contour>
      <point x="273" y="537" type="curve" smooth="yes"/>
      <point x="148" y="537"/>
      <point x="74" y="450"/>
      <point x="74" y="303" type="curve" smooth="yes"/>
      <point x="74" y="193" type="line" smooth="yes"/>
      <point x="74" y="147"/>
      <point x="107" y="71"/>
      <point x="133" y="71" type="curve" smooth="yes"/>
      <point x="143" y="71"/>
      <point x="149" y="73"/>
      <point x="151" y="78" type="curve"/>
      <point x="136" y="118"/>
      <point x="130" y="154"/>
      <point x="130" y="211" type="curve" smooth="yes"/>
      <point x="130" y="286" type="line" smooth="yes"/>
      <point x="130" y="414"/>
      <point x="172" y="484"/>
      <point x="279" y="484" type="curve" smooth="yes"/>
      <point x="363" y="484"/>
      <point x="400" y="437"/>
      <point x="445" y="368" type="curve"/>
      <point x="461" y="367"/>
      <point x="468" y="387"/>
      <point x="462" y="404" type="curve" smooth="yes"/>
      <point x="439" y="467"/>
      <point x="373" y="537"/>
    </contour>
    <contour>
      <point x="253" y="-10" type="curve" smooth="yes"/>
      <point x="334" y="-10"/>
      <point x="387" y="26"/>
      <point x="441" y="85" type="curve" smooth="yes"/>
      <point x="461" y="106"/>
      <point x="462" y="140"/>
      <point x="459" y="167" type="curve"/>
      <point x="378" y="79"/>
      <point x="332" y="43"/>
      <point x="257" y="43" type="curve" smooth="yes"/>
      <point x="177" y="43"/>
      <point x="130" y="103"/>
      <point x="130" y="211" type="curve"/>
      <point x="87" y="213"/>
      <point x="74" y="199"/>
      <point x="74" y="193" type="curve" smooth="yes"/>
      <point x="74" y="66"/>
      <point x="150" y="-10"/>
    </contour>
    <contour>
      <point x="492" y="-219" type="curve"/>
      <point x="492" y="427" type="line" smooth="yes"/>
      <point x="492" y="460"/>
      <point x="492" y="494"/>
      <point x="492" y="527" type="curve"/>
      <point x="477" y="527"/>
      <point x="462" y="527"/>
      <point x="447" y="527" type="curve" smooth="yes"/>
      <point x="444" y="527"/>
      <point x="441" y="526"/>
      <point x="439" y="524" type="curve" smooth="yes"/>
      <point x="437" y="522"/>
      <point x="436" y="519"/>
      <point x="436" y="516" type="curve" smooth="yes"/>
      <point x="436" y="-208" type="line" smooth="yes"/>
      <point x="436" y="-214"/>
      <point x="441" y="-219"/>
      <point x="447" y="-219" type="curve" smooth="yes"/>
      <point x="462" y="-219"/>
      <point x="477" y="-219"/>
    </contour>
  </outline>
</glyph>
<glyph name="t" format="1">
  <advance width="500"/>
  <unicode hex="0074"/>
  <outline>
    <contour>
      <point x="167" y="700" type="curve"/>
      <point x="167" y="191" type="line" smooth="yes"/>
      <point x="167" y="107"/>
      <point x="206" y="31"/>
      <point x="270" y="41" type="curve"/>
      <point x="234" y="97"/>
      <point x="222" y="110"/>
      <point x="222" y="197" type="curve" smooth="yes"/>
      <point x="222" y="689" type="line" smooth="yes"/>
      <point x="222" y="695"/>
      <point x="217" y="700"/>
      <point x="211" y="700" type="curve" smooth="yes"/>
      <point x="197" y="700"/>
      <point x="182" y="700"/>
    </contour>
    <contour>
      <point x="431" y="52" type="curve"/>
      <point x="420" y="52" type="line"/>
      <point x="404" y="52"/>
      <point x="385" y="52"/>
      <point x="354" y="52" type="curve" smooth="yes"/>
      <point x="261" y="52"/>
      <point x="222" y="92"/>
      <point x="222" y="197" type="curve"/>
      <point x="175" y="210"/>
      <point x="167" y="205"/>
      <point x="167" y="191" type="curve" smooth="yes"/>
      <point x="167" y="55"/>
      <point x="229" y="0"/>
      <point x="350" y="0" type="curve" smooth="yes"/>
      <point x="420" y="0" type="line" smooth="yes"/>
      <point x="423" y="0"/>
      <point x="426" y="1"/>
      <point x="428" y="3" type="curve" smooth="yes"/>
      <point x="430" y="5"/>
      <point x="431" y="7"/>
      <point x="431" y="11" type="curve" smooth="yes"/>
      <point x="431" y="26"/>
      <point x="431" y="37"/>
    </contour>
    <contour>
      <point x="49" y="527" type="line"/>
      <point x="49" y="512"/>
      <point x="49" y="500"/>
      <point x="49" y="486" type="curve" smooth="yes"/>
      <point x="49" y="483"/>
      <point x="50" y="480"/>
      <point x="52" y="478" type="curve" smooth="yes"/>
      <point x="54" y="476"/>
      <point x="57" y="475"/>
      <point x="60" y="475" type="curve"/>
      <point x="431" y="475" type="line"/>
      <point x="431" y="489"/>
      <point x="431" y="501"/>
      <point x="431" y="516" type="curve" smooth="yes"/>
      <point x="431" y="522"/>
      <point x="426" y="527"/>
      <point x="420" y="527" type="curve"/>
    </contour>
    <contour>
      <point x="390" y="711" type="move" name="caronslovak"/>
    </contour>
    <contour>
      <point x="294" y="-1" type="move" name="bottom"/>
    </contour>
  </outline>
</glyph>
<glyph name="v" format="1">
  <advance width="600"/>
  <unicode hex="0076"/>
  <outline>
    <contour>
      <point x="536" y="527" type="curve" smooth="yes"/>
      <point x="488" y="527" type="line"/>
      <point x="425" y="361"/>
      <point x="362" y="196"/>
      <point x="298" y="30" type="curve"/>
      <point x="292" y="12"/>
      <point x="289" y="7"/>
      <point x="279" y="0" type="curve"/>
      <point x="346" y="0" type="line"/>
      <point x="413" y="172"/>
      <point x="478" y="343"/>
      <point x="544" y="515" type="curve"/>
      <point x="547" y="522"/>
      <point x="542" y="527"/>
    </contour>
    <contour>
      <point x="106" y="527" type="curve" smooth="yes"/>
      <point x="52" y="527" type="line"/>
      <point x="118" y="355"/>
      <point x="183" y="183"/>
      <point x="250" y="11" type="curve"/>
      <point x="253" y="3"/>
      <point x="259" y="0"/>
      <point x="264" y="0" type="curve" smooth="yes"/>
      <point x="287" y="0" type="line" smooth="yes"/>
      <point x="306" y="0"/>
      <point x="349" y="16"/>
      <point x="353" y="52" type="curve"/>
      <point x="334" y="52"/>
      <point x="318" y="52"/>
      <point x="300" y="52" type="curve" smooth="yes"/>
      <point x="295" y="52"/>
      <point x="293" y="55"/>
      <point x="291" y="60" type="curve"/>
      <point x="232" y="214"/>
      <point x="173" y="366"/>
      <point x="115" y="520" type="curve"/>
      <point x="113" y="525"/>
      <point x="111" y="527"/>
    </contour>
  </outline>
</glyph>
<glyph name="w" format="1">
  <advance width="800"/>
  <unicode hex="0077"/>
  <outline>
    <contour>
      <point x="49" y="527" type="curve"/>
      <point x="97" y="356"/>
      <point x="145" y="182"/>
      <point x="194" y="11" type="curve"/>
      <point x="197" y="3"/>
      <point x="202" y="0"/>
      <point x="207" y="0" type="curve"/>
      <point x="229" y="0" type="line" smooth="yes"/>
      <point x="241" y="2"/>
      <point x="245" y="17"/>
      <point x="245" y="27" type="curve"/>
      <point x="200" y="191"/>
      <point x="155" y="354"/>
      <point x="110" y="517" type="curve"/>
      <point x="109" y="522"/>
      <point x="108" y="524"/>
      <point x="106" y="525" type="curve" smooth="yes"/>
      <point x="105" y="526"/>
      <point x="103" y="527"/>
      <point x="100" y="527" type="curve"/>
      <point x="83" y="527"/>
      <point x="66" y="527"/>
    </contour>
    <contour>
      <point x="370" y="527" type="curve"/>
      <point x="321" y="362"/>
      <point x="272" y="195"/>
      <point x="223" y="30" type="curve"/>
      <point x="218" y="14"/>
      <point x="215" y="9"/>
      <point x="214" y="0" type="curve"/>
      <point x="269" y="0" type="line"/>
      <point x="320" y="165"/>
      <point x="369" y="331"/>
      <point x="419" y="496" type="curve"/>
      <point x="420" y="521"/>
      <point x="423" y="526"/>
      <point x="420" y="527" type="curve" smooth="yes"/>
      <point x="407" y="527"/>
      <point x="384" y="527"/>
    </contour>
    <contour>
      <point x="382" y="494" type="curve"/>
      <point x="430" y="333"/>
      <point x="478" y="172"/>
      <point x="527" y="11" type="curve"/>
      <point x="530" y="3"/>
      <point x="535" y="0"/>
      <point x="540" y="0" type="curve"/>
      <point x="565" y="0" type="line" smooth="yes"/>
      <point x="574" y="2"/>
      <point x="577" y="19"/>
      <point x="577" y="27" type="curve"/>
      <point x="529" y="190"/>
      <point x="482" y="353"/>
      <point x="433" y="516" type="curve"/>
      <point x="431" y="523"/>
      <point x="426" y="527"/>
      <point x="420" y="527" type="curve" smooth="yes"/>
      <point x="413" y="527"/>
      <point x="406" y="524"/>
    </contour>
    <contour>
      <point x="695" y="527" type="curve"/>
      <point x="649" y="362"/>
      <point x="602" y="195"/>
      <point x="556" y="31" type="curve"/>
      <point x="550" y="15"/>
      <point x="549" y="10"/>
      <point x="548" y="0" type="curve"/>
      <point x="602" y="0" type="line"/>
      <point x="651" y="170"/>
      <point x="700" y="341"/>
      <point x="749" y="511" type="curve"/>
      <point x="752" y="518"/>
      <point x="751" y="523"/>
      <point x="749" y="525" type="curve" smooth="yes"/>
      <point x="748" y="526"/>
      <point x="746" y="527"/>
      <point x="742" y="527" type="curve"/>
      <point x="726" y="527"/>
      <point x="711" y="527"/>
    </contour>
    <contour>
      <point x="399" y="538" type="move" name="top"/>
    </contour>
  </outline>
</glyph>
<glyph name="x" format="1">
  <advance width="600"/>
  <unicode hex="0078"/>
  <outline>
    <contour>
      <point x="465" y="0" type="curve" smooth="yes"/>
      <point x="483" y="0"/>
      <point x="503" y="0"/>
      <point x="521" y="0" type="curve"/>
      <point x="457" y="92"/>
      <point x="393" y="182"/>
      <point x="329" y="274" type="curve" smooth="yes"/>
      <point x="323" y="281"/>
      <point x="318" y="288"/>
      <point x="312" y="296" type="curve" smooth="yes"/>
      <point x="261" y="368"/>
      <point x="209" y="441"/>
      <point x="157" y="514" type="curve" smooth="yes"/>
      <point x="152" y="521"/>
      <point x="145" y="527"/>
      <point x="136" y="527" type="curve" smooth="yes"/>
      <point x="117" y="527"/>
      <point x="98" y="527"/>
      <point x="79" y="527" type="curve"/>
      <point x="143" y="437"/>
      <point x="206" y="349"/>
      <point x="270" y="259" type="curve" smooth="yes"/>
      <point x="275" y="251"/>
      <point x="280" y="246"/>
      <point x="285" y="239" type="curve" smooth="yes"/>
      <point x="337" y="164"/>
      <point x="390" y="88"/>
      <point x="444" y="13" type="curve" smooth="yes"/>
      <point x="448" y="6"/>
      <point x="455" y="0"/>
    </contour>
    <contour>
      <point x="496" y="527" type="curve" smooth="yes"/>
      <point x="449" y="527" type="line"/>
      <point x="397" y="449"/>
      <point x="345" y="373"/>
      <point x="293" y="295" type="curve" smooth="yes"/>
      <point x="287" y="287"/>
      <point x="276" y="293"/>
      <point x="271" y="285" type="curve" smooth="yes"/>
      <point x="211" y="199"/>
      <point x="152" y="113"/>
      <point x="92" y="27" type="curve" smooth="yes"/>
      <point x="86" y="19"/>
      <point x="83" y="14"/>
      <point x="83" y="9" type="curve" smooth="yes"/>
      <point x="83" y="3"/>
      <point x="87" y="0"/>
      <point x="95" y="0" type="curve" smooth="yes"/>
      <point x="140" y="0" type="line"/>
      <point x="195" y="80"/>
      <point x="248" y="158"/>
      <point x="304" y="239" type="curve" smooth="yes"/>
      <point x="309" y="247"/>
      <point x="320" y="243"/>
      <point x="325" y="250" type="curve" smooth="yes"/>
      <point x="385" y="336"/>
      <point x="445" y="422"/>
      <point x="504" y="507" type="curve" smooth="yes"/>
      <point x="507" y="512"/>
      <point x="508" y="515"/>
      <point x="508" y="518" type="curve" smooth="yes"/>
      <point x="508" y="525"/>
      <point x="502" y="527"/>
    </contour>
  </outline>
</glyph>
<glyph name="z" format="1">
  <advance width="550"/>
  <unicode hex="007A"/>
  <outline>
    <contour>
      <point x="81" y="527" type="line"/>
      <point x="81" y="513"/>
      <point x="81" y="499"/>
      <point x="81" y="485" type="curve" smooth="yes"/>
      <point x="81" y="482"/>
      <point x="82" y="479"/>
      <point x="84" y="477" type="curve" smooth="yes"/>
      <point x="86" y="475"/>
      <point x="89" y="474"/>
      <point x="92" y="474" type="curve" smooth="yes"/>
      <point x="413" y="474" type="line" smooth="yes"/>
      <point x="427" y="474"/>
      <point x="460" y="475"/>
      <point x="469" y="475" type="curve"/>
      <point x="469" y="516" type="line" smooth="yes"/>
      <point x="469" y="519"/>
      <point x="468" y="522"/>
      <point x="466" y="524" type="curve" smooth="yes"/>
      <point x="464" y="526"/>
      <point x="461" y="527"/>
      <point x="458" y="527" type="curve" smooth="yes"/>
    </contour>
    <contour>
      <point x="429" y="505" type="curve"/>
      <point x="312" y="353"/>
      <point x="197" y="203"/>
      <point x="81" y="52" type="curve"/>
      <point x="81" y="17"/>
      <point x="118" y="16"/>
      <point x="134" y="36" type="curve" smooth="yes"/>
      <point x="250" y="187"/>
      <point x="469" y="474"/>
      <point x="469" y="475" type="curve"/>
      <point x="469" y="496"/>
      <point x="459" y="505"/>
    </contour>
    <contour>
      <point x="469" y="0" type="line"/>
      <point x="469" y="14"/>
      <point x="469" y="28"/>
      <point x="469" y="41" type="curve"/>
      <point x="469" y="47"/>
      <point x="464" y="52"/>
      <point x="458" y="52" type="curve" smooth="yes"/>
      <point x="138" y="52" type="line" smooth="yes"/>
      <point x="117" y="52"/>
      <point x="105" y="52"/>
      <point x="81" y="52" type="curve"/>
      <point x="81" y="11" type="line" smooth="yes"/>
      <point x="81" y="8"/>
      <point x="82" y="5"/>
      <point x="84" y="3" type="curve" smooth="yes"/>
      <point x="86" y="1"/>
      <point x="89" y="0"/>
      <point x="92" y="0" type="curve" smooth="yes"/>
    </contour>
    <contour>
      <point x="275" y="538" type="move" name="top"/>
    </contour>
  </outline>
</glyph>
<glyph name="braceleft" format="1">
  <advance width="500"/>
  <unicode hex="007B"/>
  <outline>
    <contour>
      <point x="308" y="705" type="curve" smooth="yes"/>
      <point x="361" y="705"/>
      <point x="408" y="705"/>
      <point x="460" y="705" type="curve"/>
      <point x="480" y="705" type="line"/>
      <point x="480" y="720"/>
      <point x="480" y="734"/>
      <point x="480" y="749" type="curve"/>
      <point x="480" y="756"/>
      <point x="476" y="760"/>
      <point x="469" y="760" type="curve" smooth="yes"/>
      <point x="302" y="760" type="line" smooth="yes"/>
      <point x="224" y="760"/>
      <point x="198" y="702"/>
      <point x="198" y="666" type="curve" smooth="yes"/>
      <point x="198" y="662" type="line" smooth="yes"/>
      <point x="198" y="653"/>
      <point x="207" y="651"/>
      <point x="250" y="649" type="curve"/>
      <point x="257" y="688"/>
      <point x="272" y="705"/>
    </contour>
    <contour>
      <point x="333" y="449" type="curve" smooth="yes"/>
      <point x="333" y="535"/>
      <point x="254" y="568"/>
      <point x="254" y="623" type="curve" smooth="yes"/>
      <point x="254" y="643"/>
      <point x="254" y="668"/>
      <point x="254" y="689" type="curve"/>
      <point x="202" y="676"/>
      <point x="198" y="672"/>
      <point x="198" y="666" type="curve" smooth="yes"/>
      <point x="198" y="613" type="line" smooth="yes"/>
      <point x="198" y="543"/>
      <point x="278" y="516"/>
      <point x="278" y="446" type="curve" smooth="yes"/>
      <point x="278" y="373"/>
      <point x="195" y="328"/>
      <point x="69" y="328" type="curve" smooth="yes"/>
      <point x="37" y="328" type="line"/>
      <point x="37" y="292" type="line" smooth="yes"/>
      <point x="37" y="283"/>
      <point x="45" y="276"/>
      <point x="54" y="276" type="curve" smooth="yes"/>
      <point x="69" y="276" type="line" smooth="yes"/>
      <point x="225" y="276"/>
      <point x="333" y="346"/>
    </contour>
    <contour>
      <point x="333" y="149" type="curve" smooth="yes"/>
      <point x="333" y="252"/>
      <point x="230" y="324"/>
      <point x="69" y="324" type="curve" smooth="yes"/>
      <point x="58" y="324"/>
      <point x="48" y="324"/>
      <point x="37" y="324" type="curve"/>
      <point x="37" y="283" type="line" smooth="yes"/>
      <point x="37" y="276"/>
      <point x="41" y="272"/>
      <point x="48" y="272" type="curve" smooth="yes"/>
      <point x="69" y="272" type="line" smooth="yes"/>
      <point x="195" y="272"/>
      <point x="278" y="225"/>
      <point x="278" y="152" type="curve" smooth="yes"/>
      <point x="278" y="82"/>
      <point x="198" y="56"/>
      <point x="198" y="-14" type="curve" smooth="yes"/>
      <point x="198" y="-67" type="line" smooth="yes"/>
      <point x="198" y="-73"/>
      <point x="204" y="-77"/>
      <point x="254" y="-86" type="curve"/>
      <point x="254" y="-66"/>
      <point x="254" y="-44"/>
      <point x="254" y="-24" type="curve" smooth="yes"/>
      <point x="254" y="31"/>
      <point x="333" y="63"/>
    </contour>
    <contour>
      <point x="308" y="-106" type="curve" smooth="yes"/>
      <point x="272" y="-106"/>
      <point x="257" y="-89"/>
      <point x="250" y="-50" type="curve"/>
      <point x="207" y="-52"/>
      <point x="198" y="-54"/>
      <point x="198" y="-63" type="curve" smooth="yes"/>
      <point x="198" y="-67" type="line" smooth="yes"/>
      <point x="198" y="-103"/>
      <point x="224" y="-161"/>
      <point x="302" y="-161" type="curve" smooth="yes"/>
      <point x="469" y="-161" type="line" smooth="yes"/>
      <point x="476" y="-161"/>
      <point x="480" y="-157"/>
      <point x="480" y="-150" type="curve"/>
      <point x="480" y="-106" type="line"/>
      <point x="460" y="-106" type="line"/>
      <point x="408" y="-106"/>
      <point x="361" y="-106"/>
    </contour>
  </outline>
</glyph>
<glyph name="bar" format="1">
  <advance width="300"/>
  <unicode hex="007C"/>
  <outline>
    <contour>
      <point x="122" y="760" type="curve"/>
      <point x="122" y="727"/>
      <point x="122" y="694"/>
      <point x="122" y="661" type="curve" smooth="yes"/>
      <point x="122" y="-150" type="line" smooth="yes"/>
      <point x="122" y="-156"/>
      <point x="127" y="-161"/>
      <point x="133" y="-161" type="curve" smooth="yes"/>
      <point x="148" y="-161"/>
      <point x="163" y="-161"/>
      <point x="178" y="-161" type="curve"/>
      <point x="178" y="749" type="line" smooth="yes"/>
      <point x="178" y="752"/>
      <point x="177" y="755"/>
      <point x="175" y="757" type="curve" smooth="yes"/>
      <point x="173" y="759"/>
      <point x="170" y="760"/>
      <point x="167" y="760" type="curve" smooth="yes"/>
      <point x="152" y="760"/>
      <point x="137" y="760"/>
    </contour>
  </outline>
</glyph>
<glyph name="braceright" format="1">
  <advance width="500"/>
  <unicode hex="007D"/>
  <outline>
    <contour>
      <point x="192" y="-104" type="curve" smooth="yes"/>
      <point x="139" y="-104"/>
      <point x="92" y="-104"/>
      <point x="40" y="-104" type="curve"/>
      <point x="20" y="-104" type="line"/>
      <point x="20" y="-118"/>
      <point x="20" y="-133"/>
      <point x="20" y="-148" type="curve"/>
      <point x="20" y="-155"/>
      <point x="24" y="-159"/>
      <point x="31" y="-159" type="curve" smooth="yes"/>
      <point x="198" y="-159" type="line" smooth="yes"/>
      <point x="276" y="-159"/>
      <point x="302" y="-100"/>
      <point x="302" y="-65" type="curve" smooth="yes"/>
      <point x="302" y="-61" type="line" smooth="yes"/>
      <point x="302" y="-51"/>
      <point x="293" y="-50"/>
      <point x="250" y="-47" type="curve"/>
      <point x="243" y="-86"/>
      <point x="228" y="-104"/>
    </contour>
    <contour>
      <point x="167" y="153" type="curve" smooth="yes"/>
      <point x="167" y="66"/>
      <point x="246" y="33"/>
      <point x="246" y="-22" type="curve" smooth="yes"/>
      <point x="246" y="-42"/>
      <point x="246" y="-67"/>
      <point x="246" y="-88" type="curve"/>
      <point x="298" y="-75"/>
      <point x="302" y="-71"/>
      <point x="302" y="-65" type="curve" smooth="yes"/>
      <point x="302" y="-12" type="line" smooth="yes"/>
      <point x="302" y="59"/>
      <point x="222" y="85"/>
      <point x="222" y="155" type="curve" smooth="yes"/>
      <point x="222" y="228"/>
      <point x="305" y="274"/>
      <point x="431" y="274" type="curve" smooth="yes"/>
      <point x="463" y="274" type="line"/>
      <point x="463" y="309" type="line" smooth="yes"/>
      <point x="463" y="318"/>
      <point x="455" y="325"/>
      <point x="446" y="325" type="curve" smooth="yes"/>
      <point x="431" y="325" type="line" smooth="yes"/>
      <point x="275" y="325"/>
      <point x="167" y="255"/>
    </contour>
    <contour>
      <point x="167" y="452" type="curve" smooth="yes"/>
      <point x="167" y="349"/>
      <point x="270" y="278"/>
      <point x="431" y="278" type="curve" smooth="yes"/>
      <point x="442" y="278"/>
      <point x="452" y="278"/>
      <point x="463" y="278" type="curve"/>
      <point x="463" y="318" type="line" smooth="yes"/>
      <point x="463" y="325"/>
      <point x="459" y="329"/>
      <point x="452" y="329" type="curve" smooth="yes"/>
      <point x="431" y="329" type="line" smooth="yes"/>
      <point x="305" y="329"/>
      <point x="222" y="377"/>
      <point x="222" y="449" type="curve" smooth="yes"/>
      <point x="222" y="519"/>
      <point x="302" y="545"/>
      <point x="302" y="615" type="curve" smooth="yes"/>
      <point x="302" y="669" type="line" smooth="yes"/>
      <point x="302" y="674"/>
      <point x="296" y="679"/>
      <point x="246" y="687" type="curve"/>
      <point x="246" y="667"/>
      <point x="246" y="646"/>
      <point x="246" y="625" type="curve" smooth="yes"/>
      <point x="246" y="570"/>
      <point x="167" y="539"/>
    </contour>
    <contour>
      <point x="192" y="707" type="curve" smooth="yes"/>
      <point x="228" y="707"/>
      <point x="243" y="690"/>
      <point x="250" y="651" type="curve"/>
      <point x="293" y="653"/>
      <point x="302" y="655"/>
      <point x="302" y="665" type="curve" smooth="yes"/>
      <point x="302" y="669" type="line" smooth="yes"/>
      <point x="302" y="704"/>
      <point x="276" y="762"/>
      <point x="198" y="762" type="curve" smooth="yes"/>
      <point x="31" y="762" type="line" smooth="yes"/>
      <point x="24" y="762"/>
      <point x="20" y="758"/>
      <point x="20" y="751" type="curve"/>
      <point x="20" y="707" type="line"/>
      <point x="40" y="707" type="line"/>
      <point x="92" y="707"/>
      <point x="139" y="707"/>
    </contour>
  </outline>
</glyph>
<glyph name="exclamdown" format="1">
  <advance width="400"/>
  <unicode hex="00A1"/>
  <outline>
    <contour>
      <point x="175" y="284" type="line"/>
      <point x="171" y="198"/>
      <point x="166" y="111"/>
      <point x="162" y="25" type="curve"/>
      <point x="162" y="-162" type="line" smooth="yes"/>
      <point x="162" y="-169"/>
      <point x="166" y="-173"/>
      <point x="172" y="-173" type="curve" smooth="yes"/>
      <point x="195" y="-173"/>
      <point x="217" y="-173"/>
      <point x="238" y="-173" type="curve"/>
      <point x="238" y="-135"/>
      <point x="238" y="-100"/>
      <point x="238" y="-63" type="curve" smooth="yes"/>
      <point x="238" y="25" type="line"/>
      <point x="227" y="270"/>
      <point x="225" y="277"/>
      <point x="221" y="281" type="curve" smooth="yes"/>
      <point x="219" y="283"/>
      <point x="217" y="284"/>
      <point x="213" y="284" type="curve"/>
    </contour>
    <contour>
      <point x="136" y="532" type="curve"/>
      <point x="136" y="419" type="line" smooth="yes"/>
      <point x="136" y="413"/>
      <point x="141" y="408"/>
      <point x="147" y="408" type="curve" smooth="yes"/>
      <point x="179" y="408"/>
      <point x="232" y="408"/>
      <point x="264" y="408" type="curve"/>
      <point x="264" y="521" type="line" smooth="yes"/>
      <point x="264" y="527"/>
      <point x="259" y="532"/>
      <point x="253" y="532" type="curve" smooth="yes"/>
      <point x="221" y="532"/>
      <point x="168" y="532"/>
    </contour>
  </outline>
</glyph>
<glyph name="sterling" format="1">
  <advance width="600"/>
  <unicode hex="00A3"/>
  <outline>
    <contour>
      <point x="355" y="667" type="curve" smooth="yes"/>
      <point x="419" y="667"/>
      <point x="455" y="649"/>
      <point x="503" y="610" type="curve"/>
      <point x="515" y="610" type="line"/>
      <point x="515" y="620"/>
      <point x="515" y="636"/>
      <point x="515" y="659" type="curve" smooth="yes"/>
      <point x="515" y="663"/>
      <point x="514" y="665"/>
      <point x="512" y="667" type="curve" smooth="yes"/>
      <point x="483" y="696"/>
      <point x="427" y="720"/>
      <point x="355" y="720" type="curve" smooth="yes"/>
      <point x="231" y="720"/>
      <point x="168" y="636"/>
      <point x="168" y="548" type="curve" smooth="yes"/>
      <point x="168" y="532" type="line" smooth="yes"/>
      <point x="168" y="515"/>
      <point x="182" y="516"/>
      <point x="224" y="543" type="curve"/>
      <point x="224" y="622"/>
      <point x="270" y="667"/>
    </contour>
    <contour>
      <point x="168" y="532" type="curve" smooth="yes"/>
      <point x="168" y="402"/>
      <point x="168" y="297"/>
      <point x="168" y="160" type="curve" smooth="yes"/>
      <point x="168" y="89"/>
      <point x="124" y="48"/>
      <point x="63" y="48" type="curve" smooth="yes"/>
      <point x="60" y="48"/>
      <point x="57" y="48"/>
      <point x="53" y="48" type="curve"/>
      <point x="49" y="48" type="line"/>
      <point x="49" y="36"/>
      <point x="49" y="26"/>
      <point x="49" y="11" type="curve" smooth="yes"/>
      <point x="49" y="3"/>
      <point x="53" y="0"/>
      <point x="60" y="0" type="curve" smooth="yes"/>
      <point x="65" y="0" type="line" smooth="yes"/>
      <point x="151" y="0"/>
      <point x="224" y="52"/>
      <point x="224" y="170" type="curve" smooth="yes"/>
      <point x="224" y="303"/>
      <point x="224" y="420"/>
      <point x="224" y="543" type="curve" smooth="yes"/>
      <point x="224" y="562"/>
      <point x="224" y="580"/>
      <point x="224" y="599" type="curve"/>
      <point x="192" y="599"/>
      <point x="168" y="574"/>
    </contour>
    <contour>
      <point x="65" y="0" type="curve"/>
      <point x="236" y="0"/>
      <point x="336" y="0"/>
      <point x="465" y="0" type="curve" smooth="yes"/>
      <point x="530" y="0" type="line" smooth="yes"/>
      <point x="538" y="0"/>
      <point x="541" y="3"/>
      <point x="541" y="11" type="curve"/>
      <point x="541" y="24"/>
      <point x="541" y="36"/>
      <point x="541" y="48" type="curve"/>
      <point x="521" y="48" type="line"/>
      <point x="497" y="48"/>
      <point x="480" y="48"/>
      <point x="451" y="48" type="curve" smooth="yes"/>
      <point x="351" y="48"/>
      <point x="281" y="48"/>
      <point x="132" y="48" type="curve"/>
      <point x="64" y="5"/>
      <point x="62" y="0"/>
    </contour>
    <contour>
      <point x="69" y="372" type="line"/>
      <point x="69" y="359"/>
      <point x="69" y="349"/>
      <point x="69" y="337" type="curve" smooth="yes"/>
      <point x="69" y="334"/>
      <point x="70" y="331"/>
      <point x="72" y="329" type="curve" smooth="yes"/>
      <point x="74" y="327"/>
      <point x="77" y="326"/>
      <point x="80" y="326" type="curve" smooth="yes"/>
      <point x="450" y="326" type="line"/>
      <point x="450" y="338"/>
      <point x="450" y="348"/>
      <point x="450" y="361" type="curve" smooth="yes"/>
      <point x="450" y="367"/>
      <point x="445" y="372"/>
      <point x="439" y="372" type="curve" smooth="yes"/>
    </contour>
  </outline>
</glyph>
<glyph name="currency" format="1">
  <advance width="600"/>
  <unicode hex="00A4"/>
  <outline>
    <contour>
      <point x="216" y="420" type="curve"/>
      <point x="192" y="445"/>
      <point x="162" y="475"/>
      <point x="136" y="500" type="curve" smooth="yes"/>
      <point x="134" y="502"/>
      <point x="132" y="503"/>
      <point x="130" y="503" type="curve" smooth="yes"/>
      <point x="128" y="503"/>
      <point x="126" y="502"/>
      <point x="124" y="500" type="curve" smooth="yes"/>
      <point x="112" y="488"/>
      <point x="102" y="478"/>
      <point x="93" y="469" type="curve"/>
      <point x="117" y="444"/>
      <point x="148" y="413"/>
      <point x="173" y="389" type="curve" smooth="yes"/>
      <point x="177" y="385"/>
      <point x="181" y="385"/>
      <point x="185" y="389" type="curve" smooth="yes"/>
      <point x="196" y="399"/>
      <point x="207" y="410"/>
    </contour>
    <contour>
      <point x="382" y="420" type="curve"/>
      <point x="390" y="411"/>
      <point x="403" y="398"/>
      <point x="413" y="389" type="curve" smooth="yes"/>
      <point x="417" y="385"/>
      <point x="421" y="385"/>
      <point x="425" y="389" type="curve" smooth="yes"/>
      <point x="450" y="413"/>
      <point x="481" y="444"/>
      <point x="505" y="469" type="curve"/>
      <point x="495" y="479"/>
      <point x="486" y="488"/>
      <point x="474" y="500" type="curve" smooth="yes"/>
      <point x="472" y="502"/>
      <point x="470" y="503"/>
      <point x="468" y="503" type="curve" smooth="yes"/>
      <point x="466" y="503"/>
      <point x="464" y="502"/>
      <point x="462" y="500" type="curve" smooth="yes"/>
      <point x="436" y="475"/>
      <point x="406" y="445"/>
    </contour>
    <contour>
      <point x="382" y="180" type="curve"/>
      <point x="406" y="155"/>
      <point x="436" y="125"/>
      <point x="462" y="100" type="curve" smooth="yes"/>
      <point x="464" y="98"/>
      <point x="466" y="97"/>
      <point x="468" y="97" type="curve" smooth="yes"/>
      <point x="470" y="97"/>
      <point x="472" y="98"/>
      <point x="474" y="100" type="curve" smooth="yes"/>
      <point x="486" y="111"/>
      <point x="496" y="122"/>
      <point x="505" y="131" type="curve"/>
      <point x="481" y="156"/>
      <point x="450" y="187"/>
      <point x="425" y="211" type="curve" smooth="yes"/>
      <point x="421" y="215"/>
      <point x="417" y="215"/>
      <point x="413" y="211" type="curve" smooth="yes"/>
      <point x="402" y="201"/>
      <point x="391" y="189"/>
    </contour>
    <contour>
      <point x="216" y="180" type="curve"/>
      <point x="208" y="189"/>
      <point x="195" y="201"/>
      <point x="185" y="211" type="curve" smooth="yes"/>
      <point x="181" y="215"/>
      <point x="177" y="215"/>
      <point x="173" y="211" type="curve" smooth="yes"/>
      <point x="148" y="187"/>
      <point x="117" y="156"/>
      <point x="93" y="131" type="curve"/>
      <point x="103" y="121"/>
      <point x="112" y="111"/>
      <point x="124" y="100" type="curve" smooth="yes"/>
      <point x="126" y="98"/>
      <point x="128" y="97"/>
      <point x="130" y="97" type="curve" smooth="yes"/>
      <point x="132" y="97"/>
      <point x="134" y="98"/>
      <point x="136" y="100" type="curve" smooth="yes"/>
      <point x="162" y="125"/>
      <point x="192" y="155"/>
    </contour>
    <contour>
      <point x="300" y="184" type="curve"/>
      <point x="228" y="184"/>
      <point x="189" y="220"/>
      <point x="189" y="281" type="curve" smooth="yes"/>
      <point x="189" y="321" type="line" smooth="yes"/>
      <point x="189" y="382"/>
      <point x="230" y="418"/>
      <point x="300" y="418" type="curve" smooth="yes"/>
      <point x="346" y="418"/>
      <point x="367" y="412"/>
      <point x="399" y="393" type="curve"/>
      <point x="416" y="426"/>
      <point x="361" y="468"/>
      <point x="300" y="468" type="curve"/>
      <point x="200" y="468"/>
      <point x="135" y="411"/>
      <point x="135" y="322" type="curve" smooth="yes"/>
      <point x="135" y="280" type="line" smooth="yes"/>
      <point x="135" y="190"/>
      <point x="200" y="134"/>
      <point x="300" y="134" type="curve"/>
      <point x="309" y="134"/>
      <point x="309" y="145"/>
    </contour>
    <contour>
      <point x="300" y="418" type="curve"/>
      <point x="372" y="418"/>
      <point x="411" y="382"/>
      <point x="411" y="321" type="curve" smooth="yes"/>
      <point x="411" y="281" type="line" smooth="yes"/>
      <point x="411" y="220"/>
      <point x="370" y="184"/>
      <point x="300" y="184" type="curve" smooth="yes"/>
      <point x="254" y="184"/>
      <point x="233" y="190"/>
      <point x="201" y="209" type="curve"/>
      <point x="184" y="176"/>
      <point x="239" y="134"/>
      <point x="300" y="134" type="curve"/>
      <point x="400" y="134"/>
      <point x="465" y="190"/>
      <point x="465" y="280" type="curve" smooth="yes"/>
      <point x="465" y="322" type="line" smooth="yes"/>
      <point x="465" y="411"/>
      <point x="400" y="468"/>
      <point x="300" y="468" type="curve"/>
      <point x="288" y="468"/>
      <point x="287" y="459"/>
    </contour>
  </outline>
</glyph>
<glyph name="yen" format="1">
  <advance width="600"/>
  <unicode hex="00A5"/>
  <outline>
    <contour>
      <point x="53" y="451" type="line"/>
      <point x="53" y="438"/>
      <point x="53" y="428"/>
      <point x="53" y="415" type="curve" smooth="yes"/>
      <point x="53" y="412"/>
      <point x="54" y="409"/>
      <point x="56" y="407" type="curve" smooth="yes"/>
      <point x="58" y="405"/>
      <point x="61" y="404"/>
      <point x="64" y="404" type="curve"/>
      <point x="223" y="404" type="line"/>
      <point x="223" y="417"/>
      <point x="223" y="427"/>
      <point x="223" y="440" type="curve" smooth="yes"/>
      <point x="223" y="446"/>
      <point x="218" y="451"/>
      <point x="212" y="451" type="curve"/>
    </contour>
    <contour>
      <point x="377" y="451" type="line"/>
      <point x="377" y="438"/>
      <point x="377" y="428"/>
      <point x="377" y="415" type="curve" smooth="yes"/>
      <point x="377" y="409"/>
      <point x="382" y="404"/>
      <point x="388" y="404" type="curve"/>
      <point x="547" y="404" type="line"/>
      <point x="547" y="417"/>
      <point x="547" y="427"/>
      <point x="547" y="440" type="curve" smooth="yes"/>
      <point x="547" y="446"/>
      <point x="542" y="451"/>
      <point x="536" y="451" type="curve"/>
    </contour>
    <contour>
      <point x="547" y="156" type="line"/>
      <point x="547" y="168"/>
      <point x="547" y="179"/>
      <point x="547" y="191" type="curve" smooth="yes"/>
      <point x="547" y="194"/>
      <point x="546" y="197"/>
      <point x="544" y="199" type="curve" smooth="yes"/>
      <point x="542" y="201"/>
      <point x="539" y="202"/>
      <point x="536" y="202" type="curve"/>
      <point x="53" y="202" type="line"/>
      <point x="53" y="190"/>
      <point x="53" y="179"/>
      <point x="53" y="167" type="curve" smooth="yes"/>
      <point x="53" y="161"/>
      <point x="58" y="156"/>
      <point x="64" y="156" type="curve"/>
    </contour>
    <contour>
      <point x="40" y="700" type="line"/>
      <point x="118" y="559"/>
      <point x="196" y="419"/>
      <point x="274" y="279" type="curve"/>
      <point x="277" y="275"/>
      <point x="284" y="274"/>
      <point x="290" y="274" type="curve"/>
      <point x="303" y="274"/>
      <point x="312" y="298"/>
      <point x="312" y="324" type="curve"/>
      <point x="244" y="445"/>
      <point x="176" y="568"/>
      <point x="109" y="690" type="curve"/>
      <point x="106" y="696"/>
      <point x="103" y="700"/>
      <point x="92" y="700" type="curve" smooth="yes"/>
    </contour>
    <contour>
      <point x="500" y="700" type="line"/>
      <point x="430" y="573"/>
      <point x="360" y="448"/>
      <point x="290" y="321" type="curve"/>
      <point x="279" y="299"/>
      <point x="286" y="276"/>
      <point x="290" y="274" type="curve"/>
      <point x="323" y="274" type="line"/>
      <point x="400" y="411"/>
      <point x="478" y="549"/>
      <point x="555" y="687" type="curve"/>
      <point x="558" y="694"/>
      <point x="553" y="700"/>
      <point x="549" y="700" type="curve"/>
    </contour>
    <contour>
      <point x="328" y="0" type="curve"/>
      <point x="328" y="32"/>
      <point x="328" y="65"/>
      <point x="328" y="100" type="curve" smooth="yes"/>
      <point x="328" y="308" type="line" smooth="yes"/>
      <point x="328" y="314"/>
      <point x="323" y="319"/>
      <point x="272" y="319" type="curve"/>
      <point x="272" y="11" type="line" smooth="yes"/>
      <point x="272" y="8"/>
      <point x="273" y="5"/>
      <point x="275" y="3" type="curve" smooth="yes"/>
      <point x="277" y="1"/>
      <point x="280" y="0"/>
      <point x="283" y="0" type="curve" smooth="yes"/>
      <point x="298" y="0"/>
      <point x="313" y="0"/>
    </contour>
  </outline>
</glyph>
<glyph name="brokenbar" format="1">
  <advance width="300"/>
  <unicode hex="00A6"/>
  <outline>
    <contour>
      <point x="122" y="760" type="curve"/>
      <point x="122" y="727"/>
      <point x="122" y="694"/>
      <point x="122" y="661" type="curve" smooth="yes"/>
      <point x="122" y="380" type="line" smooth="yes"/>
      <point x="122" y="374"/>
      <point x="127" y="369"/>
      <point x="133" y="369" type="curve" smooth="yes"/>
      <point x="148" y="369"/>
      <point x="163" y="369"/>
      <point x="178" y="369" type="curve"/>
      <point x="178" y="749" type="line" smooth="yes"/>
      <point x="178" y="752"/>
      <point x="177" y="755"/>
      <point x="175" y="757" type="curve" smooth="yes"/>
      <point x="173" y="759"/>
      <point x="170" y="760"/>
      <point x="167" y="760" type="curve" smooth="yes"/>
      <point x="152" y="760"/>
      <point x="137" y="760"/>
    </contour>
    <contour>
      <point x="122" y="231" type="curve"/>
      <point x="122" y="-149" type="line"/>
      <point x="122" y="-155"/>
      <point x="127" y="-160"/>
      <point x="133" y="-160" type="curve" smooth="yes"/>
      <point x="148" y="-160"/>
      <point x="163" y="-160"/>
      <point x="178" y="-160" type="curve"/>
      <point x="178" y="220" type="line" smooth="yes"/>
      <point x="178" y="227"/>
      <point x="174" y="231"/>
      <point x="167" y="231" type="curve" smooth="yes"/>
      <point x="152" y="231"/>
      <point x="137" y="231"/>
    </contour>
  </outline>
</glyph>
<glyph name="dieresis" format="1">
  <advance width="600"/>
  <unicode hex="00A8"/>
  <outline>
    <contour>
      <point x="242" y="672" type="curve"/>
      <point x="242" y="746" type="line" smooth="yes"/>
      <point x="242" y="752"/>
      <point x="237" y="757"/>
      <point x="231" y="757" type="curve" smooth="yes"/>
      <point x="206" y="757"/>
      <point x="182" y="757"/>
      <point x="157" y="757" type="curve"/>
      <point x="157" y="683" type="line" smooth="yes"/>
      <point x="157" y="677"/>
      <point x="162" y="672"/>
      <point x="168" y="672" type="curve" smooth="yes"/>
      <point x="193" y="672"/>
      <point x="217" y="672"/>
    </contour>
    <contour>
      <point x="443" y="672" type="curve"/>
      <point x="443" y="746" type="line" smooth="yes"/>
      <point x="443" y="752"/>
      <point x="438" y="757"/>
      <point x="432" y="757" type="curve" smooth="yes"/>
      <point x="407" y="757"/>
      <point x="383" y="757"/>
      <point x="358" y="757" type="curve"/>
      <point x="358" y="683" type="line" smooth="yes"/>
      <point x="358" y="677"/>
      <point x="363" y="672"/>
      <point x="369" y="672" type="curve" smooth="yes"/>
      <point x="394" y="672"/>
      <point x="418" y="672"/>
    </contour>
  </outline>
</glyph>
<glyph name="logicalnot" format="1">
  <advance width="600"/>
  <unicode hex="00AC"/>
  <outline>
    <contour>
      <point x="75" y="413" type="line"/>
      <point x="75" y="398"/>
      <point x="75" y="384"/>
      <point x="75" y="369" type="curve" smooth="yes"/>
      <point x="75" y="366"/>
      <point x="76" y="363"/>
      <point x="78" y="361" type="curve" smooth="yes"/>
      <point x="80" y="359"/>
      <point x="83" y="358"/>
      <point x="86" y="358" type="curve"/>
      <point x="525" y="358" type="line"/>
      <point x="525" y="402" type="line"/>
      <point x="525" y="408"/>
      <point x="520" y="413"/>
      <point x="514" y="413" type="curve"/>
    </contour>
    <contour>
      <point x="525" y="140" type="curve"/>
      <point x="525" y="371" type="line" smooth="yes"/>
      <point x="525" y="377"/>
      <point x="520" y="382"/>
      <point x="514" y="382" type="curve"/>
      <point x="469" y="382" type="line"/>
      <point x="469" y="151" type="line" smooth="yes"/>
      <point x="469" y="145"/>
      <point x="474" y="140"/>
      <point x="480" y="140" type="curve" smooth="yes"/>
      <point x="495" y="140"/>
      <point x="510" y="140"/>
    </contour>
  </outline>
</glyph>
<glyph name="registered" format="1">
  <advance width="600"/>
  <unicode hex="00AE"/>
  <outline>
    <contour>
      <point x="241" y="327" type="curve"/>
      <point x="241" y="355"/>
      <point x="241" y="382"/>
      <point x="241" y="410" type="curve"/>
      <point x="241" y="602" type="line"/>
      <point x="241" y="603"/>
      <point x="241" y="608"/>
      <point x="196" y="608" type="curve"/>
      <point x="196" y="338" type="line" smooth="yes"/>
      <point x="196" y="331"/>
      <point x="200" y="327"/>
      <point x="207" y="327" type="curve" smooth="yes"/>
      <point x="217" y="327"/>
      <point x="230" y="327"/>
    </contour>
    <contour>
      <point x="173" y="635" type="curve"/>
      <point x="173" y="624"/>
      <point x="173" y="613"/>
      <point x="173" y="602" type="curve"/>
      <point x="173" y="595"/>
      <point x="177" y="591"/>
      <point x="184" y="591" type="curve"/>
      <point x="190" y="591"/>
      <point x="200" y="591"/>
      <point x="206" y="591" type="curve" smooth="yes"/>
      <point x="245" y="591"/>
      <point x="294" y="591"/>
      <point x="332" y="591" type="curve" smooth="yes"/>
      <point x="364" y="591"/>
      <point x="378" y="591"/>
      <point x="395" y="591" type="curve"/>
      <point x="395" y="618"/>
      <point x="367" y="635"/>
      <point x="323" y="635" type="curve" smooth="yes"/>
      <point x="279" y="635"/>
      <point x="216" y="635"/>
    </contour>
    <contour>
      <point x="420" y="524" type="curve" smooth="yes"/>
      <point x="420" y="554" type="line" smooth="yes"/>
      <point x="420" y="608"/>
      <point x="388" y="635"/>
      <point x="323" y="635" type="curve"/>
      <point x="310" y="635"/>
      <point x="314" y="628"/>
      <point x="332" y="591" type="curve"/>
      <point x="363" y="591"/>
      <point x="375" y="580"/>
      <point x="375" y="551" type="curve" smooth="yes"/>
      <point x="375" y="520" type="line" smooth="yes"/>
      <point x="375" y="496"/>
      <point x="358" y="480"/>
      <point x="332" y="480" type="curve" smooth="yes"/>
      <point x="307" y="480"/>
      <point x="245" y="480"/>
      <point x="225" y="480" type="curve"/>
      <point x="225" y="467"/>
      <point x="225" y="457"/>
      <point x="225" y="442" type="curve" smooth="yes"/>
      <point x="225" y="439"/>
      <point x="228" y="436"/>
      <point x="231" y="436" type="curve" smooth="yes"/>
      <point x="328" y="436" type="line" smooth="yes"/>
      <point x="386" y="436"/>
      <point x="420" y="473"/>
    </contour>
    <contour>
      <point x="344" y="467" type="line"/>
      <point x="308" y="460"/>
      <point x="304" y="453"/>
      <point x="307" y="446" type="curve" smooth="yes"/>
      <point x="339" y="364" type="line" smooth="yes"/>
      <point x="353" y="329"/>
      <point x="369" y="324"/>
      <point x="401" y="324" type="curve" smooth="yes"/>
      <point x="409" y="324" type="line" smooth="yes"/>
      <point x="417" y="324"/>
      <point x="420" y="327"/>
      <point x="420" y="335" type="curve"/>
      <point x="420" y="345"/>
      <point x="420" y="356"/>
      <point x="420" y="367" type="curve"/>
      <point x="417" y="367" type="line"/>
      <point x="405" y="367"/>
      <point x="410" y="367"/>
      <point x="398" y="367" type="curve"/>
      <point x="386" y="367"/>
      <point x="383" y="369"/>
      <point x="379" y="379" type="curve" smooth="yes"/>
    </contour>
    <contour>
      <point x="300" y="760" type="curve" smooth="yes"/>
      <point x="143" y="760"/>
      <point x="52" y="682"/>
      <point x="52" y="546" type="curve" smooth="yes"/>
      <point x="52" y="416" type="line" smooth="yes"/>
      <point x="52" y="278"/>
      <point x="140" y="202"/>
      <point x="300" y="202" type="curve" smooth="yes"/>
      <point x="305" y="220"/>
      <point x="305" y="240"/>
      <point x="300" y="250" type="curve"/>
      <point x="172" y="250"/>
      <point x="101" y="304"/>
      <point x="101" y="401" type="curve" smooth="yes"/>
      <point x="101" y="553" type="line" smooth="yes"/>
      <point x="101" y="655"/>
      <point x="173" y="712"/>
      <point x="300" y="712" type="curve" smooth="yes"/>
      <point x="339" y="712"/>
      <point x="367" y="712"/>
      <point x="398" y="712" type="curve"/>
      <point x="398" y="742"/>
      <point x="362" y="760"/>
    </contour>
    <contour>
      <point x="300" y="202" type="curve" smooth="yes"/>
      <point x="457" y="202"/>
      <point x="548" y="276"/>
      <point x="548" y="407" type="curve" smooth="yes"/>
      <point x="548" y="536" type="line" smooth="yes"/>
      <point x="548" y="680"/>
      <point x="460" y="760"/>
      <point x="300" y="760" type="curve" smooth="yes"/>
      <point x="295" y="741"/>
      <point x="294" y="723"/>
      <point x="300" y="712" type="curve"/>
      <point x="428" y="712"/>
      <point x="499" y="654"/>
      <point x="499" y="552" type="curve" smooth="yes"/>
      <point x="499" y="400" type="line" smooth="yes"/>
      <point x="499" y="303"/>
      <point x="427" y="250"/>
      <point x="300" y="250" type="curve" smooth="yes"/>
      <point x="261" y="250"/>
      <point x="233" y="250"/>
      <point x="202" y="250" type="curve"/>
      <point x="202" y="220"/>
      <point x="238" y="202"/>
    </contour>
  </outline>
</glyph>
<glyph name="macron" format="1">
  <advance width="600"/>
  <unicode hex="00AF"/>
  <outline>
    <contour>
      <point x="126" y="742" type="line"/>
      <point x="126" y="727"/>
      <point x="126" y="713"/>
      <point x="126" y="699" type="curve" smooth="yes"/>
      <point x="126" y="692"/>
      <point x="130" y="688"/>
      <point x="137" y="688" type="curve"/>
      <point x="474" y="688" type="line"/>
      <point x="474" y="702"/>
      <point x="474" y="716"/>
      <point x="474" y="731" type="curve" smooth="yes"/>
      <point x="474" y="737"/>
      <point x="469" y="742"/>
      <point x="463" y="742" type="curve"/>
    </contour>
  </outline>
</glyph>
<glyph name="degree" format="1">
  <advance width="600"/>
  <unicode hex="00B0"/>
  <outline>
    <contour>
      <point x="300" y="426" type="curve"/>
      <point x="228" y="426"/>
      <point x="189" y="462"/>
      <point x="189" y="522" type="curve" smooth="yes"/>
      <point x="189" y="563" type="line" smooth="yes"/>
      <point x="189" y="623"/>
      <point x="230" y="659"/>
      <point x="300" y="659" type="curve" smooth="yes"/>
      <point x="346" y="659"/>
      <point x="367" y="654"/>
      <point x="399" y="635" type="curve"/>
      <point x="416" y="667"/>
      <point x="361" y="710"/>
      <point x="300" y="710" type="curve"/>
      <point x="200" y="710"/>
      <point x="135" y="653"/>
      <point x="135" y="563" type="curve" smooth="yes"/>
      <point x="135" y="522" type="line" smooth="yes"/>
      <point x="135" y="432"/>
      <point x="200" y="375"/>
      <point x="300" y="375" type="curve"/>
      <point x="309" y="375"/>
      <point x="309" y="387"/>
    </contour>
    <contour>
      <point x="300" y="659" type="curve"/>
      <point x="372" y="659"/>
      <point x="411" y="623"/>
      <point x="411" y="563" type="curve" smooth="yes"/>
      <point x="411" y="522" type="line" smooth="yes"/>
      <point x="411" y="462"/>
      <point x="370" y="426"/>
      <point x="300" y="426" type="curve" smooth="yes"/>
      <point x="254" y="426"/>
      <point x="233" y="431"/>
      <point x="201" y="450" type="curve"/>
      <point x="184" y="418"/>
      <point x="239" y="375"/>
      <point x="300" y="375" type="curve"/>
      <point x="400" y="375"/>
      <point x="465" y="432"/>
      <point x="465" y="522" type="curve" smooth="yes"/>
      <point x="465" y="563" type="line" smooth="yes"/>
      <point x="465" y="653"/>
      <point x="400" y="710"/>
      <point x="300" y="710" type="curve"/>
      <point x="288" y="710"/>
      <point x="287" y="701"/>
    </contour>
  </outline>
</glyph>
<glyph name="acute" format="1">
  <advance width="600"/>
  <unicode hex="00B4"/>
  <outline>
    <contour>
      <point x="315" y="645" type="curve" smooth="yes"/>
      <point x="323" y="645"/>
      <point x="329" y="649"/>
      <point x="332" y="653" type="curve" smooth="yes"/>
      <point x="386" y="722"/>
      <point x="412" y="755"/>
      <point x="459" y="816" type="curve"/>
      <point x="465" y="823"/>
      <point x="463" y="833"/>
      <point x="453" y="833" type="curve" smooth="yes"/>
      <point x="432" y="833"/>
      <point x="415" y="833"/>
      <point x="390" y="833" type="curve"/>
      <point x="349" y="770"/>
      <point x="307" y="705"/>
      <point x="268" y="645" type="curve"/>
      <point x="281" y="645"/>
      <point x="299" y="645"/>
    </contour>
  </outline>
</glyph>
<glyph name="paragraph" format="1">
  <advance width="600"/>
  <unicode hex="00B6"/>
  <outline>
    <contour>
      <point x="358" y="-150" type="curve"/>
      <point x="358" y="657" type="line"/>
      <point x="358" y="663"/>
      <point x="353" y="668"/>
      <point x="347" y="668" type="curve" smooth="yes"/>
      <point x="333" y="668"/>
      <point x="319" y="668"/>
      <point x="305" y="668" type="curve"/>
      <point x="305" y="-139" type="line" smooth="yes"/>
      <point x="305" y="-146"/>
      <point x="309" y="-150"/>
      <point x="316" y="-150" type="curve" smooth="yes"/>
      <point x="330" y="-150"/>
      <point x="344" y="-150"/>
    </contour>
    <contour>
      <point x="511" y="-150" type="curve"/>
      <point x="511" y="-118"/>
      <point x="511" y="-80"/>
      <point x="511" y="-40" type="curve" smooth="yes"/>
      <point x="511" y="657" type="line" smooth="yes"/>
      <point x="511" y="663"/>
      <point x="506" y="668"/>
      <point x="500" y="668" type="curve" smooth="yes"/>
      <point x="485" y="668"/>
      <point x="472" y="668"/>
      <point x="457" y="668" type="curve"/>
      <point x="457" y="-139" type="line" smooth="yes"/>
      <point x="457" y="-146"/>
      <point x="461" y="-150"/>
      <point x="468" y="-150" type="curve" smooth="yes"/>
      <point x="483" y="-150"/>
      <point x="496" y="-150"/>
    </contour>
    <contour>
      <point x="274" y="700" type="line" smooth="yes"/>
      <point x="128" y="700"/>
      <point x="69" y="606"/>
      <point x="69" y="485" type="curve" smooth="yes"/>
      <point x="69" y="400" type="line" smooth="yes"/>
      <point x="69" y="285"/>
      <point x="120" y="201"/>
      <point x="257" y="201" type="curve" smooth="yes"/>
      <point x="330" y="201" type="line" smooth="yes"/>
      <point x="336" y="201"/>
      <point x="338" y="216"/>
      <point x="338" y="252" type="curve"/>
      <point x="275" y="252" type="line" smooth="yes"/>
      <point x="171" y="252"/>
      <point x="129" y="288"/>
      <point x="129" y="400" type="curve" smooth="yes"/>
      <point x="129" y="485" type="line" smooth="yes"/>
      <point x="129" y="596"/>
      <point x="178" y="648"/>
      <point x="291" y="648" type="curve" smooth="yes"/>
      <point x="388" y="648"/>
      <point x="491" y="648"/>
      <point x="553" y="648" type="curve"/>
      <point x="564" y="648" type="line"/>
      <point x="564" y="660"/>
      <point x="564" y="673"/>
      <point x="564" y="689" type="curve" smooth="yes"/>
      <point x="564" y="692"/>
      <point x="563" y="695"/>
      <point x="561" y="697" type="curve" smooth="yes"/>
      <point x="559" y="699"/>
      <point x="556" y="700"/>
      <point x="553" y="700" type="curve" smooth="yes"/>
    </contour>
  </outline>
</glyph>
<glyph name="cedilla" format="1">
  <advance width="600"/>
  <unicode hex="00B8"/>
  <outline>
    <contour>
      <point x="396" y="-123" type="curve" smooth="yes"/>
      <point x="396" y="-73"/>
      <point x="364" y="-43"/>
      <point x="314" y="-40" type="curve"/>
      <point x="318" y="-19"/>
      <point x="323" y="3"/>
      <point x="327" y="24" type="curve"/>
      <point x="286" y="24"/>
      <point x="281" y="24"/>
      <point x="279" y="11" type="curve" smooth="yes"/>
      <point x="273" y="-15"/>
      <point x="269" y="-38"/>
      <point x="264" y="-65" type="curve" smooth="yes"/>
      <point x="262" y="-71"/>
      <point x="266" y="-77"/>
      <point x="273" y="-77" type="curve" smooth="yes"/>
      <point x="333" y="-77"/>
      <point x="347" y="-93"/>
      <point x="347" y="-122" type="curve" smooth="yes"/>
      <point x="347" y="-155"/>
      <point x="320" y="-175"/>
      <point x="277" y="-175" type="curve" smooth="yes"/>
      <point x="241" y="-175"/>
      <point x="225" y="-168"/>
      <point x="210" y="-155" type="curve"/>
      <point x="198" y="-155" type="line"/>
      <point x="198" y="-167"/>
      <point x="198" y="-177"/>
      <point x="198" y="-194" type="curve" smooth="yes"/>
      <point x="198" y="-204"/>
      <point x="223" y="-222"/>
      <point x="276" y="-222" type="curve" smooth="yes"/>
      <point x="353" y="-222"/>
      <point x="396" y="-179"/>
    </contour>
  </outline>
</glyph>
<glyph name="guillemotright" format="1">
  <advance width="600"/>
  <unicode hex="00BB"/>
  <outline>
    <contour>
      <point x="292" y="78" type="line"/>
      <point x="310" y="78"/>
      <point x="323" y="78"/>
      <point x="336" y="78" type="curve" smooth="yes"/>
      <point x="348" y="78"/>
      <point x="353" y="79"/>
      <point x="362" y="88" type="curve" smooth="yes"/>
      <point x="391" y="118"/>
      <point x="477" y="209"/>
      <point x="539" y="275" type="curve"/>
      <point x="539" y="295" type="line"/>
      <point x="539" y="304"/>
      <point x="534" y="307"/>
      <point x="505" y="317" type="curve"/>
      <point x="445" y="252"/>
      <point x="390" y="194"/>
      <point x="292" y="91" type="curve"/>
    </contour>
    <contour>
      <point x="292" y="509" type="line"/>
      <point x="391" y="406"/>
      <point x="440" y="355"/>
      <point x="504" y="286" type="curve"/>
      <point x="536" y="286"/>
      <point x="539" y="287"/>
      <point x="539" y="291" type="curve"/>
      <point x="539" y="315" type="line" smooth="yes"/>
      <point x="539" y="323"/>
      <point x="538" y="327"/>
      <point x="529" y="337" type="curve" smooth="yes"/>
      <point x="509" y="358"/>
      <point x="378" y="495"/>
      <point x="364" y="510" type="curve"/>
      <point x="353" y="521"/>
      <point x="351" y="522"/>
      <point x="338" y="522" type="curve" smooth="yes"/>
      <point x="315" y="522"/>
      <point x="304" y="522"/>
      <point x="292" y="522" type="curve"/>
    </contour>
    <contour>
      <point x="62" y="78" type="line"/>
      <point x="80" y="78"/>
      <point x="93" y="78"/>
      <point x="106" y="78" type="curve" smooth="yes"/>
      <point x="118" y="78"/>
      <point x="123" y="79"/>
      <point x="132" y="88" type="curve" smooth="yes"/>
      <point x="161" y="118"/>
      <point x="247" y="209"/>
      <point x="309" y="275" type="curve"/>
      <point x="309" y="295" type="line"/>
      <point x="309" y="304"/>
      <point x="304" y="307"/>
      <point x="275" y="317" type="curve"/>
      <point x="215" y="252"/>
      <point x="160" y="194"/>
      <point x="62" y="91" type="curve"/>
    </contour>
    <contour>
      <point x="62" y="509" type="line"/>
      <point x="161" y="406"/>
      <point x="210" y="355"/>
      <point x="274" y="286" type="curve"/>
      <point x="306" y="286"/>
      <point x="309" y="287"/>
      <point x="309" y="291" type="curve"/>
      <point x="309" y="315" type="line" smooth="yes"/>
      <point x="309" y="323"/>
      <point x="308" y="327"/>
      <point x="299" y="337" type="curve" smooth="yes"/>
      <point x="279" y="358"/>
      <point x="148" y="495"/>
      <point x="134" y="510" type="curve"/>
      <point x="123" y="521"/>
      <point x="121" y="522"/>
      <point x="108" y="522" type="curve" smooth="yes"/>
      <point x="85" y="522"/>
      <point x="74" y="522"/>
      <point x="62" y="522" type="curve"/>
    </contour>
  </outline>
</glyph>
